<?xml version="1.0" encoding="UTF-8"?>
<svg version="1.1" xmlns="http://www.w3.org/2000/svg" width="96" height="96">
<path d="M0 0 C9.53952789 7.51663693 15.10483607 18.77519224 17 30.62890625 C17.95574374 45.51645291 14.82667637 58.00409637 5.625 69.94140625 C-4.50998951 80.31770504 -16.46685956 85.56472284 -30.875 85.94140625 C-44.16696976 85.69869574 -56.32811443 80.92735365 -66 71.62890625 C-71.39602748 64.98499363 -76.14889727 58.09109016 -78 49.62890625 C-78.18046875 48.85804687 -78.3609375 48.0871875 -78.546875 47.29296875 C-80.95426363 33.1391839 -77.73639856 20.51871694 -70 8.62890625 C-63.38046 -0.07747178 -53.79454314 -7.00978744 -43 -9.37109375 C-41.84371094 -9.64179688 -41.84371094 -9.64179688 -40.6640625 -9.91796875 C-25.51665307 -12.49436097 -12.4543553 -8.53804435 0 0 Z M-58 1.62890625 C-58.63679688 2.06976563 -59.27359375 2.510625 -59.9296875 2.96484375 C-67.79180817 9.00994098 -72.5793805 18.15944275 -75 27.62890625 C-75.226875 28.43328125 -75.45375 29.23765625 -75.6875 30.06640625 C-77.25394828 42.91128217 -74.47474249 54.06116687 -67 64.62890625 C-66.33871094 65.58410156 -66.33871094 65.58410156 -65.6640625 66.55859375 C-59.24955044 74.90116723 -49.18485005 79.91078993 -39.125 82.31640625 C-25.96677866 83.63222838 -14.89987289 81.33857244 -4 73.62890625 C-3.36320312 73.18804687 -2.72640625 72.7471875 -2.0703125 72.29296875 C6.27226098 65.87845669 11.28188368 55.8137563 13.6875 45.75390625 C15.00332213 32.59568491 12.70966619 21.52877914 5 10.62890625 C4.33871094 9.67371094 4.33871094 9.67371094 3.6640625 8.69921875 C-2.75044956 0.35664527 -12.81514995 -4.65297743 -22.875 -7.05859375 C-36.03322134 -8.37441588 -47.10012711 -6.08075994 -58 1.62890625 Z " fill="#E8E8E8" transform="translate(79,10.37109375)"/>
<path d="M0 0 C1.22847656 -0.02900391 2.45695312 -0.05800781 3.72265625 -0.08789062 C15.05069592 -0.16766555 15.05069592 -0.16766555 19.75 4.3125 C22.17518766 7.8329337 22.76021882 9.70958933 22.6875 14 C21.75 17.3125 21.75 17.3125 20.15600586 18.99462891 C16.90013579 20.77800655 13.93509435 20.74299446 10.31640625 20.7109375 C9.60145493 20.71380768 8.8865036 20.71667786 8.14988708 20.71963501 C6.64117641 20.72167193 5.13243911 20.71616801 3.6237793 20.70361328 C1.32344998 20.68757634 -0.97511629 20.70346064 -3.27539062 20.72265625 C-4.74479552 20.72067329 -6.21419933 20.71682851 -7.68359375 20.7109375 C-8.36707382 20.71701019 -9.05055389 20.72308289 -9.75474548 20.7293396 C-14.07531589 20.66622928 -16.80809654 19.94811576 -20.25 17.3125 C-22.00331113 13.80587774 -21.20431841 10.02089169 -20.25 6.3125 C-14.34778309 -0.95176697 -8.80314616 0.06841823 0 0 Z " fill="#14151A" transform="translate(47.25,49.6875)"/>
<path d="M0 0 C2.77428577 1.26103899 4.48317435 2.31089914 6.3125 4.75 C7.31199111 8.0210618 7.3581657 10.59742588 7 14 C5.20437595 16.75329021 3.94745078 18.52627461 1 20 C-3.97067782 20.3751455 -7.05151502 20.15878799 -11 17 C-13.32849047 13.78446554 -13.54457007 10.88978623 -13 7 C-9.53450596 1.44747981 -6.52922476 -0.51209606 0 0 Z " fill="#14151A" transform="translate(51,26)"/>
</svg>
