<?xml version="1.0" encoding="UTF-8"?>
<svg version="1.1" xmlns="http://www.w3.org/2000/svg" width="96" height="96">
<path d="M0 0 C9.53952789 7.51663693 15.10483607 18.77519224 17 30.62890625 C17.95574374 45.51645291 14.82667637 58.00409637 5.625 69.94140625 C-4.50998951 80.31770504 -16.46685956 85.56472284 -30.875 85.94140625 C-44.16696976 85.69869574 -56.32811443 80.92735365 -66 71.62890625 C-71.39602748 64.98499363 -76.14889727 58.09109016 -78 49.62890625 C-78.18046875 48.85804687 -78.3609375 48.0871875 -78.546875 47.29296875 C-80.95426363 33.1391839 -77.73639856 20.51871694 -70 8.62890625 C-63.38046 -0.07747178 -53.79454314 -7.00978744 -43 -9.37109375 C-41.84371094 -9.64179688 -41.84371094 -9.64179688 -40.6640625 -9.91796875 C-25.51665307 -12.49436097 -12.4543553 -8.53804435 0 0 Z M-58 1.62890625 C-58.63679688 2.06976563 -59.27359375 2.510625 -59.9296875 2.96484375 C-67.79180817 9.00994098 -72.5793805 18.15944275 -75 27.62890625 C-75.226875 28.43328125 -75.45375 29.23765625 -75.6875 30.06640625 C-77.25394828 42.91128217 -74.47474249 54.06116687 -67 64.62890625 C-66.33871094 65.58410156 -66.33871094 65.58410156 -65.6640625 66.55859375 C-59.24955044 74.90116723 -49.18485005 79.91078993 -39.125 82.31640625 C-25.96677866 83.63222838 -14.89987289 81.33857244 -4 73.62890625 C-3.36320312 73.18804687 -2.72640625 72.7471875 -2.0703125 72.29296875 C6.27226098 65.87845669 11.28188368 55.8137563 13.6875 45.75390625 C15.00332213 32.59568491 12.70966619 21.52877914 5 10.62890625 C4.33871094 9.67371094 4.33871094 9.67371094 3.6640625 8.69921875 C-2.75044956 0.35664527 -12.81514995 -4.65297743 -22.875 -7.05859375 C-36.03322134 -8.37441588 -47.10012711 -6.08075994 -58 1.62890625 Z " fill="#E8E8E8" transform="translate(79,10.37109375)"/>
<path d="M0 0 C2.475 0.495 2.475 0.495 5 1 C5 5.29 5 9.58 5 14 C9.29 14 13.58 14 18 14 C18.495 16.475 18.495 16.475 19 19 C18 20 18 20 15.05859375 20.09765625 C11.70572917 20.06510417 8.35286458 20.03255208 5 20 C5 24.29 5 28.58 5 33 C2.525 33.495 2.525 33.495 0 34 C-1 33 -1 33 -1.09765625 30.05859375 C-1.04882812 25.02929688 -1.04882812 25.02929688 -1 20 C-5.29 20 -9.58 20 -14 20 C-14.33 18.35 -14.66 16.7 -15 15 C-14 14 -14 14 -11.05859375 13.90234375 C-9.26615234 13.91974609 -9.26615234 13.91974609 -7.4375 13.9375 C-5.64119141 13.95103516 -5.64119141 13.95103516 -3.80859375 13.96484375 C-2.88175781 13.97644531 -1.95492187 13.98804688 -1 14 C-1.01160156 13.07316406 -1.02320313 12.14632812 -1.03515625 11.19140625 C-1.04417969 9.99386719 -1.05320312 8.79632813 -1.0625 7.5625 C-1.07410156 6.36753906 -1.08570313 5.17257813 -1.09765625 3.94140625 C-1 1 -1 1 0 0 Z " fill="#14151A" transform="translate(46,31)"/>
</svg>
