<?xml version="1.0" encoding="UTF-8"?>
<svg version="1.1" xmlns="http://www.w3.org/2000/svg" width="100" height="100">
<path d="M0 0 C8.64822802 6.87119486 15.44311132 18.01837448 17 29 C18.40895106 46.55709566 15.56638733 59.95954698 4.4140625 73.99609375 C-3.81286908 83.00558711 -15.56118495 88.6401856 -27.6484375 89.3125 C-44.13318085 89.87527929 -57.29779856 86.1831071 -69.75 74.8125 C-80.88341536 62.87619411 -83.80272194 49.59143924 -83.34375 33.85546875 C-82.66010765 21.18611097 -76.33281061 9.26446012 -67.0703125 0.625 C-46.64754218 -15.40494803 -20.73790664 -15.44661826 0 0 Z " fill="#161C1C" transform="translate(83,11)"/>
<path d="M0 0 C13.43082471 1.97512128 23.92356489 7.85154499 33 18 C35.76550573 21.83227302 37.98502048 25.7289323 40 30 C40.35964844 30.7528125 40.71929687 31.505625 41.08984375 32.28125 C45.25133477 43.17400069 44.61901017 58.63112958 40.328125 69.328125 C34.03479709 81.98881998 26.1237801 91.16720885 13 97 C9.23193471 95.74397824 8.78753493 94.48987433 6.8125 91.125 C6.28269531 90.24070312 5.75289062 89.35640625 5.20703125 88.4453125 C4 86 4 86 4 83 C6.31 83 8.62 83 11 83 C11.433125 81.3603125 11.433125 81.3603125 11.875 79.6875 C13 76 13 76 15 73 C15.45139459 70.9507906 15.45139459 70.9507906 15.625 68.8125 C15.74875 67.554375 15.8725 66.29625 16 65 C16.33 65 16.66 65 17 65 C17.50918889 57.9986527 16.18805054 51.99729995 14.50195312 45.26025391 C13.23703975 40.1677308 12.38141274 35.24442515 12 30 C11.34 30 10.68 30 10 30 C9.67 32.31 9.34 34.62 9 37 C8.34 37 7.68 37 7 37 C7.02320312 37.68964844 7.04640625 38.37929688 7.0703125 39.08984375 C7.22868759 47.33666087 7.08412937 54.29819311 2 61 C1.73323287 64.13451381 1.9462315 66.73115751 2.5625 69.8125 C2.706875 70.534375 2.85125 71.25625 3 72 C1.29207001 73.70792999 -0.85543481 73.25270346 -3.1875 73.3125 C-6.98358186 73.25812904 -9.10643921 72.95670269 -12.6875 71.5 C-15.21550721 68.76701924 -15.34378866 68.27063932 -15.375 64.75 C-15.25125 63.5125 -15.1275 62.275 -15 61 C-13 64 -13 64 -13 67 C-11.02 67.33 -9.04 67.66 -7 68 C-7 67.01 -7 66.02 -7 65 C-8.32 64.67 -9.64 64.34 -11 64 C-11 62 -11 62 -9 60 C-6.875 59.375 -6.875 59.375 -5 59 C-6.03060547 58.81824219 -6.03060547 58.81824219 -7.08203125 58.6328125 C-7.98308594 58.46523438 -8.88414063 58.29765625 -9.8125 58.125 C-10.70582031 57.96257813 -11.59914063 57.80015625 -12.51953125 57.6328125 C-15 57 -15 57 -18 55 C-20.70718461 49.46013216 -20.22590012 43.64019921 -20.125 37.625 C-20.11597656 36.60277344 -20.10695312 35.58054688 -20.09765625 34.52734375 C-20.0742043 32.01798478 -20.04138355 29.50911664 -20 27 C-17.03 26.67 -14.06 26.34 -11 26 C-10.67 23.36 -10.34 20.72 -10 18 C-11.98 18 -13.96 18 -16 18 C-12.90009827 14.7524839 -10.99281857 13.03365487 -6.3125 12.875 C-5.219375 12.91625 -4.12625 12.9575 -3 13 C-3 12.34 -3 11.68 -3 11 C-3.66 11 -4.32 11 -5 11 C-4.67 9.68 -4.34 8.36 -4 7 C-4 7.99 -4 8.98 -4 10 C-3.01 10 -2.02 10 -1 10 C-1 10.66 -1 11.32 -1 12 C0.32 12 1.64 12 3 12 C3 11.34 3 10.68 3 10 C0.525 9.505 0.525 9.505 -2 9 C-1.34 6.03 -0.68 3.06 0 0 Z " fill="#34312B" transform="translate(57,0)"/>
<path d="M0 0 C0.77923828 0.00902344 1.55847656 0.01804688 2.36132812 0.02734375 C4.26185447 0.05066309 6.16222008 0.08652414 8.0625 0.125 C7.4025 3.095 6.7425 6.065 6.0625 9.125 C8.5375 9.62 8.5375 9.62 11.0625 10.125 C11.0625 10.785 11.0625 11.445 11.0625 12.125 C9.7425 12.125 8.4225 12.125 7.0625 12.125 C7.0625 11.465 7.0625 10.805 7.0625 10.125 C5.7425 10.455 4.4225 10.785 3.0625 11.125 C3.7225 11.125 4.3825 11.125 5.0625 11.125 C5.0625 11.785 5.0625 12.445 5.0625 13.125 C3.4846875 13.2796875 3.4846875 13.2796875 1.875 13.4375 C-1.81180754 14.10233415 -3.90388599 15.01066296 -6.9375 17.125 C-5.2875 17.455 -3.6375 17.785 -1.9375 18.125 C-1.83984375 24.27734375 -1.83984375 24.27734375 -1.9375 26.125 C-2.9375 27.125 -2.9375 27.125 -5.00390625 27.22265625 C-5.82761719 27.21105469 -6.65132812 27.19945313 -7.5 27.1875 C-8.32628906 27.17847656 -9.15257812 27.16945313 -10.00390625 27.16015625 C-10.96103516 27.14275391 -10.96103516 27.14275391 -11.9375 27.125 C-11.79774595 30.66693375 -11.64961066 34.20846999 -11.5 37.75 C-11.46068359 38.74902344 -11.42136719 39.74804688 -11.38085938 40.77734375 C-11.17177386 45.63456104 -10.90791445 50.34632044 -9.9375 55.125 C-4.95520224 57.04126837 -0.21065333 57.6797115 5.0625 58.125 C4.4025 58.785 3.7425 59.445 3.0625 60.125 C3.3925 60.785 3.7225 61.445 4.0625 62.125 C1.7525 62.125 -0.5575 62.125 -2.9375 62.125 C-2.6075 62.785 -2.2775 63.445 -1.9375 64.125 C-0.9475 64.455 0.0425 64.785 1.0625 65.125 C1.0625 66.115 1.0625 67.105 1.0625 68.125 C-1.9075 67.63 -1.9075 67.63 -4.9375 67.125 C-5.2675 66.135 -5.5975 65.145 -5.9375 64.125 C-6.5975 65.445 -7.2575 66.765 -7.9375 68.125 C-8.91358217 65.19675348 -9.01976668 63.16886724 -8.9375 60.125 C-9.4325 61.115 -9.4325 61.115 -9.9375 62.125 C-10.5975 62.125 -11.2575 62.125 -11.9375 62.125 C-12.9275 65.095 -13.9175 68.065 -14.9375 71.125 C-15.5975 71.125 -16.2575 71.125 -16.9375 71.125 C-16.07301475 66.5172097 -14.83356499 62.05893315 -13.55859375 57.55078125 C-12.85482082 55.21942172 -12.85482082 55.21942172 -12.9375 53.125 C-13.5975 53.125 -14.2575 53.125 -14.9375 53.125 C-15.2675 51.475 -15.5975 49.825 -15.9375 48.125 C-16.9275 48.125 -17.9175 48.125 -18.9375 48.125 C-18.9375 48.785 -18.9375 49.445 -18.9375 50.125 C-19.5975 50.125 -20.2575 50.125 -20.9375 50.125 C-21.2675 48.805 -21.5975 47.485 -21.9375 46.125 C-19.6275 46.125 -17.3175 46.125 -14.9375 46.125 C-14.9375 46.785 -14.9375 47.445 -14.9375 48.125 C-14.2775 48.125 -13.6175 48.125 -12.9375 48.125 C-13.4325 44.165 -13.4325 44.165 -13.9375 40.125 C-16.44833114 41.38041557 -16.80875446 42.62563488 -17.9375 45.125 C-18.2675 45.125 -18.5975 45.125 -18.9375 45.125 C-19.4325 42.65 -19.4325 42.65 -19.9375 40.125 C-21.9175 40.62 -21.9175 40.62 -23.9375 41.125 C-23.9375 40.465 -23.9375 39.805 -23.9375 39.125 C-25.2575 38.795 -26.5775 38.465 -27.9375 38.125 C-27.9375 37.795 -27.9375 37.465 -27.9375 37.125 C-28.2675 36.135 -28.5975 35.145 -28.9375 34.125 C-31.02018593 34.04373913 -33.10378658 33.98569161 -35.1875 33.9375 C-36.34765625 33.90269531 -37.5078125 33.86789063 -38.703125 33.83203125 C-42.16018407 34.14517066 -43.45315563 34.78209108 -45.9375 37.125 C-46.5975 36.795 -47.2575 36.465 -47.9375 36.125 C-42.38954848 20.60140487 -33.65500876 10.67142721 -19 3.421875 C-12.50076583 0.66964828 -6.9559526 -0.15497409 0 0 Z " fill="#2D332E" transform="translate(48.9375,-0.125)"/>
<path d="M0 0 C0.66 0 1.32 0 2 0 C2.71379615 3.09311664 3.42638799 6.18643788 4.1328125 9.28125 C4.68792533 11.66173383 5.2641239 14.03745963 5.8671875 16.40625 C7.53509408 23.07787633 8.41920351 29.12195721 8 36 C7.67 36 7.34 36 7 36 C6.34 40.29 5.68 44.58 5 49 C4.34 49 3.68 49 3 49 C2.7525 49.639375 2.505 50.27875 2.25 50.9375 C1 53 1 53 -0.9375 53.8125 C-3 54 -3 54 -6 53 C-5.74605469 53.50789063 -5.49210937 54.01578125 -5.23046875 54.5390625 C-3.15364583 58.69270833 -1.07682292 62.84635417 1 67 C-5.34721589 69.81112126 -10.47532637 70.41210687 -17.375 70.25 C-18.27605469 70.24484375 -19.17710938 70.2396875 -20.10546875 70.234375 C-26.68918011 70.15540995 -26.68918011 70.15540995 -29 69 C-28.855625 68.27296875 -28.71125 67.5459375 -28.5625 66.796875 C-26.73440702 56.89470468 -25.44616635 47.46492671 -29.34375 37.9375 C-30 36 -30 36 -30 32 C-29.34 32 -28.68 32 -28 32 C-27.67 31.01 -27.34 30.02 -27 29 C-26.67 29 -26.34 29 -26 29 C-26.103125 30.051875 -26.20625 31.10375 -26.3125 32.1875 C-26.35526845 36.12791581 -26.35526845 36.12791581 -23.625 38.875 C-19.8735591 41.91188073 -18.1341326 42.11783875 -13.375 42.0625 C-12.37210938 42.05347656 -11.36921875 42.04445312 -10.3359375 42.03515625 C-9.56507812 42.02355469 -8.79421875 42.01195312 -8 42 C-8.11859375 41.28714844 -8.2371875 40.57429688 -8.359375 39.83984375 C-8.55273438 38.40318359 -8.55273438 38.40318359 -8.75 36.9375 C-8.88921875 35.99777344 -9.0284375 35.05804688 -9.171875 34.08984375 C-8.97866817 30.61651181 -7.79868476 28.81085463 -5.97949219 25.91186523 C-4.22378562 22.48491155 -4.06175584 18.85228189 -3.75 15.0625 C-3.63398437 13.89364258 -3.63398437 13.89364258 -3.515625 12.70117188 C-3.3292181 10.8021516 -3.16253334 8.90121236 -3 7 C-2.34 7 -1.68 7 -1 7 C-0.67 4.69 -0.34 2.38 0 0 Z " fill="#080D12" transform="translate(67,30)"/>
<path d="M0 0 C3 5.625 3 5.625 3 9 C2.34 9 1.68 9 1 9 C1.33 9.99 1.66 10.98 2 12 C2.64913252 20.36324224 2.14476994 28.2182578 -3 35 C-3.26676713 38.13451381 -3.0537685 40.73115751 -2.4375 43.8125 C-2.293125 44.534375 -2.14875 45.25625 -2 46 C-3.70792999 47.70792999 -5.85543481 47.25270346 -8.1875 47.3125 C-11.98358186 47.25812904 -14.10643921 46.95670269 -17.6875 45.5 C-20.21550721 42.76701924 -20.34378866 42.27063932 -20.375 38.75 C-20.25125 37.5125 -20.1275 36.275 -20 35 C-18 38 -18 38 -18 41 C-16.02 41.33 -14.04 41.66 -12 42 C-12 41.01 -12 40.02 -12 39 C-13.32 38.67 -14.64 38.34 -16 38 C-16 36 -16 36 -14 34 C-11.875 33.375 -11.875 33.375 -10 33 C-11.03060547 32.81824219 -11.03060547 32.81824219 -12.08203125 32.6328125 C-12.98308594 32.46523438 -13.88414063 32.29765625 -14.8125 32.125 C-15.70582031 31.96257813 -16.59914063 31.80015625 -17.51953125 31.6328125 C-20 31 -20 31 -23 29 C-25.16371219 24.21705726 -25.17726741 20.14075497 -25 15 C-23.35 16.65 -21.7 18.3 -20 20 C-20 19.67 -20 19.34 -20 19 C-18.35 19 -16.7 19 -15 19 C-15 19.66 -15 20.32 -15 21 C-14.34 21 -13.68 21 -13 21 C-13.14657084 19.03385733 -13.14657084 19.03385733 -14 17 C-16.08034294 15.8624787 -16.08034294 15.8624787 -18.5625 15.25 C-19.38878906 15.00765625 -20.21507812 14.7653125 -21.06640625 14.515625 C-21.70449219 14.34546875 -22.34257813 14.1753125 -23 14 C-23.22162329 12.37675914 -23.42689803 10.751279 -23.625 9.125 C-23.74101563 8.22007813 -23.85703125 7.31515625 -23.9765625 6.3828125 C-23.98429687 5.59648437 -23.99203125 4.81015625 -24 4 C-18.3015453 -1.6984547 -7.42886073 -0.20667619 0 0 Z " fill="#9F775E" transform="translate(62,26)"/>
<path d="M0 0 C0.61875 0.185625 1.2375 0.37125 1.875 0.5625 C4.04160178 1.23686176 4.04160178 1.23686176 6 0 C6 0.99 6 1.98 6 3 C5.01 3.33 4.02 3.66 3 4 C3.33 5.65 3.66 7.3 4 9 C4.99 9 5.98 9 7 9 C6.34 8.67 5.68 8.34 5 8 C5 6.68 5 5.36 5 4 C5.99 4 6.98 4 8 4 C8 5.32 8 6.64 8 8 C9.98 8 11.96 8 14 8 C10.46588679 10.12046792 7.05606165 10.53199289 3 11 C3 11.99 3 12.98 3 14 C3.66 14 4.32 14 5 14 C5 15.32 5 16.64 5 18 C5.680625 17.690625 6.36125 17.38125 7.0625 17.0625 C10.36965912 15.86629351 13.51545878 15.40994603 17 15 C16.67 18.3 16.34 21.6 16 25 C17.65 24.67 19.3 24.34 21 24 C21 24.66 21 25.32 21 26 C22.32 25.67 23.64 25.34 25 25 C25 27.31 25 29.62 25 32 C25.99 32 26.98 32 28 32 C28 30.02 28 28.04 28 26 C28.33 26 28.66 26 29 26 C29.37369729 33.47394574 28.04061541 39.82140651 26 47 C13.78232386 44.21723212 3.09121777 37.63162091 -3.91015625 27.13671875 C-7.08776613 21.89725112 -9.76796945 17.02326046 -11 11 C-10.360625 10.773125 -9.72125 10.54625 -9.0625 10.3125 C-6.72567164 9.15983399 -6.72567164 9.15983399 -6.375 6.4375 C-6.189375 5.2309375 -6.189375 5.2309375 -6 4 C-5.34 3.67 -4.68 3.34 -4 3 C-3.67 2.34 -3.34 1.68 -3 1 C-2.01 1.33 -1.02 1.66 0 2 C0 1.34 0 0.68 0 0 Z " fill="#20292B" transform="translate(12,52)"/>
<path d="M0 0 C2.3125 0.0625 2.3125 0.0625 5 1 C10.32148219 11.07280557 11.01864681 24.99491822 8.10546875 35.984375 C7.17828102 38.72334651 6.19773401 41.36926279 5 44 C4.34 44 3.68 44 3 44 C3 42.68 3 41.36 3 40 C1.515 40.495 1.515 40.495 0 41 C0.33 42.32 0.66 43.64 1 45 C0.34 45 -0.32 45 -1 45 C-1.33 45.99 -1.66 46.98 -2 48 C-5.40843742 45.11593757 -6.86591384 43.6291735 -7.8125 39.1875 C-7.9053125 37.6096875 -7.9053125 37.6096875 -8 36 C-8.66 36 -9.32 36 -10 36 C-10 35.34 -10 34.68 -10 34 C-10.66 34 -11.32 34 -12 34 C-12 33.34 -12 32.68 -12 32 C-10.02 31.67 -8.04 31.34 -6 31 C-6 30.34 -6 29.68 -6 29 C-8.31 28.67 -10.62 28.34 -13 28 C-13.86226152 23.04199623 -14.06427364 18.36336012 -13.9375 13.33203125 C-13.99831432 11.0628968 -14.36131619 9.17052702 -15 7 C-14.34 7 -13.68 7 -13 7 C-13 6.34 -13 5.68 -13 5 C-11.3125 3.3125 -11.3125 3.3125 -9 2 C-6.25 2.3125 -6.25 2.3125 -4 3 C-3.67 4.98 -3.34 6.96 -3 9 C-1.68 8.67 -0.36 8.34 1 8 C0.649375 7.4225 0.29875 6.845 -0.0625 6.25 C-1.14917407 3.64198224 -0.93065133 2.60582371 0 0 Z " fill="#1E2422" transform="translate(91,28)"/>
<path d="M0 0 C0.66 0 1.32 0 2 0 C2.71379615 3.09311664 3.42638799 6.18643788 4.1328125 9.28125 C4.68792533 11.66173383 5.2641239 14.03745963 5.8671875 16.40625 C7.53509408 23.07787633 8.41920351 29.12195721 8 36 C7.67 36 7.34 36 7 36 C6.34 40.29 5.68 44.58 5 49 C4.34 49 3.68 49 3 49 C2.62875 49.9590625 2.62875 49.9590625 2.25 50.9375 C1 53 1 53 -1 53.875 C-1.66 53.91625 -2.32 53.9575 -3 54 C-3.66 53.34 -4.32 52.68 -5 52 C-4.66666667 50.66666667 -4.33333333 49.33333333 -4 48 C-4.66 47.34 -5.32 46.68 -6 46 C-5.625 43.375 -5.625 43.375 -5 41 C-5.66 41 -6.32 41 -7 41 C-9.11626861 37.5610635 -9.47116864 35.0049334 -9 31 C-8.35804687 29.96359375 -7.71609375 28.9271875 -7.0546875 27.859375 C-4.59485723 23.70984823 -4.14033473 19.80750653 -3.75 15.0625 C-3.67265625 14.28326172 -3.5953125 13.50402344 -3.515625 12.70117188 C-3.3292181 10.8021516 -3.16253334 8.90121236 -3 7 C-2.34 7 -1.68 7 -1 7 C-0.67 4.69 -0.34 2.38 0 0 Z " fill="#272422" transform="translate(67,30)"/>
<path d="M0 0 C0.77923828 0.00902344 1.55847656 0.01804688 2.36132812 0.02734375 C4.26185447 0.05066309 6.16222008 0.08652414 8.0625 0.125 C7.4025 3.095 6.7425 6.065 6.0625 9.125 C8.5375 9.62 8.5375 9.62 11.0625 10.125 C11.0625 10.785 11.0625 11.445 11.0625 12.125 C9.7425 12.125 8.4225 12.125 7.0625 12.125 C7.0625 11.465 7.0625 10.805 7.0625 10.125 C5.7425 10.455 4.4225 10.785 3.0625 11.125 C3.7225 11.125 4.3825 11.125 5.0625 11.125 C5.0625 11.785 5.0625 12.445 5.0625 13.125 C4.093125 13.16625 3.12375 13.2075 2.125 13.25 C-3.07122707 13.94989997 -6.78130389 17.14540523 -10.9375 20.125 C-11.5975 20.455 -12.2575 20.785 -12.9375 21.125 C-13.2675 18.815 -13.5975 16.505 -13.9375 14.125 C-14.5975 14.125 -15.2575 14.125 -15.9375 14.125 C-15.9375 13.135 -15.9375 12.145 -15.9375 11.125 C-16.865625 11.310625 -17.79375 11.49625 -18.75 11.6875 C-21.9375 12.125 -21.9375 12.125 -24.9375 11.125 C-24.9375 10.465 -24.9375 9.805 -24.9375 9.125 C-25.9275 8.795 -26.9175 8.465 -27.9375 8.125 C-26.08735947 7.15891677 -24.23216527 6.2025093 -22.375 5.25 C-21.34246094 4.71632813 -20.30992188 4.18265625 -19.24609375 3.6328125 C-12.69062276 0.64531332 -7.08273003 -0.15779861 0 0 Z " fill="#111516" transform="translate(48.9375,-0.125)"/>
<path d="M0 0 C1.231394 3.69418201 0.64432764 6.2056261 0 10 C1.65 9.67 3.3 9.34 5 9 C5 9.66 5 10.32 5 11 C6.32 10.67 7.64 10.34 9 10 C9 12.31 9 14.62 9 17 C9.99 17 10.98 17 12 17 C12 15.02 12 13.04 12 11 C12.33 11 12.66 11 13 11 C13.37369729 18.47394574 12.04061541 24.82140651 10 32 C8.37433394 31.52309796 6.74948689 31.04340334 5.125 30.5625 C4.22007813 30.29566406 3.31515625 30.02882813 2.3828125 29.75390625 C0 29 0 29 -2 28 C-2.48657227 26.22167969 -2.48657227 26.22167969 -2.81640625 23.921875 C-2.94080078 23.09042969 -3.06519531 22.25898437 -3.19335938 21.40234375 C-3.31517578 20.52707031 -3.43699219 19.65179688 -3.5625 18.75 C-3.81299745 17.03634052 -4.06427739 15.32279521 -4.31640625 13.609375 C-4.43258301 12.80693359 -4.54875977 12.00449219 -4.66845703 11.17773438 C-5.03541204 8.76739662 -5.48309686 6.38267732 -6 4 C-7.65 4.33 -9.3 4.66 -11 5 C-9 2 -9 2 -6.8359375 1.26953125 C-6.02382813 1.11871094 -5.21171875 0.96789062 -4.375 0.8125 C-3.55773437 0.65394531 -2.74046875 0.49539062 -1.8984375 0.33203125 C-1.27195312 0.22246094 -0.64546875 0.11289063 0 0 Z " fill="#192125" transform="translate(28,67)"/>
<path d="M0 0 C0.88429688 -0.02578125 1.76859375 -0.0515625 2.6796875 -0.078125 C5.125 0.25 5.125 0.25 6.87109375 1.57421875 C10.92457791 6.99149197 10.35744298 13.83199115 10.125 20.25 C10.785 20.25 11.445 20.25 12.125 20.25 C14.2353435 24.52884606 14.36628739 28.38864142 14.25 33.0625 C14.24097656 33.75537109 14.23195313 34.44824219 14.22265625 35.16210938 C14.19926157 36.85822395 14.16339641 38.55415871 14.125 40.25 C13.795 40.25 13.465 40.25 13.125 40.25 C12.465 36.95 11.805 33.65 11.125 30.25 C10.465 30.25 9.805 30.25 9.125 30.25 C8.465 25.96 7.805 21.67 7.125 17.25 C6.465 17.25 5.805 17.25 5.125 17.25 C4.795 19.56 4.465 21.87 4.125 24.25 C3.135 24.58 2.145 24.91 1.125 25.25 C1.125 24.26 1.125 23.27 1.125 22.25 C1.785 22.25 2.445 22.25 3.125 22.25 C2.18241564 17.96933045 2.18241564 17.96933045 0.125 14.25 C-3.14528833 12.90275301 -6.37856167 12.60903395 -9.875 12.25 C-11.21409645 11.94063033 -12.55020042 11.61577993 -13.875 11.25 C-13.545 8.94 -13.215 6.63 -12.875 4.25 C-11.555 4.25 -10.235 4.25 -8.875 4.25 C-8.875 4.91 -8.875 5.57 -8.875 6.25 C-7.225 6.58 -5.575 6.91 -3.875 7.25 C-4.535 5.27 -5.195 3.29 -5.875 1.25 C-4.21733202 -0.40766798 -2.27153595 0.03950497 0 0 Z " fill="#2D2B2A" transform="translate(61.875,12.75)"/>
<path d="M0 0 C0.99 0.33 1.98 0.66 3 1 C3 1.99 3 2.98 3 4 C3.66 4 4.32 4 5 4 C6.15884085 7.47652255 5.77936396 8.47004036 4.6875 11.875 C4.40648438 12.75671875 4.12546875 13.6384375 3.8359375 14.546875 C2.97581689 17.07096725 2.0604944 19.55270524 1 22 C1.66 22 2.32 22 3 22 C3.99 18.535 3.99 18.535 5 15 C8.09394429 18.09394429 9.11074144 21.76294449 10 26 C9.96232524 29.12700491 9.54080314 31.90267295 9 35 C8.01 35 7.02 35 6 35 C5.67 33.02 5.34 31.04 5 29 C4.01 29 3.02 29 2 29 C2 28.34 2 27.68 2 27 C0.35 27.33 -1.3 27.66 -3 28 C-3 25.03 -3 22.06 -3 19 C-6.63 19.66 -10.26 20.32 -14 21 C-14 19.68 -14 18.36 -14 17 C-14.66 17 -15.32 17 -16 17 C-16 16.01 -16 15.02 -16 14 C-14.41913952 13.63495397 -12.83516093 13.28339494 -11.25 12.9375 C-9.92742188 12.64166016 -9.92742188 12.64166016 -8.578125 12.33984375 C-6.01320972 12.00174128 -4.42908361 12.18841365 -2 13 C-2 12.34 -2 11.68 -2 11 C-4.31 10.67 -6.62 10.34 -9 10 C-9.33 8.35 -9.66 6.7 -10 5 C-9.67 5.66 -9.34 6.32 -9 7 C-5.77026531 8.07657823 -2.35549101 8.46617188 1 9 C0.34 8.401875 -0.32 7.80375 -1 7.1875 C-3 5 -3 5 -3 2 C-2.01 1.34 -1.02 0.68 0 0 Z " fill="#121819" transform="translate(31,49)"/>
<path d="M0 0 C5.3764652 -0.36657717 5.3764652 -0.36657717 8.06640625 1.21484375 C13.01711894 5.78550172 14.43555464 13.50887833 15 20 C15.66 20 16.32 20 17 20 C17 19.34 17 18.68 17 18 C20.465 17.505 20.465 17.505 24 17 C23.01 16.34 22.02 15.68 21 15 C21 13.68 21 12.36 21 11 C23.9719385 12.12451727 26.33440687 13.22293791 29 15 C30.32 15 31.64 15 33 15 C33.495 16.485 33.495 16.485 34 18 C32.35 18 30.7 18 29 18 C29.33 20.31 29.66 22.62 30 25 C28.68 25.33 27.36 25.66 26 26 C25.67 24.02 25.34 22.04 25 20 C21.37471432 19.79859524 19.13498292 20.14223235 16 22 C16 22.66 16 23.32 16 24 C15.34 24 14.68 24 14 24 C14.33 24.78375 14.66 25.5675 15 26.375 C16.10318066 30.3740299 16.11601488 33.71435565 15.97265625 37.828125 C15.84279678 40.0488588 15.84279678 40.0488588 17 42 C16.67 42.99 16.34 43.98 16 45 C16.99 45 17.98 45 19 45 C19 45.66 19 46.32 19 47 C18.01 47 17.02 47 16 47 C16.061875 47.845625 16.12375 48.69125 16.1875 49.5625 C15.96564836 53.62978004 14.66111043 56.29444597 13 60 C12.23098138 62.65194907 11.61441767 65.30601483 11 68 C10.67 68 10.34 68 10 68 C10.33 63.38 10.66 58.76 11 54 C11.33 54 11.66 54 12 54 C12.17843525 48.37928957 11.80539884 43.65909536 10.4453125 38.21875 C9.75359907 34.77231819 9.87255187 31.50482357 10 28 C11.64826111 30.96687001 12.44271087 33.65626525 13 37 C13.20589721 29.43592467 13.20589721 29.43592467 12 22 C11.34 22 10.68 22 10 22 C9.96261719 21.3709375 9.92523438 20.741875 9.88671875 20.09375 C9.43426185 14.20293863 8.69492193 9.29691551 6 4 C2.98201272 1.94569101 2.98201272 1.94569101 0 1 C0 0.67 0 0.34 0 0 Z " fill="#564437" transform="translate(62,11)"/>
<path d="M0 0 C8.91455804 1.14247946 16.07687657 8.53351652 21.66015625 15.140625 C23.01448065 17.02009559 24.02909287 18.90023913 25 21 C23.02 21.99 23.02 21.99 21 23 C21 22.34 21 21.68 21 21 C20.21625 20.690625 19.4325 20.38125 18.625 20.0625 C16 19 16 19 14 18 C14.33 19.32 14.66 20.64 15 22 C15.66 21.34 16.32 20.68 17 20 C17 21.32 17 22.64 17 24 C14.69 24.33 12.38 24.66 10 25 C10 25.66 10 26.32 10 27 C9.34 27 8.68 27 8 27 C3.40774487 14.51480638 3.40774487 14.51480638 4 8 C3.34 8 2.68 8 2 8 C2 6 2 6 3 5 C1.68 4.67 0.36 4.34 -1 4 C-0.67 2.68 -0.34 1.36 0 0 Z " fill="#1C201E" transform="translate(69,4)"/>
<path d="M0 0 C2.3125 0.0625 2.3125 0.0625 5 1 C7.86822653 6.42914308 9.14250796 11.1693953 9.0625 17.25 C9.05347656 18.14203125 9.04445313 19.0340625 9.03515625 19.953125 C9.02355469 20.62859375 9.01195313 21.3040625 9 22 C8.38125 21.79375 7.7625 21.5875 7.125 21.375 C6.42375 21.25125 5.7225 21.1275 5 21 C4.34 21.66 3.68 22.32 3 23 C3 22.34 3 21.68 3 21 C-2.57830016 20.87530901 -2.57830016 20.87530901 -8 22 C-7.67 20.68 -7.34 19.36 -7 18 C-6.01 18 -5.02 18 -4 18 C-4.34786708 16.02463255 -4.34786708 16.02463255 -5 14 C-5.66 13.67 -6.32 13.34 -7 13 C-6.67 11.68 -6.34 10.36 -6 9 C-6.66 9 -7.32 9 -8 9 C-8.33 9.99 -8.66 10.98 -9 12 C-9.99 12 -10.98 12 -12 12 C-12.33 11.01 -12.66 10.02 -13 9 C-12.01 8.01 -11.02 7.02 -10 6 C-10.66 6 -11.32 6 -12 6 C-12 6.66 -12 7.32 -12 8 C-12.66 7.67 -13.32 7.34 -14 7 C-11.8125 4.4375 -11.8125 4.4375 -9 2 C-6.1875 2.1875 -6.1875 2.1875 -4 3 C-3.67 4.98 -3.34 6.96 -3 9 C-1.68 8.67 -0.36 8.34 1 8 C0.649375 7.4225 0.29875 6.845 -0.0625 6.25 C-1.14917407 3.64198224 -0.93065133 2.60582371 0 0 Z " fill="#191F1E" transform="translate(91,28)"/>
<path d="M0 0 C0.66 0 1.32 0 2 0 C3.94210433 7.47941368 5.39363688 14.25847464 5 22 C4.01 22 3.02 22 2 22 C1.9729797 24.75006608 1.95315117 27.49986546 1.9375 30.25 C1.92912109 31.02730469 1.92074219 31.80460937 1.91210938 32.60546875 C1.90727539 33.73662109 1.90727539 33.73662109 1.90234375 34.890625 C1.89710693 35.58188477 1.89187012 36.27314453 1.88647461 36.98535156 C1.93686712 39.0366036 1.93686712 39.0366036 2.54101562 41.109375 C3.1715057 43.70645753 2.47488853 45.2683032 1.5625 47.75 C1.27503906 48.54921875 0.98757812 49.3484375 0.69140625 50.171875 C0.46324219 50.77515625 0.23507813 51.3784375 0 52 C-0.66 52 -1.32 52 -2 52 C-1.67 50.35 -1.34 48.7 -1 47 C-1.66 47 -2.32 47 -3 47 C-3.02891546 42.54168018 -3.04676981 38.08338431 -3.0625 33.625 C-3.07087891 32.35398438 -3.07925781 31.08296875 -3.08789062 29.7734375 C-3.09111328 28.56171875 -3.09433594 27.35 -3.09765625 26.1015625 C-3.10289307 24.98088379 -3.10812988 23.86020508 -3.11352539 22.70556641 C-3 20 -3 20 -2 18 C-2.08744368 16.12137125 -2.24175542 14.24544819 -2.4375 12.375 C-2.53933594 11.37210938 -2.64117187 10.36921875 -2.74609375 9.3359375 C-2.87177734 8.17964844 -2.87177734 8.17964844 -3 7 C-2.34 7 -1.68 7 -1 7 C-0.67 4.69 -0.34 2.38 0 0 Z " fill="#151111" transform="translate(67,30)"/>
<path d="M0 0 C1.32 0.33 2.64 0.66 4 1 C4 1.66 4 2.32 4 3 C2.02 3.33 0.04 3.66 -2 4 C-2 4.66 -2 5.32 -2 6 C-1.34 6 -0.68 6 0 6 C0 6.66 0 7.32 0 8 C0.66 8 1.32 8 2 8 C2.33 7.34 2.66 6.68 3 6 C3 8.97 3 11.94 3 15 C6.8509288 17.2981424 6.8509288 17.2981424 11 17 C10.34 15.35 9.68 13.7 9 12 C10.32 12 11.64 12 13 12 C14.01417346 15.69682584 14.31780476 17.38625006 12.5234375 20.8515625 C11.81445312 21.76679687 11.10546875 22.68203125 10.375 23.625 C9.33472656 25.00558594 9.33472656 25.00558594 8.2734375 26.4140625 C6.03176407 28.96386973 3.71439324 30.97134821 1 33 C1.165 31.824375 1.33 30.64875 1.5 29.4375 C1.97079643 25.59607405 2.23247895 21.8746492 2 18 C1.34 17.34 0.68 16.68 0 16 C-2.10820797 16.3185177 -2.10820797 16.3185177 -4 17 C-4 17.66 -4 18.32 -4 19 C-3.01 19.33 -2.02 19.66 -1 20 C-1.66 20.33 -2.32 20.66 -3 21 C-2.67 22.32 -2.34 23.64 -2 25 C-4.55893347 22.85379773 -5.87166015 21.38501956 -6.9375 18.1875 C-7.01669568 14.14852029 -5.69030228 11.64065106 -4 8 C-3.60235737 6.01178687 -3.24544834 4.01267638 -3 2 C-2.01 2 -1.02 2 0 2 C0 1.34 0 0.68 0 0 Z " fill="#363C39" transform="translate(81,56)"/>
<path d="M0 0 C4.55960977 -0.31313903 6.1328164 -0.20312173 9.76953125 2.83984375 C11.9675092 6.73948205 11.86875589 8.88991084 11.70703125 13.27734375 C9.41542806 13.30426859 7.12373579 13.32370499 4.83203125 13.33984375 C3.55585937 13.35144531 2.2796875 13.36304688 0.96484375 13.375 C-2.29296875 13.27734375 -2.29296875 13.27734375 -4.29296875 12.27734375 C-4.91796875 9.71484375 -4.91796875 9.71484375 -5.29296875 7.27734375 C-6.94296875 6.94734375 -8.59296875 6.61734375 -10.29296875 6.27734375 C-9.96296875 4.62734375 -9.63296875 2.97734375 -9.29296875 1.27734375 C-6.20069795 0.75099978 -3.11294818 0.37652354 0 0 Z " fill="#AC8B73" transform="translate(49.29296875,26.72265625)"/>
<path d="M0 0 C4.29 0 8.58 0 13 0 C16 5.625 16 5.625 16 9 C15.34 9 14.68 9 14 9 C14.33 9.99 14.66 10.98 15 12 C15.06802967 13.72795352 15.08495645 15.45835365 15.0625 17.1875 C15.05347656 18.08855469 15.04445313 18.98960938 15.03515625 19.91796875 C15.02355469 20.60503906 15.01195313 21.29210937 15 22 C14.34 20.68 13.68 19.36 13 18 C12.62875 18.495 12.2575 18.99 11.875 19.5 C9.20688376 21.63449299 7.33916823 21.27258516 4 21 C1.6875 20.6875 1.6875 20.6875 0 20 C-0.33 19.01 -0.66 18.02 -1 17 C-3.09719872 15.97718482 -3.09719872 15.97718482 -5.5625 15.3125 C-7.7590625 14.6628125 -7.7590625 14.6628125 -10 14 C-10.33 10.7 -10.66 7.4 -11 4 C-10.67 4.99 -10.34 5.98 -10 7 C-8.35 7.33 -6.7 7.66 -5 8 C-4.67 9.65 -4.34 11.3 -4 13 C1.28 13.33 6.56 13.66 12 14 C11.23419578 6.83937321 11.23419578 6.83937321 7 2 C3.35817665 1.10944264 3.35817665 1.10944264 0 1 C0 0.67 0 0.34 0 0 Z " fill="#826553" transform="translate(49,26)"/>
<path d="M0 0 C1.65 0 3.3 0 5 0 C5 0.66 5 1.32 5 2 C5.99 2.33 6.98 2.66 8 3 C8 7.29 8 11.58 8 16 C7.01 16 6.02 16 5 16 C4.34 17.32 3.68 18.64 3 20 C2.01 20 1.02 20 0 20 C0.33 19.34 0.66 18.68 1 18 C0.34 18 -0.32 18 -1 18 C-1 17.34 -1 16.68 -1 16 C-3.97 16 -6.94 16 -10 16 C-10.33 14.35 -10.66 12.7 -11 11 C-9.5459375 10.814375 -9.5459375 10.814375 -8.0625 10.625 C-7.051875 10.41875 -6.04125 10.2125 -5 10 C-4.67 9.34 -4.34 8.68 -4 8 C-3.34 8 -2.68 8 -2 8 C-2 7.34 -2 6.68 -2 6 C-2.99 5.67 -3.98 5.34 -5 5 C-5 3.68 -5 2.36 -5 1 C0.875 2.875 0.875 2.875 2 4 C2.33 3.34 2.66 2.68 3 2 C2.01 2 1.02 2 0 2 C0 1.34 0 0.68 0 0 Z " fill="#171D1D" transform="translate(25,14)"/>
<path d="M0 0 C2.31 0.66 4.62 1.32 7 2 C7 2.66 7 3.32 7 4 C6.34 4 5.68 4 5 4 C4.67 4.99 4.34 5.98 4 7 C2.35 7.33 0.7 7.66 -1 8 C-1 8.99 -1 9.98 -1 11 C0.670625 10.9690625 0.670625 10.9690625 2.375 10.9375 C6 11 6 11 8 12 C8 12.66 8 13.32 8 14 C8.66 14 9.32 14 10 14 C10.33 14.66 10.66 15.32 11 16 C11.99 15.67 12.98 15.34 14 15 C14.66 15.66 15.32 16.32 16 17 C14.68 17.33 13.36 17.66 12 18 C12 18.99 12 19.98 12 21 C9.69 21 7.38 21 5 21 C5.33 20.34 5.66 19.68 6 19 C5.34 18.67 4.68 18.34 4 18 C4 17.34 4 16.68 4 16 C1.91731407 15.91873913 -0.16628658 15.86069161 -2.25 15.8125 C-3.41015625 15.77769531 -4.5703125 15.74289063 -5.765625 15.70703125 C-9.22268407 16.02017066 -10.51565563 16.65709108 -13 19 C-13.66 18.67 -14.32 18.34 -15 18 C-13.68 14.7 -12.36 11.4 -11 8 C-8.69 8.66 -6.38 9.32 -4 10 C-4 7.36 -4 4.72 -4 2 C-3.34 1.67 -2.68 1.34 -2 1 C-1.34 1.33 -0.68 1.66 0 2 C0 1.34 0 0.68 0 0 Z " fill="#3D433A" transform="translate(16,18)"/>
<path d="M0 0 C0.61875 0.185625 1.2375 0.37125 1.875 0.5625 C4.04160178 1.23686176 4.04160178 1.23686176 6 0 C6 0.99 6 1.98 6 3 C5.01 3.33 4.02 3.66 3 4 C3.33 5.65 3.66 7.3 4 9 C4.99 9 5.98 9 7 9 C6.34 8.67 5.68 8.34 5 8 C5 6.68 5 5.36 5 4 C5.99 4 6.98 4 8 4 C8 5.32 8 6.64 8 8 C9.98 8 11.96 8 14 8 C10.46588679 10.12046792 7.05606165 10.53199289 3 11 C2.67 12.65 2.34 14.3 2 16 C0.35 15.67 -1.3 15.34 -3 15 C-3.33 16.32 -3.66 17.64 -4 19 C-3.34 19.33 -2.68 19.66 -2 20 C-3.65 20.33 -5.3 20.66 -7 21 C-8.32 18.03 -9.64 15.06 -11 12 C-10.360625 11.608125 -9.72125 11.21625 -9.0625 10.8125 C-6.53954477 8.59535752 -6.51021146 7.23133927 -6 4 C-5.34 3.67 -4.68 3.34 -4 3 C-3.67 2.34 -3.34 1.68 -3 1 C-2.01 1.33 -1.02 1.66 0 2 C0 1.34 0 0.68 0 0 Z " fill="#2F3733" transform="translate(12,52)"/>
<path d="M0 0 C0.33 0 0.66 0 1 0 C1.02505615 0.63502441 1.0501123 1.27004883 1.07592773 1.92431641 C1.19256789 4.82471542 1.31498393 7.72484349 1.4375 10.625 C1.47681641 11.62402344 1.51613281 12.62304688 1.55664062 13.65234375 C1.76572614 18.50956104 2.02958555 23.22132044 3 28 C7.98229776 29.91626837 12.72684667 30.5547115 18 31 C17.34 31.66 16.68 32.32 16 33 C16.33 33.66 16.66 34.32 17 35 C14.69 35 12.38 35 10 35 C10.33 35.66 10.66 36.32 11 37 C12.485 37.495 12.485 37.495 14 38 C14 38.99 14 39.98 14 41 C12.02 40.67 10.04 40.34 8 40 C7.67 39.01 7.34 38.02 7 37 C6.34 38.32 5.68 39.64 5 41 C4.02391783 38.07175348 3.91773332 36.04386724 4 33 C3.67 33.66 3.34 34.32 3 35 C2.34 35 1.68 35 1 35 C0.01 37.97 -0.98 40.94 -2 44 C-2.66 44 -3.32 44 -4 44 C-3.13551475 39.3922097 -1.89606499 34.93393315 -0.62109375 30.42578125 C0.08267918 28.09442172 0.08267918 28.09442172 0 26 C-0.66 26 -1.32 26 -2 26 C-2.33 24.35 -2.66 22.7 -3 21 C-3.99 21 -4.98 21 -6 21 C-6 21.66 -6 22.32 -6 23 C-6.66 23 -7.32 23 -8 23 C-8.33 21.68 -8.66 20.36 -9 19 C-6.69 19 -4.38 19 -2 19 C-2 19.66 -2 20.32 -2 21 C-1.34 21 -0.68 21 0 21 C-0.185625 19.948125 -0.37125 18.89625 -0.5625 17.8125 C-1.33545986 11.85426771 -0.58951605 5.94957738 0 0 Z " fill="#282C2B" transform="translate(36,27)"/>
<path d="M0 0 C2.70192398 2.22134462 3.89754386 3.36095153 4.4609375 6.875 C4.43257812 7.90625 4.40421875 8.9375 4.375 10 C4.36210938 11.03125 4.34921875 12.0625 4.3359375 13.125 C3.99839463 16.013739 3.66582774 17.63493592 2 20 C-0.1640625 21.484375 -0.1640625 21.484375 -2.625 22.75 C-3.44226563 23.17796875 -4.25953125 23.6059375 -5.1015625 24.046875 C-5.72804688 24.36140625 -6.35453125 24.6759375 -7 25 C-8.35439668 22.29120665 -8.06501451 19.99066732 -8 17 C-7.34 17.33 -6.68 17.66 -6 18 C-5.03338637 14.87819599 -5.01011091 12.47916205 -5.4375 9.25 C-5.53933594 8.45078125 -5.64117187 7.6515625 -5.74609375 6.828125 C-5.82988281 6.22484375 -5.91367188 5.6215625 -6 5 C-4.68 6.32 -3.36 7.64 -2 9 C-1.67 8.01 -1.34 7.02 -1 6 C-1.66 5.67 -2.32 5.34 -3 5 C-3 4.34 -3 3.68 -3 3 C-2.01 2.67 -1.02 2.34 0 2 C0 1.34 0 0.68 0 0 Z " fill="#202122" transform="translate(80,70)"/>
<path d="M0 0 C1.22589844 0.01353516 1.22589844 0.01353516 2.4765625 0.02734375 C3.41628906 0.04474609 3.41628906 0.04474609 4.375 0.0625 C0.625 3.0625 0.625 3.0625 -1.625 3.0625 C-1.955 5.3725 -2.285 7.6825 -2.625 10.0625 C-1.305 9.7325 0.015 9.4025 1.375 9.0625 C1.375 9.7225 1.375 10.3825 1.375 11.0625 C2.365 11.3925 3.355 11.7225 4.375 12.0625 C3.30378906 12.26746094 2.23257813 12.47242188 1.12890625 12.68359375 C-0.26826851 12.95552709 -1.66540181 13.22767352 -3.0625 13.5 C-3.76955078 13.63470703 -4.47660156 13.76941406 -5.20507812 13.90820312 C-8.70929264 14.34656898 -8.70929264 14.34656898 -11.625 16.0625 C-11.53536938 17.75391656 -11.37922324 19.44209602 -11.1875 21.125 C-11.08566406 22.04410156 -10.98382813 22.96320312 -10.87890625 23.91015625 C-10.79511719 24.62042969 -10.71132813 25.33070312 -10.625 26.0625 C-7.655 27.0525 -4.685 28.0425 -1.625 29.0625 C-1.625 30.3825 -1.625 31.7025 -1.625 33.0625 C-2.285 33.0625 -2.945 33.0625 -3.625 33.0625 C-3.625 32.4025 -3.625 31.7425 -3.625 31.0625 C-5.605 31.7225 -7.585 32.3825 -9.625 33.0625 C-11.8727975 31.01016315 -12.6272242 30.05582739 -13.625 27.0625 C-13.69470052 24.66759014 -13.70948003 22.27082309 -13.6875 19.875 C-13.67847656 18.60269531 -13.66945312 17.33039062 -13.66015625 16.01953125 C-13.64855469 15.04371094 -13.63695312 14.06789063 -13.625 13.0625 C-9.17 12.5675 -9.17 12.5675 -4.625 12.0625 C-4.295 9.4225 -3.965 6.7825 -3.625 4.0625 C-5.605 4.0625 -7.585 4.0625 -9.625 4.0625 C-6.41036203 0.70174212 -4.65285589 -0.06646937 0 0 Z " fill="#544B44" transform="translate(50.625,13.9375)"/>
<path d="M0 0 C2 3 2 3 2 6 C4.97 6.495 4.97 6.495 8 7 C8 6.01 8 5.02 8 4 C6.68 3.67 5.36 3.34 4 3 C4 2.34 4 1.68 4 1 C4.99 1 5.98 1 7 1 C7 1.66 7 2.32 7 3 C12.01535052 2.67039784 12.01535052 2.67039784 16 0 C16.36103536 1.81114432 16.71365504 3.62396823 17.0625 5.4375 C17.35833984 6.95150391 17.35833984 6.95150391 17.66015625 8.49609375 C17.77230469 9.32238281 17.88445313 10.14867188 18 11 C16.29207001 12.70792999 14.14456519 12.25270346 11.8125 12.3125 C8.01641814 12.25812904 5.89356079 11.95670269 2.3125 10.5 C-0.21550721 7.76701924 -0.34378866 7.27063932 -0.375 3.75 C-0.25125 2.5125 -0.1275 1.275 0 0 Z " fill="#62493A" transform="translate(42,61)"/>
<path d="M0 0 C1.28317892 3.84953676 1.06643637 6.94738135 1 11 C1.66 11 2.32 11 3 11 C3.05447047 12.41623216 3.09300508 13.83308191 3.125 15.25 C3.14820313 16.03890625 3.17140625 16.8278125 3.1953125 17.640625 C2.9828378 20.20731941 2.28654105 21.7916067 1 24 C0.67 22.02 0.34 20.04 0 18 C-0.33 21.3 -0.66 24.6 -1 28 C-3.05077622 23.89844755 -3.53033423 21.07472911 -4.0625 16.5625 C-4.57083503 12.33197624 -5.09317721 8.16496487 -6 4 C-7.65 4.33 -9.3 4.66 -11 5 C-9 2 -9 2 -6.8359375 1.26953125 C-6.02382813 1.11871094 -5.21171875 0.96789062 -4.375 0.8125 C-3.55773437 0.65394531 -2.74046875 0.49539062 -1.8984375 0.33203125 C-1.27195312 0.22246094 -0.64546875 0.11289063 0 0 Z " fill="#2D373A" transform="translate(28,67)"/>
<path d="M0 0 C0.99 0 1.98 0 3 0 C3 0.66 3 1.32 3 2 C3.639375 2.28875 4.27875 2.5775 4.9375 2.875 C7 4 7 4 8 6 C8.99 5.67 9.98 5.34 11 5 C11 7.31 11 9.62 11 12 C11.61875 11.814375 12.2375 11.62875 12.875 11.4375 C15 11 15 11 17 12 C17 12.66 17 13.32 17 14 C16.01 14.495 16.01 14.495 15 15 C15 15.66 15 16.32 15 17 C13.68 17 12.36 17 11 17 C11 16.34 11 15.68 11 15 C7.83333333 16.83333333 7.83333333 16.83333333 6 20 C5.34 18.02 4.68 16.04 4 14 C3.34 14 2.68 14 2 14 C2 13.34 2 12.68 2 12 C1.34 12 0.68 12 0 12 C0 11.34 0 10.68 0 10 C1.98 9.67 3.96 9.34 6 9 C6 8.34 6 7.68 6 7 C3.69 6.67 1.38 6.34 -1 6 C-0.67 4.02 -0.34 2.04 0 0 Z " fill="#161C1B" transform="translate(79,50)"/>
<path d="M0 0 C1.65 1.65 3.3 3.3 5 5 C5 4.67 5 4.34 5 4 C6.65 4 8.3 4 10 4 C10 4.66 10 5.32 10 6 C10.66 6 11.32 6 12 6 C11.67 8.31 11.34 10.62 11 13 C12.65 13 14.3 13 16 13 C15.01 13.495 15.01 13.495 14 14 C14 14.66 14 15.32 14 16 C10.37361362 16.94976786 8.35207765 17.11510231 4.75 15.9375 C1.28182762 13.49401491 0.78066553 12.13752732 0 8 C-0.13581964 5.30786072 -0.09309103 2.69963983 0 0 Z " fill="#715F55" transform="translate(37,41)"/>
<path d="M0 0 C2.31 0 4.62 0 7 0 C6.34 2.97 5.68 5.94 5 9 C7.475 9.495 7.475 9.495 10 10 C10 10.66 10 11.32 10 12 C8.68 12 7.36 12 6 12 C6 11.34 6 10.68 6 10 C4.68 10.33 3.36 10.66 2 11 C2.66 11 3.32 11 4 11 C4 11.66 4 12.32 4 13 C3.08476563 13.13277344 2.16953125 13.26554688 1.2265625 13.40234375 C0.03804687 13.57894531 -1.15046875 13.75554688 -2.375 13.9375 C-3.55835938 14.11152344 -4.74171875 14.28554687 -5.9609375 14.46484375 C-8.90702381 14.83462786 -8.90702381 14.83462786 -11 16 C-11.99 15.67 -12.98 15.34 -14 15 C-13.375 13.125 -13.375 13.125 -12 11 C-8.875 9.75 -8.875 9.75 -6 9 C-6 9.66 -6 10.32 -6 11 C-4.68 10.67 -3.36 10.34 -2 10 C-1.34 6.7 -0.68 3.4 0 0 Z " fill="#090B0E" transform="translate(50,0)"/>
<path d="M0 0 C1.60332791 -0.08121924 3.20784026 -0.13929134 4.8125 -0.1875 C6.15248047 -0.23970703 6.15248047 -0.23970703 7.51953125 -0.29296875 C10 0 10 0 11.78125 1.37109375 C14.72584917 5.30666379 14.09210652 10.30256752 14 15 C13.67 15 13.34 15 13 15 C12.34 12.03 11.68 9.06 11 6 C10.34 6 9.68 6 9 6 C9.33 6.721875 9.66 7.44375 10 8.1875 C11.00603529 11.01697427 11.16977402 13.02895466 11 16 C8.24616077 14.62308038 7.48516899 12.63279958 6 10 C3.69 10.33 1.38 10.66 -1 11 C-1 10.01 -1 9.02 -1 8 C-0.01 7.67 0.98 7.34 2 7 C1.484375 6.401875 0.96875 5.80375 0.4375 5.1875 C-0.036875 4.465625 -0.51125 3.74375 -1 3 C-0.67 2.01 -0.34 1.02 0 0 Z " fill="#212121" transform="translate(57,13)"/>
<path d="M0 0 C4.33333333 0 8.66666667 0 13 0 C13.33 1.65 13.66 3.3 14 5 C14.66 3.68 15.32 2.36 16 1 C16.66 1 17.32 1 18 1 C19.35439668 3.70879335 19.06501451 6.00933268 19 9 C18.34 9 17.68 9 17 9 C17 8.34 17 7.68 17 7 C14.05908413 7.18415432 14.05908413 7.18415432 11 8 C9.56362302 9.95163118 9.56362302 9.95163118 9 12 C8.67 11.34 8.34 10.68 8 10 C5.97536745 9.34786708 5.97536745 9.34786708 4 9 C3.87625 8.360625 3.7525 7.72125 3.625 7.0625 C3.315625 6.0415625 3.315625 6.0415625 3 5 C2.34 4.67 1.68 4.34 1 4 C0.67 3.67 0.34 3.34 0 3 C0 2.01 0 1.02 0 0 Z " fill="#0C1012" transform="translate(17,39)"/>
<path d="M0 0 C2.3125 0.0625 2.3125 0.0625 5 1 C7.86822653 6.42914308 9.14250796 11.1693953 9.0625 17.25 C9.05347656 18.14203125 9.04445313 19.0340625 9.03515625 19.953125 C9.02355469 20.62859375 9.01195313 21.3040625 9 22 C8.071875 21.690625 8.071875 21.690625 7.125 21.375 C6.42375 21.25125 5.7225 21.1275 5 21 C4.34 21.66 3.68 22.32 3 23 C3 22.34 3 21.68 3 21 C2.01 20.67 1.02 20.34 0 20 C-0.125 17.625 -0.125 17.625 0 15 C0.66 14.34 1.32 13.68 2 13 C2.6425235 10.93125966 2.6425235 10.93125966 3 9 C3.66 9 4.32 9 5 9 C3.8321734 5.18586998 3.8321734 5.18586998 0.875 2.6875 C-0.053125 2.3471875 -0.053125 2.3471875 -1 2 C-0.67 1.34 -0.34 0.68 0 0 Z " fill="#111617" transform="translate(91,28)"/>
<path d="M0 0 C0.94101563 0.48082031 1.88203125 0.96164063 2.8515625 1.45703125 C5.3295454 2.67142734 7.3236407 3.48531552 10 4 C9.6875 7.375 9.6875 7.375 9 11 C8.01 11.66 7.02 12.32 6 13 C5.27617533 15.05925139 5.27617533 15.05925139 5 17 C3.68 17.33 2.36 17.66 1 18 C-0.2062252 14.38132441 -0.10816918 11.07493749 -0.0625 7.3125 C-0.05798828 6.61060547 -0.05347656 5.90871094 -0.04882812 5.18554688 C-0.03706927 3.45699462 -0.01913454 1.72848635 0 0 Z " fill="#090D11" transform="translate(0,45)"/>
<path d="M0 0 C0.89203125 0.00902344 1.7840625 0.01804688 2.703125 0.02734375 C3.37859375 0.03894531 4.0540625 0.05054688 4.75 0.0625 C4.42 2.3725 4.09 4.6825 3.75 7.0625 C3.09 7.0625 2.43 7.0625 1.75 7.0625 C1.42 7.7225 1.09 8.3825 0.75 9.0625 C0.42 8.0725 0.09 7.0825 -0.25 6.0625 C-1.9 6.3925 -3.55 6.7225 -5.25 7.0625 C-5.58 5.7425 -5.91 4.4225 -6.25 3.0625 C-7.24 3.5575 -7.24 3.5575 -8.25 4.0625 C-8.25 4.7225 -8.25 5.3825 -8.25 6.0625 C-9.57 6.0625 -10.89 6.0625 -12.25 6.0625 C-12.25 7.0525 -12.25 8.0425 -12.25 9.0625 C-13.57 9.3925 -14.89 9.7225 -16.25 10.0625 C-16.25 9.4025 -16.25 8.7425 -16.25 8.0625 C-15.59 8.0625 -14.93 8.0625 -14.25 8.0625 C-14.25 7.0725 -14.25 6.0825 -14.25 5.0625 C-14.91 4.7325 -15.57 4.4025 -16.25 4.0625 C-10.61078923 1.5682337 -6.24456575 -0.08216534 0 0 Z " fill="#2E3330" transform="translate(45.25,-0.0625)"/>
<path d="M0 0 C0.66 0 1.32 0 2 0 C3.0260734 1.31337396 4.02727325 2.64664105 5 4 C5.33 4 5.66 4 6 4 C6 7.3 6 10.6 6 14 C6.66 14 7.32 14 8 14 C10.1103435 18.27884606 10.24128739 22.13864142 10.125 26.8125 C10.11597656 27.50537109 10.10695313 28.19824219 10.09765625 28.91210938 C10.07426157 30.60822395 10.03839641 32.30415871 10 34 C9.67 34 9.34 34 9 34 C8.34 30.7 7.68 27.4 7 24 C6.34 24 5.68 24 5 24 C4.35374544 20.93758873 3.70807147 17.87505533 3.0625 14.8125 C2.88009766 13.94818359 2.69769531 13.08386719 2.50976562 12.19335938 C1.65404145 8.13255919 0.80092216 4.07205686 0 0 Z " fill="#413127" transform="translate(66,19)"/>
<path d="M0 0 C2.9719385 1.12451727 5.33440687 2.22293791 8 4 C9.32 4 10.64 4 12 4 C12.33 4.99 12.66 5.98 13 7 C11.35 7 9.7 7 8 7 C8.33 9.31 8.66 11.62 9 14 C7.68 14.33 6.36 14.66 5 15 C4.67 13.02 4.34 11.04 4 9 C1.58354218 8.83312552 1.58354218 8.83312552 -1 9 C-1.66 9.66 -2.32 10.32 -3 11 C-5.125 10.625 -5.125 10.625 -7 10 C-6.67 9.34 -6.34 8.68 -6 8 C-5.34 8.33 -4.68 8.66 -4 9 C-4 8.34 -4 7.68 -4 7 C-0.535 6.505 -0.535 6.505 3 6 C2.01 5.34 1.02 4.68 0 4 C0 2.68 0 1.36 0 0 Z " fill="#3E443B" transform="translate(83,22)"/>
<path d="M0 0 C1.32 0.33 2.64 0.66 4 1 C4 3.64 4 6.28 4 9 C4.99 9.33 5.98 9.66 7 10 C6.67 12.64 6.34 15.28 6 18 C3.36 17.34 0.72 16.68 -2 16 C-1.34 10.72 -0.68 5.44 0 0 Z " fill="#313A3D" transform="translate(32,81)"/>
<path d="M0 0 C0.99 0 1.98 0 3 0 C3 1.65 3 3.3 3 5 C0.36 5.33 -2.28 5.66 -5 6 C-5 10.29 -5 14.58 -5 19 C-5.99 19.33 -6.98 19.66 -8 20 C-9.20882096 22.00016466 -9.20882096 22.00016466 -10 24 C-10.33 24 -10.66 24 -11 24 C-11.33 22.35 -11.66 20.7 -12 19 C-13.32 19.33 -14.64 19.66 -16 20 C-16 19.34 -16 18.68 -16 18 C-15.34 17.67 -14.68 17.34 -14 17 C-13.67 16.01 -13.34 15.02 -13 14 C-11.35 13.67 -9.7 13.34 -8 13 C-7.34 10.03 -6.68 7.06 -6 4 C-4.35 3.67 -2.7 3.34 -1 3 C-0.67 2.01 -0.34 1.02 0 0 Z " fill="#1A2022" transform="translate(41,21)"/>
<path d="M0 0 C1.32 0.33 2.64 0.66 4 1 C4 1.66 4 2.32 4 3 C2.02 3.33 0.04 3.66 -2 4 C-2 4.66 -2 5.32 -2 6 C-1.34 6 -0.68 6 0 6 C0 6.66 0 7.32 0 8 C0.66 8 1.32 8 2 8 C2.33 7.34 2.66 6.68 3 6 C3 7.98 3 9.96 3 12 C2.01 12 1.02 12 0 12 C0 11.34 0 10.68 0 10 C-1.32 10.33 -2.64 10.66 -4 11 C-3.72382467 12.94074861 -3.72382467 12.94074861 -3 15 C-2.01 15.66 -1.02 16.32 0 17 C-1.32 17 -2.64 17 -4 17 C-4 17.66 -4 18.32 -4 19 C-3.01 19.33 -2.02 19.66 -1 20 C-1.66 20.33 -2.32 20.66 -3 21 C-2.67 22.32 -2.34 23.64 -2 25 C-4.55893347 22.85379773 -5.87166015 21.38501956 -6.9375 18.1875 C-7.01669568 14.14852029 -5.69030228 11.64065106 -4 8 C-3.60235737 6.01178687 -3.24544834 4.01267638 -3 2 C-2.01 2 -1.02 2 0 2 C0 1.34 0 0.68 0 0 Z " fill="#282E29" transform="translate(81,56)"/>
<path d="M0 0 C0.33 0 0.66 0 1 0 C2.73955334 6.43013467 3.24991456 12.34949576 3 19 C2.67 19 2.34 19 2 19 C1.67 21.31 1.34 23.62 1 26 C0.67 26 0.34 26 0 26 C-0.33 23.36 -0.66 20.72 -1 18 C-1.66 18.33 -2.32 18.66 -3 19 C-3 14.38 -3 9.76 -3 5 C-2.01 5 -1.02 5 0 5 C0 3.35 0 1.7 0 0 Z " fill="#332620" transform="translate(72,47)"/>
<path d="M0 0 C1.8133922 3.20010388 2.52213974 6.13283843 3.125 9.75 C3.29257813 10.73484375 3.46015625 11.7196875 3.6328125 12.734375 C3.81457031 13.85585938 3.81457031 13.85585938 4 15 C4.66 15 5.32 15 6 15 C6 15.66 6 16.32 6 17 C6.99 17 7.98 17 9 17 C9 17.66 9 18.32 9 19 C8.01 19 7.02 19 6 19 C6.061875 19.845625 6.12375 20.69125 6.1875 21.5625 C5.96564836 25.62978004 4.66111043 28.29444597 3 32 C2.23098138 34.65194907 1.61441767 37.30601483 1 40 C0.67 40 0.34 40 0 40 C0.33 35.38 0.66 30.76 1 26 C1.33 26 1.66 26 2 26 C2.17843525 20.37928957 1.80539884 15.65909536 0.4453125 10.21875 C-0.24640093 6.77231819 -0.12744813 3.50482357 0 0 Z " fill="#5C493B" transform="translate(72,39)"/>
<path d="M0 0 C2.31 0.66 4.62 1.32 7 2 C7 2.66 7 3.32 7 4 C6.34 4 5.68 4 5 4 C4.67 4.99 4.34 5.98 4 7 C2.35 7.33 0.7 7.66 -1 8 C-1 9.98 -1 11.96 -1 14 C-3.97 13.505 -3.97 13.505 -7 13 C-7 12.01 -7 11.02 -7 10 C-8.32 10 -9.64 10 -11 10 C-10.67 9.34 -10.34 8.68 -10 8 C-8.02 8.66 -6.04 9.32 -4 10 C-4 7.36 -4 4.72 -4 2 C-3.34 1.67 -2.68 1.34 -2 1 C-1.34 1.33 -0.68 1.66 0 2 C0 1.34 0 0.68 0 0 Z " fill="#373F3A" transform="translate(16,18)"/>
<path d="M0 0 C0.804375 0.309375 1.60875 0.61875 2.4375 0.9375 C6.62249087 2.18565517 10.66306101 2.6337696 15 3 C14.34 3.66 13.68 4.32 13 5 C13.33 5.66 13.66 6.32 14 7 C11.69 7 9.38 7 7 7 C7.33 7.66 7.66 8.32 8 9 C8.99 9.33 9.98 9.66 11 10 C11 10.99 11 11.98 11 13 C8.03 12.505 8.03 12.505 5 12 C4.67 11.01 4.34 10.02 4 9 C3.34 10.32 2.68 11.64 2 13 C0.84044559 9.52133678 1 6.64998323 1 3 C0.67 2.01 0.34 1.02 0 0 Z " fill="#352E29" transform="translate(39,55)"/>
<path d="M0 0 C1.91595968 -0.08133791 3.83291932 -0.13934367 5.75 -0.1875 C7.35101563 -0.23970703 7.35101563 -0.23970703 8.984375 -0.29296875 C12.34452674 0.03347086 13.52902752 0.79059443 16 3 C16.66 3.33 17.32 3.66 18 4 C18 4.99 18 5.98 18 7 C16.01432292 6.96744792 14.02864583 6.93489583 12.04296875 6.90234375 C9.79694539 6.91736783 9.79694539 6.91736783 7 8 C6.67 6.35 6.34 4.7 6 3 C4.35 3.33 2.7 3.66 1 4 C0.67 2.68 0.34 1.36 0 0 Z " fill="#2A312D" transform="translate(6,33)"/>
<path d="M0 0 C0.8353125 0.433125 0.8353125 0.433125 1.6875 0.875 C4.08494645 2.0413253 6.51596939 3.0339881 9 4 C8.67 4.99 8.34 5.98 8 7 C6.35 6.67 4.7 6.34 3 6 C3.515625 6.598125 4.03125 7.19625 4.5625 7.8125 C5.036875 8.534375 5.51125 9.25625 6 10 C5.67 10.99 5.34 11.98 5 13 C3.02 13 1.04 13 -1 13 C-0.34 12.67 0.32 12.34 1 12 C1 11.34 1 10.68 1 10 C0.01 9.67 -0.98 9.34 -2 9 C-1.125 1.125 -1.125 1.125 0 0 Z " fill="#B29076" transform="translate(50,45)"/>
<path d="M0 0 C1.0725 0.2475 2.145 0.495 3.25 0.75 C3.34765625 6.90234375 3.34765625 6.90234375 3.25 8.75 C2.25 9.75 2.25 9.75 0.40234375 9.84765625 C-1.6484375 9.81510417 -3.69921875 9.78255208 -5.75 9.75 C-5.75 9.42 -5.75 9.09 -5.75 8.75 C-3.77 8.75 -1.79 8.75 0.25 8.75 C0.25 7.1 0.25 5.45 0.25 3.75 C-0.74 3.75 -1.73 3.75 -2.75 3.75 C-3.08 5.07 -3.41 6.39 -3.75 7.75 C-5.73 7.75 -7.71 7.75 -9.75 7.75 C-7.59522636 2.72219483 -5.81017022 -0.38734468 0 0 Z " fill="#333434" transform="translate(43.75,17.25)"/>
<path d="M0 0 C2.15274948 -0.30840599 2.15274948 -0.30840599 4 -1 C5.32 1.31 6.64 3.62 8 6 C6.02 6.99 6.02 6.99 4 8 C4 7.34 4 6.68 4 6 C0.7 5.01 -2.6 4.02 -6 3 C-6 3.66 -6 4.32 -6 5 C-6.66 5 -7.32 5 -8 5 C-7.67 3.02 -7.34 1.04 -7 -1 C-3.51418144 -2.2020064 -3.32007656 -2.21338437 0 0 Z " fill="#2F352E" transform="translate(86,19)"/>
<path d="M0 0 C0.33 0 0.66 0 1 0 C1.33 1.65 1.66 3.3 2 5 C2.99 5.33 3.98 5.66 5 6 C5 8.31 5 10.62 5 13 C2.36 12.67 -0.28 12.34 -3 12 C-3 11.34 -3 10.68 -3 10 C-4.65 9.67 -6.3 9.34 -8 9 C-8 8.01 -8 7.02 -8 6 C-7.34 6 -6.68 6 -6 6 C-6 6.66 -6 7.32 -6 8 C-4.68 8 -3.36 8 -2 8 C-1.10869587 5.3260876 -0.52268466 2.76276177 0 0 Z " fill="#2F352F" transform="translate(95,44)"/>
<path d="M0 0 C1.65 0 3.3 0 5 0 C5.33 0.99 5.66 1.98 6 3 C8.01508358 3.73323796 8.01508358 3.73323796 10 4 C7.69 4.33 5.38 4.66 3 5 C3.99 5.66 4.98 6.32 6 7 C6.99 6.67 7.98 6.34 9 6 C9 7.32 9 8.64 9 10 C7.375 10.75 7.375 10.75 5 11 C1.75 9.0625 1.75 9.0625 -1 7 C-0.67 4.69 -0.34 2.38 0 0 Z " fill="#353B36" transform="translate(1,38)"/>
<path d="M0 0 C2.25406935 4.65020189 2.6367997 9.24241979 3.125 14.3125 C3.21136719 15.14845703 3.29773437 15.98441406 3.38671875 16.84570312 C3.59765542 18.8964763 3.79971646 20.94815903 4 23 C3.01 22.67 2.02 22.34 1 22 C0.9071875 20.205625 0.9071875 20.205625 0.8125 18.375 C0.25087713 13.59269617 -1.68994551 11.39492769 -5 8 C-3.02 8.99 -3.02 8.99 -1 10 C-1.69941596 6.85262818 -2.76078698 3.97411124 -4 1 C-2 0 -2 0 0 0 Z " fill="#121A1E" transform="translate(22,71)"/>
<path d="M0 0 C2.475 0.99 2.475 0.99 5 2 C5 2.66 5 3.32 5 4 C4.01 4 3.02 4 2 4 C2 4.66 2 5.32 2 6 C1.01 6.33 0.02 6.66 -1 7 C-1.33 9.31 -1.66 11.62 -2 14 C-4.97 13.505 -4.97 13.505 -8 13 C-7.39665691 9.29496359 -5.77525763 7.14031852 -3.4375 4.25 C-2.79683594 3.45078125 -2.15617188 2.6515625 -1.49609375 1.828125 C-1.00238281 1.22484375 -0.50867188 0.6215625 0 0 Z " fill="#1B2221" transform="translate(14,14)"/>
<path d="M0 0 C2.31 0 4.62 0 7 0 C6.34 2.97 5.68 5.94 5 9 C6.65 9.33 8.3 9.66 10 10 C10 10.66 10 11.32 10 12 C8.68 12 7.36 12 6 12 C6 11.34 6 10.68 6 10 C4.35 9.67 2.7 9.34 1 9 C1 8.34 1 7.68 1 7 C0.34 7 -0.32 7 -1 7 C-0.67 4.69 -0.34 2.38 0 0 Z " fill="#1D2120" transform="translate(50,0)"/>
<path d="M0 0 C1.65 0 3.3 0 5 0 C5 0.66 5 1.32 5 2 C6.32 2 7.64 2 9 2 C9 1.34 9 0.68 9 0 C10.65 0 12.3 0 14 0 C14 1.32 14 2.64 14 4 C13.01 4 12.02 4 11 4 C10.34 5.32 9.68 6.64 9 8 C8.01 8 7.02 8 6 8 C6.33 7.34 6.66 6.68 7 6 C6.34 6 5.68 6 5 6 C5 5.34 5 4.68 5 4 C3.35 3.67 1.7 3.34 0 3 C0 2.01 0 1.02 0 0 Z " fill="#0A0D0F" transform="translate(19,26)"/>
<path d="M0 0 C1.76462683 3.08809695 2 4.23312136 2 8 C0.39667209 8.08121924 -1.20784026 8.13929134 -2.8125 8.1875 C-3.70582031 8.22230469 -4.59914063 8.25710937 -5.51953125 8.29296875 C-8.41647515 7.95081002 -9.22555028 7.24606427 -11 5 C-8.69 4.34 -6.38 3.68 -4 3 C-4 2.34 -4 1.68 -4 1 C-2.68 0.67 -1.36 0.34 0 0 Z " fill="#775743" transform="translate(56,65)"/>
<path d="M0 0 C0.75 1.5625 0.75 1.5625 1 4 C-0.13084437 6.50286409 -1.52139516 8.67007722 -3 11 C-3.66 11 -4.32 11 -5 11 C-5.33 11.99 -5.66 12.98 -6 14 C-8.94389782 15.17755913 -9.89953913 15.03348696 -13 14 C-13.6875 11.9375 -13.6875 11.9375 -14 10 C-12.73160474 9.49384702 -11.46016898 8.99530901 -10.1875 8.5 C-9.47980469 8.2215625 -8.77210937 7.943125 -8.04296875 7.65625 C-6 7 -6 7 -3 7 C-2.01 4.69 -1.02 2.38 0 0 Z " fill="#9E7B63" transform="translate(62,50)"/>
<path d="M0 0 C0.66 0 1.32 0 2 0 C1.34 1.98 0.68 3.96 0 6 C0.99 6 1.98 6 3 6 C3.33 4.68 3.66 3.36 4 2 C4.99 2.33 5.98 2.66 7 3 C6.01 3.495 6.01 3.495 5 4 C5 4.99 5 5.98 5 7 C5.99 7.33 6.98 7.66 8 8 C8 9.32 8 10.64 8 12 C6.35 12.66 4.7 13.32 3 14 C2.9175 13.2575 2.835 12.515 2.75 11.75 C1.85157947 8.4557914 0.41475201 7.33929101 -2 5 C-2.75 2.75 -2.75 2.75 -3 1 C-2.01 1.33 -1.02 1.66 0 2 C0 1.34 0 0.68 0 0 Z " fill="#343931" transform="translate(79,34)"/>
<path d="M0 0 C0 0.66 0 1.32 0 2 C1.65 1.67 3.3 1.34 5 1 C5.33 3.31 5.66 5.62 6 8 C4.35 8.33 2.7 8.66 1 9 C0.67 9.99 0.34 10.98 0 12 C0 11.34 0 10.68 0 10 C-1.32 9.34 -2.64 8.68 -4 8 C-2 7 -2 7 2 7 C-0.39509338 4.10067643 -2.31245243 3.49831724 -6 3 C-3.375 0 -3.375 0 0 0 Z " fill="#161D1D" transform="translate(7,35)"/>
<path d="M0 0 C3.11223413 -0.21219778 5.35039185 -0.31552396 8.1875 1.0625 C11.19549676 4.27794482 13.03941847 7.74526325 12.9609375 12.234375 C12.72095796 14.16792444 12.36919217 16.08691329 12 18 C11.34 17.67 10.68 17.34 10 17 C9.1807487 13.98407488 8.58937363 10.94686813 7.9765625 7.8828125 C6.85764108 4.57975648 5.94189723 3.75191633 3 2 C2.01 1.34 1.02 0.68 0 0 Z " fill="#6D5241" transform="translate(62,11)"/>
<path d="M0 0 C2.63361256 0.37623037 4.07220172 1.05214568 6.25 2.625 C8.61110785 5.82936066 8.29868478 8.11709783 8 12 C7.01 12 6.02 12 5 12 C4.67 10.02 4.34 8.04 4 6 C3.01 6 2.02 6 1 6 C1 5.34 1 4.68 1 4 C-0.65 4.33 -2.3 4.66 -4 5 C-2.68 3.35 -1.36 1.7 0 0 Z " fill="#090D12" transform="translate(32,72)"/>
<path d="M0 0 C1.65 0 3.3 0 5 0 C5 0.66 5 1.32 5 2 C5.99 2.33 6.98 2.66 8 3 C7.67 4.65 7.34 6.3 7 8 C6.34 8 5.68 8 5 8 C4.67 8.66 4.34 9.32 4 10 C2.35 9.67 0.7 9.34 -1 9 C-0.43628586 5.73045798 0.49962266 4.17424117 3 2 C2.01 2 1.02 2 0 2 C0 1.34 0 0.68 0 0 Z " fill="#090C0F" transform="translate(25,14)"/>
<path d="M0 0 C1.45703125 1.05078125 1.45703125 1.05078125 3 3 C3.51171875 6.35546875 3.51171875 6.35546875 3.6875 10.1875 C3.75324219 11.45980469 3.81898437 12.73210937 3.88671875 14.04296875 C3.94279297 15.50669922 3.94279297 15.50669922 4 17 C2.35 17.99 0.7 18.98 -1 20 C-2.35439668 17.29120665 -2.06501451 14.99066732 -2 12 C-1.01 12.495 -1.01 12.495 0 13 C0.96661363 9.87819599 0.98988909 7.47916205 0.5625 4.25 C0.46066406 3.45078125 0.35882813 2.6515625 0.25390625 1.828125 C0.17011719 1.22484375 0.08632812 0.6215625 0 0 Z " fill="#181616" transform="translate(74,75)"/>
<path d="M0 0 C0 0.66 0 1.32 0 2 C0.66 2.33 1.32 2.66 2 3 C1.38245741 4.31602523 0.75571258 5.62773556 0.125 6.9375 C-0.22304687 7.66839844 -0.57109375 8.39929688 -0.9296875 9.15234375 C-2 11 -2 11 -4 12 C-4.99 9.03 -5.98 6.06 -7 3 C-2.25 0 -2.25 0 0 0 Z " fill="#202A2B" transform="translate(8,60)"/>
<path d="M0 0 C1.125 3.75 1.125 3.75 0 6 C-0.06950541 7.54023996 -0.08452357 9.08334988 -0.0625 10.625 C-0.05347656 11.44226563 -0.04445313 12.25953125 -0.03515625 13.1015625 C-0.02355469 13.72804688 -0.01195313 14.35453125 0 15 C-1.32 15 -2.64 15 -4 15 C-5.57312496 11.32937509 -6.14440048 9.55697326 -5.125 5.625 C-4.75375 4.75875 -4.3825 3.8925 -4 3 C-3.67 3.66 -3.34 4.32 -3 5 C-2.34 5 -1.68 5 -1 5 C-0.67 3.35 -0.34 1.7 0 0 Z " fill="#474541" transform="translate(71,81)"/>
<path d="M0 0 C0.66 0 1.32 0 2 0 C2 0.66 2 1.32 2 2 C2.928125 1.7215625 2.928125 1.7215625 3.875 1.4375 C6 1 6 1 8 2 C8 2.66 8 3.32 8 4 C7.01 4.495 7.01 4.495 6 5 C6 5.66 6 6.32 6 7 C4.68 7 3.36 7 2 7 C2 6.34 2 5.68 2 5 C-1.16666667 6.83333333 -1.16666667 6.83333333 -3 10 C-4.125 5.25 -4.125 5.25 -3 3 C-1.68 3 -0.36 3 1 3 C0.67 2.01 0.34 1.02 0 0 Z " fill="#101516" transform="translate(88,60)"/>
<path d="M0 0 C-1.875 4.875 -1.875 4.875 -3 6 C-4.99958364 6.04080783 -7.00045254 6.04254356 -9 6 C-9.33 4.35 -9.66 2.7 -10 1 C-6.78548731 -0.60725635 -3.56387464 -0.05748185 0 0 Z " fill="#4C382E" transform="translate(62,41)"/>
<path d="M0 0 C0.33 0 0.66 0 1 0 C1.10251672 5.12583611 1.03590199 9.94997778 0 15 C-2 14 -2 14 -4 12 C-4.36933645 9.24627091 -4.18336678 6.79634339 -4 4 C-5.32 3.67 -6.64 3.34 -8 3 C-6.68 2.67 -5.36 2.34 -4 2 C-3.67 3.32 -3.34 4.64 -3 6 C-2.01 6 -1.02 6 0 6 C0 4.02 0 2.04 0 0 Z " fill="#1F282D" transform="translate(40,78)"/>
<path d="M0 0 C3.31832766 0.98652984 4.76548627 1.68731503 6.875 4.5 C7.24625 5.325 7.6175 6.15 8 7 C7.67 7.66 7.34 8.32 7 9 C6.01 8.34 5.02 7.68 4 7 C4.99 7.99 5.98 8.98 7 10 C6.67 10.66 6.34 11.32 6 12 C3.47290372 9.81321095 1.07391145 7.62767838 -1 5 C-0.9375 2.0625 -0.9375 2.0625 0 0 Z " fill="#313C3F" transform="translate(15,74)"/>
<path d="M0 0 C0 0.66 0 1.32 0 2 C1.32 2.33 2.64 2.66 4 3 C3.01 3.33 2.02 3.66 1 4 C1.33 5.32 1.66 6.64 2 8 C1.34 8 0.68 8 0 8 C-0.33 8.99 -0.66 9.98 -1 11 C-2.65 9.35 -4.3 7.7 -6 6 C-4.90218919 2.70656758 -3.7827394 0 0 0 Z " fill="#171C1C" transform="translate(90,65)"/>
<path d="M0 0 C4.455 0.99 4.455 0.99 9 2 C8.67 2.66 8.34 3.32 8 4 C6.35 4 4.7 4 3 4 C3 4.66 3 5.32 3 6 C2.34 6 1.68 6 1 6 C1 6.99 1 7.98 1 9 C0.01 9 -0.98 9 -2 9 C-1.34 6.03 -0.68 3.06 0 0 Z " fill="#30332D" transform="translate(57,0)"/>
<path d="M0 0 C1 3 1 3 1 7 C1.99 7.66 2.98 8.32 4 9 C2.68 9 1.36 9 0 9 C0 9.66 0 10.32 0 11 C0.99 11.33 1.98 11.66 3 12 C2.01 12.495 2.01 12.495 1 13 C1.33 14.32 1.66 15.64 2 17 C-0.55893347 14.85379773 -1.87166015 13.38501956 -2.9375 10.1875 C-3.01916901 6.02238062 -1.85289791 3.70579583 0 0 Z " fill="#3B2E25" transform="translate(77,64)"/>
<path d="M0 0 C2.1755306 2.1755306 2.71879553 3.55973892 3.6875 6.4375 C3.95949219 7.21996094 4.23148438 8.00242187 4.51171875 8.80859375 C5 11 5 11 4 14 C3.2575 13.175 2.515 12.35 1.75 11.5 C-0.87387385 8.55155147 -0.87387385 8.55155147 -5 9 C-4.67 7.68 -4.34 6.36 -4 5 C-4 5.66 -4 6.32 -4 7 C-3.34 7 -2.68 7 -2 7 C-1.34 4.69 -0.68 2.38 0 0 Z " fill="#181E22" transform="translate(36,64)"/>
<path d="M0 0 C0.33 0.66 0.66 1.32 1 2 C1.99 2 2.98 2 4 2 C4 2.66 4 3.32 4 4 C6.475 4.99 6.475 4.99 9 6 C9 6.66 9 7.32 9 8 C6 9 6 9 2.375 7.75 C-1 6 -1 6 -2 3 C-1.34 2.01 -0.68 1.02 0 0 Z " fill="#282F2B" transform="translate(23,50)"/>
<path d="M0 0 C2 3 2 3 1.8125 6.125 C0.56878791 12.05654996 -1.19407953 17.61894906 -4 23 C-3.88566637 20.74943278 -3.75813564 18.49953326 -3.625 16.25 C-3.55539063 14.99703125 -3.48578125 13.7440625 -3.4140625 12.453125 C-3.0399469 9.33314204 -2.54296651 7.65197369 -1 5 C-0.62331656 3.34259285 -0.27942455 1.67654729 0 0 Z " fill="#523F32" transform="translate(76,56)"/>
<path d="M0 0 C2.97 0.33 5.94 0.66 9 1 C9.33 2.65 9.66 4.3 10 6 C9.34 6 8.68 6 8 6 C8 5.34 8 4.68 8 4 C6.02 4.66 4.04 5.32 2 6 C0 2.25 0 2.25 0 0 Z " fill="#2E2723" transform="translate(39,41)"/>
<path d="M0 0 C2.375 0.3125 2.375 0.3125 5 1 C7 4 7 4 8 6 C7.34 6 6.68 6 6 6 C5.67 8.31 5.34 10.62 5 13 C4.01 13.33 3.02 13.66 2 14 C2 13.01 2 12.02 2 11 C2.66 11 3.32 11 4 11 C3.566875 10.06027344 3.566875 10.06027344 3.125 9.1015625 C2.75375 8.28429688 2.3825 7.46703125 2 6.625 C1.62875 5.81289063 1.2575 5.00078125 0.875 4.1640625 C0 2 0 2 0 0 Z " fill="#302824" transform="translate(61,24)"/>
<path d="M0 0 C1.23556641 0.01740234 1.23556641 0.01740234 2.49609375 0.03515625 C3.32238281 0.04417969 4.14867187 0.05320312 5 0.0625 C5.63808594 0.07410156 6.27617188 0.08570313 6.93359375 0.09765625 C7.5234375 1.95703125 7.5234375 1.95703125 7.93359375 4.09765625 C6.49609375 6.34765625 6.49609375 6.34765625 4.93359375 8.09765625 C4.60359375 7.43765625 4.27359375 6.77765625 3.93359375 6.09765625 C1.91689548 4.96415091 1.91689548 4.96415091 -0.06640625 4.09765625 C-0.06640625 3.43765625 -0.06640625 2.77765625 -0.06640625 2.09765625 C-1.05640625 1.76765625 -2.04640625 1.43765625 -3.06640625 1.09765625 C-2.06640625 0.09765625 -2.06640625 0.09765625 0 0 Z " fill="#141416" transform="translate(59.06640625,12.90234375)"/>
<path d="M0 0 C1.98 0 3.96 0 6 0 C5.67 2.31 5.34 4.62 5 7 C4.34 7 3.68 7 3 7 C2.67 7.66 2.34 8.32 2 9 C1.87625 8.360625 1.7525 7.72125 1.625 7.0625 C1.315625 6.0415625 1.315625 6.0415625 1 5 C0.34 4.67 -0.32 4.34 -1 4 C-0.67 2.68 -0.34 1.36 0 0 Z " fill="#5F5B4C" transform="translate(44,0)"/>
<path d="M0 0 C1.18771723 3.42943519 0.80226223 5.37784675 -0.4375 8.75 C-0.72496094 9.54921875 -1.01242188 10.3484375 -1.30859375 11.171875 C-1.53675781 11.77515625 -1.76492187 12.3784375 -2 13 C-2.66 13 -3.32 13 -4 13 C-3.67 11.35 -3.34 9.7 -3 8 C-3.66 8 -4.32 8 -5 8 C-4.75 5.125 -4.75 5.125 -4 2 C-1.9375 0.625 -1.9375 0.625 0 0 Z " fill="#191616" transform="translate(69,69)"/>
<path d="M0 0 C0.66 0 1.32 0 2 0 C2 0.66 2 1.32 2 2 C2.66 2 3.32 2 4 2 C3.69078116 3.45903258 3.37751201 4.91720722 3.0625 6.375 C2.88847656 7.18710938 2.71445313 7.99921875 2.53515625 8.8359375 C2 11 2 11 1 13 C0.34 13 -0.32 13 -1 13 C-1.33 10.36 -1.66 7.72 -2 5 C-1.01 5 -0.02 5 1 5 C0.67 3.35 0.34 1.7 0 0 Z " fill="#2A312D" transform="translate(95,59)"/>
<path d="M0 0 C0.66 0 1.32 0 2 0 C2.22281874 1.91503674 2.42771076 3.83216506 2.625 5.75 C2.74101563 6.81734375 2.85703125 7.8846875 2.9765625 8.984375 C3.00029475 12.03792399 2.61420985 13.46162421 1 16 C-1 14 -1 14 -1.23046875 11.50390625 C-1.21628906 10.53324219 -1.20210938 9.56257813 -1.1875 8.5625 C-1.18105469 7.59441406 -1.17460938 6.62632813 -1.16796875 5.62890625 C-1 3 -1 3 0 0 Z " fill="#110E0E" transform="translate(67,30)"/>
<path d="M0 0 C1.65 0 3.3 0 5 0 C5 0.66 5 1.32 5 2 C5.66 2 6.32 2 7 2 C6.67 4.31 6.34 6.62 6 9 C7.65 9 9.3 9 11 9 C10.34 9.66 9.68 10.32 9 11 C6.375 10.625 6.375 10.625 4 10 C4.33 7.69 4.66 5.38 5 3 C3.02 3 1.04 3 -1 3 C-0.67 2.01 -0.34 1.02 0 0 Z " fill="#664E42" transform="translate(42,45)"/>
<path d="M0 0 C0.33 0 0.66 0 1 0 C1 1.65 1 3.3 1 5 C0.34 5 -0.32 5 -1 5 C-1.66 6.65 -2.32 8.3 -3 10 C-5.89932357 7.60490662 -6.50168276 5.68754757 -7 2 C-4.69 2 -2.38 2 0 2 C0 1.34 0 0.68 0 0 Z " fill="#2A3031" transform="translate(68,81)"/>
<path d="M0 0 C0.33 0 0.66 0 1 0 C1.38063221 2.3260857 1.71269945 4.66055264 2 7 C1.67 7.33 1.34 7.66 1 8 C0.76472227 10.34987262 0.58613583 12.70556039 0.4375 15.0625 C0.35371094 16.35285156 0.26992187 17.64320312 0.18359375 18.97265625 C0.12300781 19.97167969 0.06242187 20.97070312 0 22 C-2 21 -2 21 -3.25 18.6875 C-4.18280521 15.34494799 -3.50519588 14.994603 -2 12 C-1.56526661 9.92830754 -1.19345777 7.84272249 -0.875 5.75 C-0.70742188 4.67234375 -0.53984375 3.5946875 -0.3671875 2.484375 C-0.24601562 1.66453125 -0.12484375 0.8446875 0 0 Z " fill="#2B2822" transform="translate(64,42)"/>
<path d="M0 0 C0.33 0.66 0.66 1.32 1 2 C0.41992188 1.98839844 -0.16015625 1.97679688 -0.7578125 1.96484375 C-5.2998246 1.91237826 -9.52713569 2.08248937 -14 3 C-13.34 3.33 -12.68 3.66 -12 4 C-12 4.99 -12 5.98 -12 7 C-13.65 6.67 -15.3 6.34 -17 6 C-16.67 4.35 -16.34 2.7 -16 1 C-10.61509359 0.08342019 -5.45769811 -0.11138159 0 0 Z " fill="#977E6D" transform="translate(56,27)"/>
<path d="M0 0 C0.33 0 0.66 0 1 0 C1.33 1.65 1.66 3.3 2 5 C2.66 5 3.32 5 4 5 C4.05447047 6.41623216 4.09300508 7.83308191 4.125 9.25 C4.14820313 10.03890625 4.17140625 10.8278125 4.1953125 11.640625 C3.9828378 14.20731941 3.28654105 15.7916067 2 18 C1.67 16.02 1.34 14.04 1 12 C0.67 12 0.34 12 0 12 C0 8.04 0 4.08 0 0 Z " fill="#252F31" transform="translate(27,73)"/>
<path d="M0 0 C2.625 0.9375 2.625 0.9375 5 2 C5 2.99 5 3.98 5 5 C5.99 5.33 6.98 5.66 8 6 C7.67 6.99 7.34 7.98 7 9 C6.67 8.01 6.34 7.02 6 6 C3.17884816 4.92990792 1.09455459 5 -2 5 C-2 3.68 -2 2.36 -2 1 C-1.34 0.67 -0.68 0.34 0 0 Z " fill="#4B4F4B" transform="translate(79,66)"/>
<path d="M0 0 C0.33 0 0.66 0 1 0 C2.42002108 6.7831364 3.22731216 13.06697907 3 20 C2.01 20 1.02 20 0 20 C0 13.4 0 6.8 0 0 Z " fill="#261C18" transform="translate(69,32)"/>
<path d="M0 0 C0.53625 0.37125 1.0725 0.7425 1.625 1.125 C1.11896008 3.29374252 0.62516187 5.12467627 -0.375 7.125 C-1.035 6.465 -1.695 5.805 -2.375 5.125 C-2.375 4.135 -2.375 3.145 -2.375 2.125 C-3.035 2.125 -3.695 2.125 -4.375 2.125 C-4.705 3.445 -5.035 4.765 -5.375 6.125 C-5.375 5.465 -5.375 4.805 -5.375 4.125 C-7.025 4.455 -8.675 4.785 -10.375 5.125 C-10.375 4.465 -10.375 3.805 -10.375 3.125 C-9.715 3.125 -9.055 3.125 -8.375 3.125 C-8.375 2.465 -8.375 1.805 -8.375 1.125 C-2.95961538 -1.09038462 -2.95961538 -1.09038462 0 0 Z " fill="#41453A" transform="translate(68.375,2.875)"/>
<path d="M0 0 C0.804375 0.309375 1.60875 0.61875 2.4375 0.9375 C6.62249087 2.18565517 10.66306101 2.6337696 15 3 C12.54027258 5.45972742 10.44751719 5.79749809 7.04296875 6.17578125 C5 6 5 6 2 3.625 C0 1 0 1 0 0 Z " fill="#574239" transform="translate(39,55)"/>
<path d="M0 0 C3.36295835 1.44126786 5.62927102 3.20592655 8 6 C8 6.99 8 7.98 8 9 C4.18315774 7.44499019 1.80804268 4.96404505 -1 2 C-0.67 1.34 -0.34 0.68 0 0 Z " fill="#2A3437" transform="translate(15,83)"/>
<path d="M0 0 C0.99 0 1.98 0 3 0 C3 0.66 3 1.32 3 2 C3.639375 2.268125 4.27875 2.53625 4.9375 2.8125 C7 4 7 4 8 7 C5.03 6.67 2.06 6.34 -1 6 C-0.67 4.02 -0.34 2.04 0 0 Z " fill="#111415" transform="translate(79,50)"/>
<path d="M0 0 C2.64 0.33 5.28 0.66 8 1 C7.67 2.32 7.34 3.64 7 5 C5.1875 5.6875 5.1875 5.6875 3 6 C1.25 4.75 1.25 4.75 0 3 C0 2.01 0 1.02 0 0 Z " fill="#9B7B66" transform="translate(39,47)"/>
<path d="M0 0 C2.4375 0.6875 2.4375 0.6875 5 2 C5.8125 4.625 5.8125 4.625 6 7 C5.34 7 4.68 7 4 7 C3.67 8.65 3.34 10.3 3 12 C2.67 12 2.34 12 2 12 C1.93941406 11.38511719 1.87882812 10.77023438 1.81640625 10.13671875 C1.73261719 9.32847656 1.64882812 8.52023438 1.5625 7.6875 C1.48128906 6.88699219 1.40007812 6.08648437 1.31640625 5.26171875 C1.04734307 2.83912821 1.04734307 2.83912821 0 0 Z " fill="#232A29" transform="translate(90,30)"/>
<path d="M0 0 C2.50682639 1.53644198 3.80462745 2.41388235 4.75 5.25 C5.04665662 8.5132228 5.06421172 11.72520212 5 15 C4.67 15 4.34 15 4 15 C3.34 12.03 2.68 9.06 2 6 C1.34 6 0.68 6 0 6 C-0.33 6.66 -0.66 7.32 -1 8 C-1.08226668 4.95613276 -0.97608217 2.92824652 0 0 Z " fill="#2F2622" transform="translate(66,13)"/>
<path d="M0 0 C4.75 0.875 4.75 0.875 7 2 C6.67 3.32 6.34 4.64 6 6 C3.03 5.505 3.03 5.505 0 5 C0 3.35 0 1.7 0 0 Z " fill="#B89B83" transform="translate(49,28)"/>
<path d="M0 0 C0.99 0 1.98 0 3 0 C2.40895235 4.84659077 1.02055843 8.60748167 -1 13 C-1.66 13 -2.32 13 -3 13 C-2.17812739 8.61667943 -1.09845718 4.32059823 0 0 Z " fill="#293537" transform="translate(35,58)"/>
<path d="M0 0 C1.875 0.3125 1.875 0.3125 4 1 C6 4 6 4 5.625 6.1875 C5.41875 6.785625 5.2125 7.38375 5 8 C3.68 8 2.36 8 1 8 C0.67 5.36 0.34 2.72 0 0 Z " fill="#111516" transform="translate(77,41)"/>
<path d="M0 0 C-0.33 2.31 -0.66 4.62 -1 7 C-1.99 7.33 -2.98 7.66 -4 8 C-4 6.68 -4 5.36 -4 4 C-4.99 4 -5.98 4 -7 4 C-7 3.34 -7 2.68 -7 2 C-2.25 0 -2.25 0 0 0 Z " fill="#0E1215" transform="translate(92,36)"/>
<path d="M0 0 C0.66 0 1.32 0 2 0 C4.15059309 3.53186832 4.3797728 6.66287993 4.625 10.75 C4.69976562 11.92046875 4.77453125 13.0909375 4.8515625 14.296875 C4.90054688 15.18890625 4.94953125 16.0809375 5 17 C3.42470031 14.04802536 2.33195245 11.14184078 1.375 7.9375 C1.11460938 7.08027344 0.85421875 6.22304688 0.5859375 5.33984375 C0 3 0 3 0 0 Z " fill="#5D4538" transform="translate(66,19)"/>
<path d="M0 0 C1.22589844 0.01353516 1.22589844 0.01353516 2.4765625 0.02734375 C3.41628906 0.04474609 3.41628906 0.04474609 4.375 0.0625 C1.29807254 2.7440279 -0.82234663 3.48337807 -4.875 3.75 C-5.76703125 3.81574219 -6.6590625 3.88148437 -7.578125 3.94921875 C-8.25359375 3.98660156 -8.9290625 4.02398438 -9.625 4.0625 C-6.41036203 0.70174212 -4.65285589 -0.06646937 0 0 Z " fill="#765E4E" transform="translate(50.625,13.9375)"/>
<path d="M0 0 C3.3 0 6.6 0 10 0 C10 0.99 10 1.98 10 3 C7.03 3 4.06 3 1 3 C0.67 2.01 0.34 1.02 0 0 Z " fill="#896853" transform="translate(47,70)"/>
<path d="M0 0 C0.99 0 1.98 0 3 0 C4.4606285 2.64738916 5 3.89448334 5 7 C3.68 7.33 2.36 7.66 1 8 C0.34 5.69 -0.32 3.38 -1 1 C-0.67 0.67 -0.34 0.34 0 0 Z " fill="#353B34" transform="translate(87,29)"/>
<path d="M0 0 C0.66 0 1.32 0 2 0 C2 0.66 2 1.32 2 2 C5.3 1.34 8.6 0.68 12 0 C12.66 1.32 13.32 2.64 14 4 C12.68 3.34 11.36 2.68 10 2 C10 2.66 10 3.32 10 4 C7.03 3.67 4.06 3.34 1 3 C0.67 2.01 0.34 1.02 0 0 Z " fill="#3D3631" transform="translate(51,22)"/>
<path d="M0 0 C0.99 0 1.98 0 3 0 C3.33 0.66 3.66 1.32 4 2 C4.99 1.67 5.98 1.34 7 1 C6.67 2.32 6.34 3.64 6 5 C3.36 4.67 0.72 4.34 -2 4 C-1.34 2.68 -0.68 1.36 0 0 Z " fill="#1C211F" transform="translate(42,6)"/>
<path d="M0 0 C0.99 0 1.98 0 3 0 C2.34 2.97 1.68 5.94 1 9 C2.65 9.33 4.3 9.66 6 10 C6 10.66 6 11.32 6 12 C4.68 12 3.36 12 2 12 C2 11.34 2 10.68 2 10 C1.34 10 0.68 10 0 10 C0.020625 9.05125 0.04125 8.1025 0.0625 7.125 C0.22551826 4.09333717 0.22551826 4.09333717 -1 2 C-0.67 1.34 -0.34 0.68 0 0 Z " fill="#121616" transform="translate(54,0)"/>
<path d="M0 0 C0.33 2.97 0.66 5.94 1 9 C-3.875 4.375 -3.875 4.375 -5 1 C-2 0 -2 0 0 0 Z " fill="#101417" transform="translate(12,75)"/>
<path d="M0 0 C4.29 0 8.58 0 13 0 C13 0.66 13 1.32 13 2 C12.01 2 11.02 2 10 2 C10.66 3.65 11.32 5.3 12 7 C10.9790625 5.7934375 10.9790625 5.7934375 9.9375 4.5625 C6.51522698 1.57711289 4.4571874 1.26218749 0 1 C0 0.67 0 0.34 0 0 Z " fill="#806552" transform="translate(49,26)"/>
<path d="M0 0 C3.15869424 -0.21536552 5.40913094 -0.27148038 8.3125 1.0625 C10.72748814 3.83526416 10.72920939 6.41202448 11 10 C10.4225 9.236875 9.845 8.47375 9.25 7.6875 C6.47684414 4.37511939 3.57295742 2.38197161 0 0 Z " fill="#7C634E" transform="translate(62,11)"/>
<path d="M0 0 C0.33 0 0.66 0 1 0 C1 3.3 1 6.6 1 10 C0.67 10 0.34 10 0 10 C-0.33 12.31 -0.66 14.62 -1 17 C-1.33 17 -1.66 17 -2 17 C-2.05418326 14.91695462 -2.09287551 12.83350232 -2.125 10.75 C-2.14820312 9.58984375 -2.17140625 8.4296875 -2.1953125 7.234375 C-2.0103949 4.17213954 -1.60823023 2.55797249 0 0 Z " fill="#40342A" transform="translate(74,56)"/>
<path d="M0 0 C0.66 0 1.32 0 2 0 C2.33 1.32 2.66 2.64 3 4 C3.66 4 4.32 4 5 4 C5 4.66 5 5.32 5 6 C1.7 5.67 -1.6 5.34 -5 5 C-3.68 4.34 -2.36 3.68 -1 3 C-0.67 2.01 -0.34 1.02 0 0 Z " fill="#101415" transform="translate(49,7)"/>
<path d="M0 0 C0.33 0 0.66 0 1 0 C1.33 4.29 1.66 8.58 2 13 C1.01 12.67 0.02 12.34 -1 12 C-1.02698189 10.37509046 -1.04638757 8.75005367 -1.0625 7.125 C-1.07410156 6.22007813 -1.08570312 5.31515625 -1.09765625 4.3828125 C-1 2 -1 2 0 0 Z " fill="#13181C" transform="translate(28,83)"/>
<path d="M0 0 C2.61273988 1.30636994 2.97236124 2.28409758 4 5 C4.125 8.25 4.125 8.25 4 11 C3.01 10.67 2.02 10.34 1 10 C0.67 6.7 0.34 3.4 0 0 Z " fill="#0F0F10" transform="translate(60,59)"/>
<path d="M0 0 C-0.62759865 2.92879371 -1.58622659 5.36095629 -3 8 C-3.99 7.67 -4.98 7.34 -6 7 C-5.01 6.01 -4.02 5.02 -3 4 C-4.65 3.67 -6.3 3.34 -8 3 C-8 2.67 -8 2.34 -8 2 C-2.25 0 -2.25 0 0 0 Z " fill="#A78369" transform="translate(62,45)"/>
<path d="M0 0 C1.98 0.495 1.98 0.495 4 1 C2.92598892 3.91517292 2.22189824 5.77810176 0 8 C-1.125 2.25 -1.125 2.25 0 0 Z " fill="#101418" transform="translate(60,77)"/>
<path d="M0 0 C2 3 2 3 2 6 C3.32 6 4.64 6 6 6 C6 6.66 6 7.32 6 8 C4.02 8.99 4.02 8.99 2 10 C0 8 0 8 -0.1953125 6.0546875 C-0.13020833 4.03645833 -0.06510417 2.01822917 0 0 Z " fill="#4B4139" transform="translate(42,61)"/>
<path d="M0 0 C0.99 0.33 1.98 0.66 3 1 C2.67 1.66 2.34 2.32 2 3 C0.68 3 -0.64 3 -2 3 C-2.33 3.99 -2.66 4.98 -3 6 C-3 5.34 -3 4.68 -3 4 C-4.98 4.33 -6.96 4.66 -9 5 C-8.67 3.68 -8.34 2.36 -8 1 C-7.071875 1.2784375 -7.071875 1.2784375 -6.125 1.5625 C-3.95839822 2.23686176 -3.95839822 2.23686176 -2 1 C-1.34 1.33 -0.68 1.66 0 2 C0 1.34 0 0.68 0 0 Z " fill="#181E1E" transform="translate(30,48)"/>
<path d="M0 0 C0.99 0.495 0.99 0.495 2 1 C2 1.99 2 2.98 2 4 C2.99 4.33 3.98 4.66 5 5 C3.515 7.475 3.515 7.475 2 10 C0 8 0 8 -0.1953125 6.0546875 C-0.13020833 4.03645833 -0.06510417 2.01822917 0 0 Z " fill="#121717" transform="translate(24,41)"/>
<path d="M0 0 C1.65 0 3.3 0 5 0 C5.33 0.99 5.66 1.98 6 3 C8.01508358 3.73323796 8.01508358 3.73323796 10 4 C8.02 4.33 6.04 4.66 4 5 C4 4.34 4 3.68 4 3 C2.68 2.67 1.36 2.34 0 2 C0 1.34 0 0.68 0 0 Z " fill="#252F2E" transform="translate(1,38)"/>
<path d="M0 0 C0.75 1.5625 0.75 1.5625 1 4 C-0.13084437 6.50286409 -1.52139516 8.67007722 -3 11 C-5.475 10.01 -5.475 10.01 -8 9 C-7.34 8.34 -6.68 7.68 -6 7 C-5.01 7 -4.02 7 -3 7 C-2.01 4.69 -1.02 2.38 0 0 Z " fill="#83604B" transform="translate(62,50)"/>
<path d="M0 0 C0.66 0.33 1.32 0.66 2 1 C1.67 3.31 1.34 5.62 1 8 C-0.32 8.33 -1.64 8.66 -3 9 C-3.33 8.01 -3.66 7.02 -4 6 C-3.67 5.34 -3.34 4.68 -3 4 C-2.01 4 -1.02 4 0 4 C-0.33 3.01 -0.66 2.02 -1 1 C-0.67 0.67 -0.34 0.34 0 0 Z " fill="#171C1C" transform="translate(8,48)"/>
<path d="M0 0 C1.32 0 2.64 0 4 0 C4.66 1.32 5.32 2.64 6 4 C4.02 4.99 4.02 4.99 2 6 C2 5.34 2 4.68 2 4 C1.01 3.67 0.02 3.34 -1 3 C-0.67 2.01 -0.34 1.02 0 0 Z " fill="#1E2522" transform="translate(88,21)"/>
<path d="M0 0 C-0.66 4.29 -1.32 8.58 -2 13 C-2.33 13 -2.66 13 -3 13 C-3 11.02 -3 9.04 -3 7 C-3.66 6.67 -4.32 6.34 -5 6 C-5 3 -5 3 -3.625 1.3125 C-2 0 -2 0 0 0 Z " fill="#161F22" transform="translate(16,71)"/>
<path d="M0 0 C-1.32 1.65 -2.64 3.3 -4 5 C-4.66 4.67 -5.32 4.34 -6 4 C-5.67 3.34 -5.34 2.68 -5 2 C-5.66 2 -6.32 2 -7 2 C-7 1.34 -7 0.68 -7 0 C-3.86650268 -1.04449911 -3.01031744 -0.93423645 0 0 Z " fill="#131818" transform="translate(31,30)"/>
<path d="M0 0 C2.64 0.66 5.28 1.32 8 2 C8 2.66 8 3.32 8 4 C8.66 4 9.32 4 10 4 C10 4.66 10 5.32 10 6 C7.03 5.505 7.03 5.505 4 5 C4 4.01 4 3.02 4 2 C2.68 2 1.36 2 0 2 C0 1.34 0 0.68 0 0 Z " fill="#57584B" transform="translate(5,26)"/>
<path d="M0 0 C2.32590854 3.63423209 2.16265833 6.77088331 2 11 C-0.31309135 8.49415104 -0.97826344 7.27714111 -1.25 3.8125 C-1 1 -1 1 0 0 Z " fill="#3D2D24" transform="translate(59,60)"/>
<path d="M0 0 C0.99 0.33 1.98 0.66 3 1 C2.67 2.32 2.34 3.64 2 5 C0.68 5.33 -0.64 5.66 -2 6 C-2.33 4.68 -2.66 3.36 -3 2 C-2.01 2 -1.02 2 0 2 C0 1.34 0 0.68 0 0 Z " fill="#12191B" transform="translate(3,57)"/>
<path d="M0 0 C0.33 0.99 0.66 1.98 1 3 C2.65 3.33 4.3 3.66 6 4 C5.34 4.66 4.68 5.32 4 6 C1.5 5.875 1.5 5.875 -1 5 C-2.3125 2.9375 -2.3125 2.9375 -3 1 C-2.01 0.67 -1.02 0.34 0 0 Z " fill="#876957" transform="translate(45,52)"/>
<path d="M0 0 C1.5 1.3125 1.5 1.3125 3 3 C3 3.99 3 4.98 3 6 C1.35 5.67 -0.3 5.34 -2 5 C-2 4.34 -2 3.68 -2 3 C-2.66 2.67 -3.32 2.34 -4 2 C-2.68 1.34 -1.36 0.68 0 0 Z " fill="#4D4138" transform="translate(55,14)"/>
<path d="M0 0 C1.65 0 3.3 0 5 0 C5 0.66 5 1.32 5 2 C5.99 2.33 6.98 2.66 8 3 C7.01 3.495 7.01 3.495 6 4 C6 4.66 6 5.32 6 6 C5.34 6 4.68 6 4 6 C3.67 5.01 3.34 4.02 3 3 C2.01 2.67 1.02 2.34 0 2 C0 1.34 0 0.68 0 0 Z " fill="#141A1B" transform="translate(25,14)"/>
<path d="M0 0 C0.33 0.66 0.66 1.32 1 2 C3.02463255 2.65213292 3.02463255 2.65213292 5 3 C1.91190305 4.76462683 0.76687864 5 -3 5 C-2.625 3.0625 -2.625 3.0625 -2 1 C-1.34 0.67 -0.68 0.34 0 0 Z " fill="#181F1F" transform="translate(11,66)"/>
<path d="M0 0 C0.66 0 1.32 0 2 0 C2 0.66 2 1.32 2 2 C4.97 2.495 4.97 2.495 8 3 C7.67 3.99 7.34 4.98 7 6 C6.34 6 5.68 6 5 6 C5 5.34 5 4.68 5 4 C3.35 3.67 1.7 3.34 0 3 C0 2.01 0 1.02 0 0 Z " fill="#41463D" transform="translate(87,50)"/>
<path d="M0 0 C0.99 0 1.98 0 3 0 C3 2.64 3 5.28 3 8 C2.34 8 1.68 8 1 8 C0.67 5.36 0.34 2.72 0 0 Z " fill="#080A0D" transform="translate(97,42)"/>
<path d="M0 0 C3.3 0 6.6 0 10 0 C9.01 0.495 9.01 0.495 8 1 C8 1.99 8 2.98 8 4 C7.01 4.33 6.02 4.66 5 5 C4.67 4.01 4.34 3.02 4 2 C2.68 1.34 1.36 0.68 0 0 Z " fill="#866652" transform="translate(44,41)"/>
<path d="M0 0 C0.33 1.32 0.66 2.64 1 4 C-1.31 4.33 -3.62 4.66 -6 5 C-6 5.66 -6 6.32 -6 7 C-6.66 7 -7.32 7 -8 7 C-7.3125 5.0625 -7.3125 5.0625 -6 3 C-3.4375 2.375 -3.4375 2.375 -1 2 C-0.67 1.34 -0.34 0.68 0 0 Z " fill="#262D27" transform="translate(85,24)"/>
<path d="M0 0 C2.78388975 1.70625501 3.85384206 2.47626739 4.75 5.6875 C4.8325 6.450625 4.915 7.21375 5 8 C1.535 6.02 1.535 6.02 -2 4 C-1.34 3.67 -0.68 3.34 0 3 C0 2.01 0 1.02 0 0 Z " fill="#2A3437" transform="translate(18,75)"/>
<path d="M0 0 C2.2477975 2.05233685 3.0022242 3.00667261 4 6 C3.01 6.99 2.02 7.98 1 9 C1 7.68 1 6.36 1 5 C0.34 5 -0.32 5 -1 5 C-0.67 3.35 -0.34 1.7 0 0 Z " fill="#1A2222" transform="translate(37,53)"/>
<path d="M0 0 C2.97 0.495 2.97 0.495 6 1 C6.33 2.32 6.66 3.64 7 5 C3.62537285 4.45276317 1.91765 3.9451 -1 2 C-0.67 1.34 -0.34 0.68 0 0 Z " fill="#212825" transform="translate(81,30)"/>
<path d="M0 0 C0.99 0.33 1.98 0.66 3 1 C1.86695008 4.39914975 0.87481525 5.05254451 -2 7 C-2.66 6.67 -3.32 6.34 -4 6 C-3.67 5.01 -3.34 4.02 -3 3 C-2.01 3 -1.02 3 0 3 C0 2.01 0 1.02 0 0 Z " fill="#474C44" transform="translate(5,30)"/>
<path d="M0 0 C1.4540625 0.0309375 1.4540625 0.0309375 2.9375 0.0625 C3.2675 0.7225 3.5975 1.3825 3.9375 2.0625 C2.9475 2.5575 2.9475 2.5575 1.9375 3.0625 C2.2675 3.7225 2.5975 4.3825 2.9375 5.0625 C1.6175 4.7325 0.2975 4.4025 -1.0625 4.0625 C-1.0625 3.4025 -1.0625 2.7425 -1.0625 2.0625 C-2.0525 1.7325 -3.0425 1.4025 -4.0625 1.0625 C-3.0625 0.0625 -3.0625 0.0625 0 0 Z " fill="#0D0E11" transform="translate(60.0625,12.9375)"/>
<path d="M0 0 C1.09658936 3.28976808 0.79953138 4.71303767 0 8 C-0.99 7.67 -1.98 7.34 -3 7 C-3 5.02 -3 3.04 -3 1 C-2.01 0.67 -1.02 0.34 0 0 Z " fill="#271E1A" transform="translate(71,64)"/>
<path d="M0 0 C1.65 0 3.3 0 5 0 C4.67 1.32 4.34 2.64 4 4 C3.34 3.67 2.68 3.34 2 3 C2 3.66 2 4.32 2 5 C1.34 5 0.68 5 0 5 C0 3.35 0 1.7 0 0 Z " fill="#182122" transform="translate(30,58)"/>
<path d="M0 0 C0.66 0 1.32 0 2 0 C3.09658936 3.28976808 2.79953138 4.71303767 2 8 C1.34 8 0.68 8 0 8 C-0.98120464 4.94736336 -0.98120464 3.05263664 0 0 Z " fill="#28302B" transform="translate(90,54)"/>
<path d="M0 0 C1.32 0.66 2.64 1.32 4 2 C3.67 2.66 3.34 3.32 3 4 C0.4375 4.625 0.4375 4.625 -2 5 C-2.66 4.01 -3.32 3.02 -4 2 C-3.34 1.67 -2.68 1.34 -2 1 C-1.34 1.33 -0.68 1.66 0 2 C0 1.34 0 0.68 0 0 Z " fill="#42473E" transform="translate(16,18)"/>
<path d="M0 0 C-0.33 1.98 -0.66 3.96 -1 6 C-1.99 5.67 -2.98 5.34 -4 5 C-4 3.68 -4 2.36 -4 1 C-2 0 -2 0 0 0 Z " fill="#484842" transform="translate(81,66)"/>
<path d="M0 0 C1.98 0.495 1.98 0.495 4 1 C3.01 2.98 2.02 4.96 1 7 C0.34 6.34 -0.32 5.68 -1 5 C-0.625 2.375 -0.625 2.375 0 0 Z " fill="#0A0E11" transform="translate(85,63)"/>
<path d="M0 0 C1.2065625 0.0309375 1.2065625 0.0309375 2.4375 0.0625 C2.1075 1.3825 1.7775 2.7025 1.4375 4.0625 C0.7775 3.7325 0.1175 3.4025 -0.5625 3.0625 C-1.2225 3.7225 -1.8825 4.3825 -2.5625 5.0625 C-3.125 3.125 -3.125 3.125 -3.5625 1.0625 C-2.5625 0.0625 -2.5625 0.0625 0 0 Z " fill="#141C1C" transform="translate(6.5625,62.9375)"/>
<path d="M0 0 C0.33 0.66 0.66 1.32 1 2 C0.34 2.66 -0.32 3.32 -1 4 C-1 3.34 -1 2.68 -1 2 C-1.99 2.33 -2.98 2.66 -4 3 C-6.6875 2.5625 -6.6875 2.5625 -9 2 C-5.86501708 0.14223235 -3.62528568 -0.20140476 0 0 Z " fill="#976C56" transform="translate(57,59)"/>
<path d="M0 0 C0 1.32 0 2.64 0 4 C-0.66 4 -1.32 4 -2 4 C-2 4.66 -2 5.32 -2 6 C-2.99 5.67 -3.98 5.34 -5 5 C-5 4.01 -5 3.02 -5 2 C-2 0 -2 0 0 0 Z " fill="#0A0D0F" transform="translate(33,49)"/>
<path d="M0 0 C2.4375 0.375 2.4375 0.375 5 1 C5.33 1.66 5.66 2.32 6 3 C3.69 3.33 1.38 3.66 -1 4 C-0.67 2.68 -0.34 1.36 0 0 Z " fill="#0F1415" transform="translate(84,46)"/>
<path d="M0 0 C1.5625 1.8125 1.5625 1.8125 3 4 C2.67 4.99 2.34 5.98 2 7 C1.01 6.67 0.02 6.34 -1 6 C-1.042721 4.33388095 -1.04063832 2.66617115 -1 1 C-0.67 0.67 -0.34 0.34 0 0 Z " fill="#07090D" transform="translate(22,42)"/>
<path d="M0 0 C1.65 0 3.3 0 5 0 C4.67 0.99 4.34 1.98 4 3 C3.34 3 2.68 3 2 3 C1.67 3.66 1.34 4.32 1 5 C0.34 5 -0.32 5 -1 5 C-0.67 3.35 -0.34 1.7 0 0 Z " fill="#1F2521" transform="translate(4,28)"/>
<path d="M0 0 C0.99 0 1.98 0 3 0 C2.67 1.32 2.34 2.64 2 4 C-0.64 4 -3.28 4 -6 4 C-6 3.67 -6 3.34 -6 3 C-4.02 3 -2.04 3 0 3 C0 2.01 0 1.02 0 0 Z " fill="#383635" transform="translate(44,23)"/>
<path d="M0 0 C1.65 1.65 3.3 3.3 5 5 C4.34 5 3.68 5 3 5 C2.67 5.66 2.34 6.32 2 7 C0.5393715 4.35261084 0 3.10551666 0 0 Z " fill="#1F2622" transform="translate(84,13)"/>
<path d="M0 0 C1.125 3.75 1.125 3.75 0 6 C-0.66 6 -1.32 6 -2 6 C-2 5.34 -2 4.68 -2 4 C-2.99 3.67 -3.98 3.34 -5 3 C-3.35 2.01 -1.7 1.02 0 0 Z " fill="#1A1F1F" transform="translate(26,5)"/>
</svg>
