<?xml version="1.0" encoding="UTF-8"?>
<svg version="1.1" xmlns="http://www.w3.org/2000/svg" width="64" height="64">
<path d="M0 0 C0.62132812 0.391875 1.24265625 0.78375 1.8828125 1.1875 C2.50414062 1.538125 3.12546875 1.88875 3.765625 2.25 C10.62521869 6.52611035 14.82446272 13.4804369 16.8828125 21.1875 C17.67157971 30.03820185 17.84285639 38.4855685 12.8828125 46.1875 C12.44710937 46.89390625 12.01140625 47.6003125 11.5625 48.328125 C6.88279537 55.23260724 0.88224694 58.98741429 -7.1171875 61.1875 C-16.00460317 61.97953912 -24.34920028 62.08681144 -32.1171875 57.1875 C-33.04917969 56.6615625 -33.04917969 56.6615625 -34 56.125 C-40.85959369 51.84888965 -45.05883772 44.8945631 -47.1171875 37.1875 C-47.90595471 28.33679815 -48.07723139 19.8894315 -43.1171875 12.1875 C-42.68148437 11.48109375 -42.24578125 10.7746875 -41.796875 10.046875 C-33.00861499 -2.91941027 -13.91727671 -7.62010588 0 0 Z " fill="#F7941C" transform="translate(47.1171875,2.8125)"/>
<path d="M0 0 C0.99 0.33 1.98 0.66 3 1 C2.67 2.98 2.34 4.96 2 7 C2.99 7 3.98 7 5 7 C5.33 5.35 5.66 3.7 6 2 C6.99 2 7.98 2 9 2 C8.67 4.31 8.34 6.62 8 9 C8.8971875 9.1546875 8.8971875 9.1546875 9.8125 9.3125 C12.46039822 10.14469658 13.50490966 10.63933104 15 13 C14.66666667 19.33333333 14.66666667 19.33333333 12 22 C12.66 22.66 13.32 23.32 14 24 C14.42037462 27.78337161 14.51868776 30.12048598 12.5625 33.4375 C8.78993176 35.73784649 5.30933841 35.33148757 1 35 C0.505 37.475 0.505 37.475 0 40 C-0.99 40 -1.98 40 -3 40 C-3 38.35 -3 36.7 -3 35 C-3.66 35 -4.32 35 -5 35 C-5.33 36.32 -5.66 37.64 -6 39 C-7.32 38.67 -8.64 38.34 -10 38 C-9.505 35.03 -9.505 35.03 -9 32 C-10.98 31.67 -12.96 31.34 -15 31 C-14.67 29.68 -14.34 28.36 -14 27 C-12.68 26.67 -11.36 26.34 -10 26 C-8.68 20.39 -7.36 14.78 -6 9 C-7.32 8.67 -8.64 8.34 -10 8 C-9.67 6.68 -9.34 5.36 -9 4 C-6.36 4.66 -3.72 5.32 -1 6 C-1.020625 5.195625 -1.04125 4.39125 -1.0625 3.5625 C-1 1 -1 1 0 0 Z " fill="#FEFAF4" transform="translate(31,11)"/>
<path d="M0 0 C6.75 0.75 6.75 0.75 9 3 C8.625 5.625 8.625 5.625 8 8 C5.03 8 2.06 8 -1 8 C-0.67 5.36 -0.34 2.72 0 0 Z " fill="#F79622" transform="translate(29,33)"/>
<path d="M0 0 C1.98 0.66 3.96 1.32 6 2 C6.38218767 3.65614657 6.71395102 5.32457024 7 7 C6 8 6 8 3.0625 8.1875 C0 8 0 8 -2 6 C-1.34 4.02 -0.68 2.04 0 0 Z " fill="#F79B2B" transform="translate(32,22)"/>
</svg>
