<?xml version="1.0" encoding="UTF-8"?>
<svg version="1.1" xmlns="http://www.w3.org/2000/svg" width="96" height="96">
<path d="M0 0 C15.84 0 31.68 0 48 0 C48 16 48 16 46 20 C42.43272561 22.70732086 38.19936386 22.32322823 33.91015625 22.3359375 C32.73784706 22.3459227 32.73784706 22.3459227 31.54185486 22.35610962 C29.89194079 22.36621632 28.24198601 22.37092725 26.59204102 22.37060547 C24.07434491 22.37497942 21.55840186 22.41131891 19.04101562 22.44921875 C17.4349018 22.45508731 15.82877969 22.45905644 14.22265625 22.4609375 C13.47355484 22.47530853 12.72445343 22.48967957 11.95265198 22.50448608 C8.25379151 22.47231453 6.18685591 22.12053126 3.04858398 20.09619141 C-2.96515182 13.94270129 0 11.73082434 0 0 Z M9 11 C9 11.99 9 12.98 9 14 C12.63 14 16.26 14 20 14 C20 13.01 20 12.02 20 11 C16.37 11 12.74 11 9 11 Z M25 11 C24.67 11.99 24.34 12.98 24 14 C25.98 14 27.96 14 30 14 C30 13.01 30 12.02 30 11 C28.35 11 26.7 11 25 11 Z " fill="#14151A" transform="translate(24,45)"/>
<path d="M0 0 C9.53952789 7.51663693 15.10483607 18.77519224 17 30.62890625 C17.95574374 45.51645291 14.82667637 58.00409637 5.625 69.94140625 C-4.50998951 80.31770504 -16.46685956 85.56472284 -30.875 85.94140625 C-44.16696976 85.69869574 -56.32811443 80.92735365 -66 71.62890625 C-71.39602748 64.98499363 -76.14889727 58.09109016 -78 49.62890625 C-78.18046875 48.85804687 -78.3609375 48.0871875 -78.546875 47.29296875 C-80.95426363 33.1391839 -77.73639856 20.51871694 -70 8.62890625 C-63.38046 -0.07747178 -53.79454314 -7.00978744 -43 -9.37109375 C-41.84371094 -9.64179688 -41.84371094 -9.64179688 -40.6640625 -9.91796875 C-25.51665307 -12.49436097 -12.4543553 -8.53804435 0 0 Z M-58 1.62890625 C-58.63679688 2.06976563 -59.27359375 2.510625 -59.9296875 2.96484375 C-67.79180817 9.00994098 -72.5793805 18.15944275 -75 27.62890625 C-75.226875 28.43328125 -75.45375 29.23765625 -75.6875 30.06640625 C-77.25394828 42.91128217 -74.47474249 54.06116687 -67 64.62890625 C-66.33871094 65.58410156 -66.33871094 65.58410156 -65.6640625 66.55859375 C-59.24955044 74.90116723 -49.18485005 79.91078993 -39.125 82.31640625 C-25.96677866 83.63222838 -14.89987289 81.33857244 -4 73.62890625 C-3.36320312 73.18804687 -2.72640625 72.7471875 -2.0703125 72.29296875 C6.27226098 65.87845669 11.28188368 55.8137563 13.6875 45.75390625 C15.00332213 32.59568491 12.70966619 21.52877914 5 10.62890625 C4.33871094 9.67371094 4.33871094 9.67371094 3.6640625 8.69921875 C-2.75044956 0.35664527 -12.81514995 -4.65297743 -22.875 -7.05859375 C-36.03322134 -8.37441588 -47.10012711 -6.08075994 -58 1.62890625 Z " fill="#E8E8E8" transform="translate(79,10.37109375)"/>
<path d="M0 0 C0.78674103 -0.0033284 1.57348206 -0.0066568 2.38406372 -0.01008606 C4.0501446 -0.0151528 5.71623564 -0.01749446 7.38232422 -0.01733398 C9.92823086 -0.01951661 12.47370153 -0.03766397 15.01953125 -0.05664062 C16.63801935 -0.05957539 18.25650951 -0.06155963 19.875 -0.0625 C20.6355368 -0.06968552 21.39607361 -0.07687103 22.17965698 -0.08427429 C25.94589522 -0.06804532 28.91936811 -0.02747411 32.0703125 2.16796875 C34.84111287 5.90854925 34.0703125 8.01241561 34.0703125 13.16796875 C18.2303125 13.16796875 2.3903125 13.16796875 -13.9296875 13.16796875 C-13.9296875 6.16796875 -13.9296875 6.16796875 -12.0546875 3.29296875 C-8.32711051 -0.43460824 -5.00915274 0.00729062 0 0 Z " fill="#14151A" transform="translate(37.9296875,28.83203125)"/>
</svg>
