<?xml version="1.0" encoding="UTF-8"?>
<svg version="1.1" xmlns="http://www.w3.org/2000/svg" width="96" height="96">
<path d="M0 0 C9.53952789 7.51663693 15.10483607 18.77519224 17 30.62890625 C17.95574374 45.51645291 14.82667637 58.00409637 5.625 69.94140625 C-4.50998951 80.31770504 -16.46685956 85.56472284 -30.875 85.94140625 C-44.16696976 85.69869574 -56.32811443 80.92735365 -66 71.62890625 C-71.39602748 64.98499363 -76.14889727 58.09109016 -78 49.62890625 C-78.18046875 48.85804687 -78.3609375 48.0871875 -78.546875 47.29296875 C-80.95426363 33.1391839 -77.73639856 20.51871694 -70 8.62890625 C-63.38046 -0.07747178 -53.79454314 -7.00978744 -43 -9.37109375 C-41.84371094 -9.64179688 -41.84371094 -9.64179688 -40.6640625 -9.91796875 C-25.51665307 -12.49436097 -12.4543553 -8.53804435 0 0 Z M-58 1.62890625 C-58.63679688 2.06976563 -59.27359375 2.510625 -59.9296875 2.96484375 C-67.79180817 9.00994098 -72.5793805 18.15944275 -75 27.62890625 C-75.226875 28.43328125 -75.45375 29.23765625 -75.6875 30.06640625 C-77.25394828 42.91128217 -74.47474249 54.06116687 -67 64.62890625 C-66.33871094 65.58410156 -66.33871094 65.58410156 -65.6640625 66.55859375 C-59.24955044 74.90116723 -49.18485005 79.91078993 -39.125 82.31640625 C-25.96677866 83.63222838 -14.89987289 81.33857244 -4 73.62890625 C-3.36320312 73.18804687 -2.72640625 72.7471875 -2.0703125 72.29296875 C6.27226098 65.87845669 11.28188368 55.8137563 13.6875 45.75390625 C15.00332213 32.59568491 12.70966619 21.52877914 5 10.62890625 C4.33871094 9.67371094 4.33871094 9.67371094 3.6640625 8.69921875 C-2.75044956 0.35664527 -12.81514995 -4.65297743 -22.875 -7.05859375 C-36.03322134 -8.37441588 -47.10012711 -6.08075994 -58 1.62890625 Z " fill="#E8E8E8" transform="translate(79,10.37109375)"/>
<path d="M0 0 C3 2 3 2 3.38095093 3.89746094 C3.38333771 4.66864258 3.38572449 5.43982422 3.38818359 6.234375 C3.39764008 7.10868164 3.40709656 7.98298828 3.4168396 8.88378906 C3.41076691 9.82963867 3.40469421 10.77548828 3.3984375 11.75 C3.40274277 13.2035791 3.40274277 13.2035791 3.40713501 14.68652344 C3.40917869 16.73763614 3.40362767 18.7887682 3.39111328 20.83984375 C3.37506414 23.98742061 3.39095194 27.13371329 3.41015625 30.28125 C3.40817387 32.27083618 3.40433031 34.26042156 3.3984375 36.25 C3.40754654 37.66877441 3.40754654 37.66877441 3.4168396 39.11621094 C3.40738312 39.99051758 3.39792664 40.86482422 3.38818359 41.765625 C3.38579681 42.53680664 3.38341003 43.30798828 3.38095093 44.10253906 C3 46 3 46 0 48 C-4.07490752 48.33957563 -5.53001271 48.31332486 -9 46 C-9.38095093 44.10253906 -9.38095093 44.10253906 -9.38818359 41.765625 C-9.39764008 40.89131836 -9.40709656 40.01701172 -9.4168396 39.11621094 C-9.41076691 38.17036133 -9.40469421 37.22451172 -9.3984375 36.25 C-9.40130768 35.28094727 -9.40417786 34.31189453 -9.40713501 33.31347656 C-9.40917869 31.26236386 -9.40362767 29.2112318 -9.39111328 27.16015625 C-9.37506414 24.01257939 -9.39095194 20.86628671 -9.41015625 17.71875 C-9.40817387 15.72916382 -9.40433031 13.73957844 -9.3984375 11.75 C-9.40451019 10.80415039 -9.41058289 9.85830078 -9.4168396 8.88378906 C-9.40265488 7.5723291 -9.40265488 7.5723291 -9.38818359 6.234375 C-9.38579681 5.46319336 -9.38341003 4.69201172 -9.38095093 3.89746094 C-8.42795798 -0.84925774 -3.8518133 -0.32098444 0 0 Z " fill="#14151A" transform="translate(51,24)"/>
<path d="M0 0 C0.9075 0.00257812 1.815 0.00515625 2.75 0.0078125 C4.11125 0.00394531 4.11125 0.00394531 5.5 0 C7.75 0.1328125 7.75 0.1328125 8.75 1.1328125 C8.87553427 3.48505842 8.93859672 5.80641993 8.953125 8.16015625 C8.95882507 8.86427139 8.96452515 9.56838654 8.97039795 10.2938385 C8.97985963 11.78596488 8.98638656 13.27811226 8.99023438 14.77026367 C8.99994559 17.057498 9.03095825 19.34383599 9.0625 21.63085938 C9.06902925 23.07811964 9.07428003 24.52538636 9.078125 25.97265625 C9.0904718 26.65915756 9.1028186 27.34565887 9.11553955 28.05296326 C9.10644531 29.98413086 9.10644531 29.98413086 8.75 33.1328125 C5.28001271 35.44613736 3.82490752 35.47238813 -0.25 35.1328125 C-1.24 34.4728125 -2.23 33.8128125 -3.25 33.1328125 C-3.52980316 30.66115402 -3.62255486 28.44302509 -3.578125 25.97265625 C-3.57625183 25.26758438 -3.57437866 24.56251251 -3.57244873 23.83607483 C-3.56572481 22.3456652 -3.55180341 20.85527331 -3.53125 19.36499023 C-3.50007532 17.07584357 -3.49027853 14.78738482 -3.484375 12.49804688 C-3.47520598 11.05207488 -3.46483053 9.60610993 -3.453125 8.16015625 C-3.44887512 7.47163071 -3.44462524 6.78310516 -3.44024658 6.07371521 C-3.35122274 0.19781523 -3.35122274 0.19781523 0 0 Z " fill="#14151A" transform="translate(61.25,36.8671875)"/>
<path d="M0 0 C0.70125 0.00515625 1.4025 0.0103125 2.125 0.015625 C2.82625 0.01046875 3.5275 0.0053125 4.25 0 C6.125 0.265625 6.125 0.265625 8.125 2.265625 C8.38378906 4.38867188 8.38378906 4.38867188 8.390625 6.984375 C8.39320312 7.91636719 8.39578125 8.84835938 8.3984375 9.80859375 C8.39070313 10.78441406 8.38296875 11.76023437 8.375 12.765625 C8.38273437 13.74144531 8.39046875 14.71726562 8.3984375 15.72265625 C8.39585938 16.65464844 8.39328125 17.58664063 8.390625 18.546875 C8.38836914 19.40345703 8.38611328 20.26003906 8.38378906 21.14257812 C8.125 23.265625 8.125 23.265625 6.125 25.265625 C1.78856399 25.58100216 -0.20153229 25.71460347 -3.875 23.265625 C-4.24731445 21.14257812 -4.24731445 21.14257812 -4.23828125 18.546875 C-4.23763672 17.61488281 -4.23699219 16.68289062 -4.23632812 15.72265625 C-4.22021484 14.74683594 -4.20410156 13.77101563 -4.1875 12.765625 C-4.19233398 11.30189453 -4.19233398 11.30189453 -4.19726562 9.80859375 C-4.12709748 0.58467214 -4.12709748 0.58467214 0 0 Z " fill="#14151A" transform="translate(29.875,46.734375)"/>
</svg>
