<?xml version="1.0" encoding="UTF-8"?>
<svg version="1.1" xmlns="http://www.w3.org/2000/svg" width="32" height="32">
<path d="M0 0 C3.79762349 2.25741087 7.00558414 5.01116827 9 9 C9.40045268 13.78232917 9.6379928 18.36957396 7.875 22.875 C1.84386282 29.71028881 1.84386282 29.71028881 -2.66015625 30.41796875 C-7.81120391 30.56355691 -11.98838675 30.53965875 -16 27 C-16.928125 26.195625 -17.85625 25.39125 -18.8125 24.5625 C-21.8586849 20.71620958 -21.63290192 16.5781764 -21.421875 11.84765625 C-20.85105716 7.99463583 -19.67448611 5.81905293 -17 3 C-11.58376585 -0.83031627 -6.44978258 -1.19995955 0 0 Z " fill="#E64B3B" transform="translate(22,1)"/>
<path d="M0 0 C6.6 0 13.2 0 20 0 C20 3.3 20 6.6 20 10 C13.4 10 6.8 10 0 10 C0 6.7 0 3.4 0 0 Z " fill="#FFFFFF" transform="translate(11,11)"/>
<path d="M0 0 C9.18677727 -1.06390987 9.18677727 -1.06390987 13.4765625 1.453125 C16.60752012 4.16282651 18.67477064 6.02431192 20 10 C13.4 10 6.8 10 0 10 C0 6.7 0 3.4 0 0 Z " fill="#469850" transform="translate(11,1)"/>
<path d="M0 0 C6.27 0 12.54 0 19 0 C17.86293124 4.54827505 16.7397174 5.90833502 13.25390625 8.8046875 C9.06767757 11.02476718 4.59816869 10.44900743 0 10 C0 6.7 0 3.4 0 0 Z " fill="#212121" transform="translate(11,21)"/>
</svg>
