<?xml version="1.0" encoding="UTF-8"?>
<svg version="1.1" xmlns="http://www.w3.org/2000/svg" width="68" height="50">
<path d="M0 0 C17.82 0 35.64 0 54 0 C54 11.88 54 23.76 54 36 C36.18 36 18.36 36 0 36 C0 24.12 0 12.24 0 0 Z " fill="#4D5155" transform="translate(7,5)"/>
<path d="M0 0 C17.82 0 35.64 0 54 0 C54 11.88 54 23.76 54 36 C36.18 36 18.36 36 0 36 C0 24.12 0 12.24 0 0 Z M1 2 C1 12.56 1 23.12 1 34 C17.83 34 34.66 34 52 34 C52 23.44 52 12.88 52 2 C35.17 2 18.34 2 1 2 Z " fill="#8A9095" transform="translate(7,5)"/>
<path d="M0 0 C19.14 0 38.28 0 58 0 C58 0.99 58 1.98 58 3 C38.86 3 19.72 3 0 3 C0 2.01 0 1.02 0 0 Z " fill="#9A9FA4" transform="translate(5,42)"/>
</svg>
