<?xml version="1.0" encoding="UTF-8"?>
<!DOCTYPE svg PUBLIC "-//W3C//DTD SVG 1.1//EN" "http://www.w3.org/Graphics/SVG/1.1/DTD/svg11.dtd">
<svg xmlns="http://www.w3.org/2000/svg" version="1.1" width="801px" height="152px" style="shape-rendering:geometricPrecision; text-rendering:geometricPrecision; image-rendering:optimizeQuality; fill-rule:evenodd; clip-rule:evenodd" xmlns:xlink="http://www.w3.org/1999/xlink">
<g><path style="opacity:0.946" fill="#000000" d="M 202.5,-0.5 C 206.5,-0.5 210.5,-0.5 214.5,-0.5C 223.584,3.67643 226.751,10.6764 224,20.5C 216.502,31.7172 207.168,33.3838 196,25.5C 189.662,14.5914 191.828,5.92478 202.5,-0.5 Z"/></g>
<g><path style="opacity:0.971" fill="#000000" d="M 15.5,17.5 C 25.5,17.5 35.5,17.5 45.5,17.5C 45.5,25.5 45.5,33.5 45.5,41.5C 51.8333,41.5 58.1667,41.5 64.5,41.5C 64.5,49.1667 64.5,56.8333 64.5,64.5C 58.1667,64.5 51.8333,64.5 45.5,64.5C 45.3334,83.1696 45.5001,101.836 46,120.5C 47.1667,123 49,124.833 51.5,126C 55.8206,126.499 60.1539,126.666 64.5,126.5C 64.8142,134.087 64.4808,141.587 63.5,149C 54.8333,149.667 46.1667,149.667 37.5,149C 25.8569,147.354 18.6903,140.854 16,129.5C 15.5,107.836 15.3334,86.1692 15.5,64.5C 10.5,64.5 5.5,64.5 0.5,64.5C 0.5,56.8333 0.5,49.1667 0.5,41.5C 5.5,41.5 10.5,41.5 15.5,41.5C 15.5,33.5 15.5,25.5 15.5,17.5 Z"/></g>
<g><path style="opacity:0.973" fill="#000000" d="M 76.5,17.5 C 86.1667,17.5 95.8333,17.5 105.5,17.5C 105.333,31.504 105.5,45.504 106,59.5C 116.023,42.2627 130.856,36.0961 150.5,41C 164.969,45.1369 173.469,54.6369 176,69.5C 176.5,96.1646 176.667,122.831 176.5,149.5C 166.5,149.5 156.5,149.5 146.5,149.5C 146.667,125.831 146.5,102.164 146,78.5C 143.452,69.1347 137.285,64.4681 127.5,64.5C 117.014,65.1532 110.18,70.4865 107,80.5C 106.5,103.498 106.333,126.498 106.5,149.5C 96.5,149.5 86.5,149.5 76.5,149.5C 76.5,105.5 76.5,61.5 76.5,17.5 Z"/></g>
<g><path style="opacity:0.971" fill="#000000" d="M 315.5,17.5 C 325.5,17.5 335.5,17.5 345.5,17.5C 345.5,25.5 345.5,33.5 345.5,41.5C 351.833,41.5 358.167,41.5 364.5,41.5C 364.5,49.1667 364.5,56.8333 364.5,64.5C 358.167,64.5 351.833,64.5 345.5,64.5C 345.333,83.1696 345.5,101.836 346,120.5C 347.167,123 349,124.833 351.5,126C 355.821,126.499 360.154,126.666 364.5,126.5C 364.814,134.087 364.481,141.587 363.5,149C 354.833,149.667 346.167,149.667 337.5,149C 325.857,147.354 318.69,140.854 316,129.5C 315.5,107.836 315.333,86.1692 315.5,64.5C 310.5,64.5 305.5,64.5 300.5,64.5C 300.5,56.8333 300.5,49.1667 300.5,41.5C 305.5,41.5 310.5,41.5 315.5,41.5C 315.5,33.5 315.5,25.5 315.5,17.5 Z"/></g>
<g><path style="opacity:0.962" fill="#000000" d="M 433.5,151.5 C 425.5,151.5 417.5,151.5 409.5,151.5C 380.946,144.295 367.279,125.795 368.5,96C 367.413,77.245 373.747,61.5783 387.5,49C 397.103,41.8007 407.937,38.634 420,39.5C 447.726,39.6945 464.392,53.3612 470,80.5C 470.5,87.8258 470.666,95.1591 470.5,102.5C 446.167,102.5 421.833,102.5 397.5,102.5C 398.787,123.484 409.787,131.984 430.5,128C 436.301,126.033 440.301,122.199 442.5,116.5C 451.475,115.502 460.475,115.168 469.5,115.5C 468.261,128.58 461.928,138.413 450.5,145C 444.946,147.79 439.279,149.957 433.5,151.5 Z M 415.5,61.5 C 430.858,60.6922 439.858,67.8589 442.5,83C 427.5,83.6667 412.5,83.6667 397.5,83C 399.425,72.261 405.425,65.0943 415.5,61.5 Z"/></g>
<g><path style="opacity:0.962" fill="#000000" d="M 542.5,151.5 C 534.833,151.5 527.167,151.5 519.5,151.5C 490.946,144.295 477.279,125.795 478.5,96C 479.774,55.0559 500.774,36.3892 541.5,40C 563.216,45.0497 576.05,58.5497 580,80.5C 580.5,87.8258 580.666,95.1591 580.5,102.5C 556.167,102.5 531.833,102.5 507.5,102.5C 508.787,123.484 519.787,131.984 540.5,128C 546.301,126.033 550.301,122.199 552.5,116.5C 561.475,115.502 570.475,115.168 579.5,115.5C 577.837,130.307 570.17,140.807 556.5,147C 551.816,148.83 547.149,150.33 542.5,151.5 Z M 525.5,61.5 C 540.858,60.6922 549.858,67.8589 552.5,83C 537.5,83.6667 522.5,83.6667 507.5,83C 509.425,72.261 515.425,65.0943 525.5,61.5 Z"/></g>
<g><path style="opacity:0.984" fill="#000000" d="M 644.5,39.5 C 659.575,36.8027 672.409,40.8027 683,51.5C 686.499,56.6597 688.833,62.3264 690,68.5C 690.5,95.4979 690.667,122.498 690.5,149.5C 680.833,149.5 671.167,149.5 661.5,149.5C 661.95,125.123 661.45,100.79 660,76.5C 656.964,68.4 651.13,64.4 642.5,64.5C 632.817,64.6771 626.317,69.3438 623,78.5C 621.551,102.123 621.051,125.789 621.5,149.5C 611.833,149.5 602.167,149.5 592.5,149.5C 592.5,113.5 592.5,77.5 592.5,41.5C 601.833,41.5 611.167,41.5 620.5,41.5C 620.334,47.5092 620.501,53.5092 621,59.5C 625.964,49.3632 633.797,42.6965 644.5,39.5 Z"/></g>
<g><path style="opacity:0.998" fill="#000000" d="M 193.5,41.5 C 203.5,41.5 213.5,41.5 223.5,41.5C 223.5,77.5 223.5,113.5 223.5,149.5C 213.5,149.5 203.5,149.5 193.5,149.5C 193.5,113.5 193.5,77.5 193.5,41.5 Z"/></g>
<g><path style="opacity:0.985" fill="#000000" d="M 280.5,41.5 C 286.5,41.5 292.5,41.5 298.5,41.5C 298.5,49.1667 298.5,56.8333 298.5,64.5C 283.677,61.1267 273.177,66.4601 267,80.5C 265.564,103.461 265.064,126.461 265.5,149.5C 255.833,149.5 246.167,149.5 236.5,149.5C 236.5,113.833 236.5,78.1667 236.5,42.5C 245.833,42.5 255.167,42.5 264.5,42.5C 264.334,48.5092 264.501,54.5092 265,60.5C 267.849,52.0584 273.015,45.725 280.5,41.5 Z"/></g>
<g><path style="opacity:0.963" fill="#000000" d="M 800.5,41.5 C 800.5,42.1667 800.5,42.8333 800.5,43.5C 789.15,60.3475 778.15,77.5142 767.5,95C 778.651,112.814 789.651,130.647 800.5,148.5C 800.5,148.833 800.5,149.167 800.5,149.5C 789.48,149.832 778.48,149.499 767.5,148.5C 762.158,139.818 757.325,130.818 753,121.5C 751.985,117.56 751.485,113.56 751.5,109.5C 751.5,109.167 751.5,108.833 751.5,108.5C 752.167,108.5 752.5,108.167 752.5,107.5C 752.688,104.794 753.688,102.461 755.5,100.5C 756.368,98.5979 757.368,96.7645 758.5,95C 757.86,92.8796 756.86,91.0463 755.5,89.5C 753.229,85.2909 751.229,80.9576 749.5,76.5C 755.471,65.2282 761.471,53.8948 767.5,42.5C 778.48,41.5012 789.48,41.1679 800.5,41.5 Z"/></g>
<g><path style="opacity:0.997" fill="#f76bc6" d="M 733.5,47.5 C 732.666,48.7479 731.333,49.4146 729.5,49.5C 723.477,50.1696 717.477,51.0029 711.5,52C 711,52.5 710.5,53 710,53.5C 707.959,52.5769 705.792,52.2436 703.5,52.5C 701.189,49.2331 698.856,45.8998 696.5,42.5C 707.819,41.3342 719.152,41.1675 730.5,42C 731.758,43.7409 732.758,45.5742 733.5,47.5 Z"/></g>
<g><path style="opacity:0.981" fill="#e567c9" d="M 733.5,47.5 C 736.072,51.6392 738.405,55.9726 740.5,60.5C 730.473,61.7629 720.139,62.7629 709.5,63.5C 707.234,59.9663 705.234,56.2996 703.5,52.5C 705.792,52.2436 707.959,52.5769 710,53.5C 710.5,53 711,52.5 711.5,52C 717.477,51.0029 723.477,50.1696 729.5,49.5C 731.333,49.4146 732.666,48.7479 733.5,47.5 Z"/></g>
<g><path style="opacity:0.98" fill="#cf5fc7" d="M 740.5,60.5 C 743.341,64.8489 745.674,69.5156 747.5,74.5C 739.532,74.3968 731.365,75.0634 723,76.5C 721.5,76.3333 720,76.1667 718.5,76C 719.956,75.5774 720.456,74.7441 720,73.5C 718.855,74.6843 717.688,74.6843 716.5,73.5C 714.179,70.2041 711.846,66.8708 709.5,63.5C 720.139,62.7629 730.473,61.7629 740.5,60.5 Z"/></g>
<g><path style="opacity:0.993" fill="#b354bb" d="M 716.5,73.5 C 717.688,74.6843 718.855,74.6843 720,73.5C 720.456,74.7441 719.956,75.5774 718.5,76C 720,76.1667 721.5,76.3333 723,76.5C 731.365,75.0634 739.532,74.3968 747.5,74.5C 748.5,74.8333 749.167,75.5 749.5,76.5C 751.229,80.9576 753.229,85.2909 755.5,89.5C 755.5,90.5 755.5,91.5 755.5,92.5C 746.083,92.8055 736.75,92.4721 727.5,91.5C 723.335,85.8417 719.668,79.8417 716.5,73.5 Z"/></g>
<g><path style="opacity:1" fill="#9546aa" d="M 755.5,89.5 C 756.86,91.0463 757.86,92.8796 758.5,95C 757.368,96.7645 756.368,98.5979 755.5,100.5C 751.224,100.137 746.724,100.804 742,102.5C 740.333,102.167 738.667,101.833 737,101.5C 734.667,102.167 732.333,102.833 730,103.5C 729.075,102.953 728.242,102.287 727.5,101.5C 728.127,100.583 728.461,99.5832 728.5,98.5C 728.539,97.4168 728.873,96.4168 729.5,95.5C 728.37,94.3777 727.703,93.0443 727.5,91.5C 736.75,92.4721 746.083,92.8055 755.5,92.5C 755.5,91.5 755.5,90.5 755.5,89.5 Z"/></g>
<g><path style="opacity:0.986" fill="#7f3b98" d="M 728.5,98.5 C 728.461,99.5832 728.127,100.583 727.5,101.5C 728.242,102.287 729.075,102.953 730,103.5C 732.333,102.833 734.667,102.167 737,101.5C 738.667,101.833 740.333,102.167 742,102.5C 746.724,100.804 751.224,100.137 755.5,100.5C 753.688,102.461 752.688,104.794 752.5,107.5C 751.833,107.5 751.5,107.833 751.5,108.5C 751.5,108.833 751.5,109.167 751.5,109.5C 750.026,110.436 749.026,111.77 748.5,113.5C 739.91,113.673 731.41,114.339 723,115.5C 722.355,114.354 721.522,113.354 720.5,112.5C 721.127,111.583 721.461,110.583 721.5,109.5C 723.446,105.561 725.779,101.894 728.5,98.5 Z"/></g>
<g><path style="opacity:0.997" fill="#642e7f" d="M 721.5,109.5 C 721.461,110.583 721.127,111.583 720.5,112.5C 721.522,113.354 722.355,114.354 723,115.5C 731.41,114.339 739.91,113.673 748.5,113.5C 746.403,117.372 744.069,121.039 741.5,124.5C 732.848,124.949 724.515,125.615 716.5,126.5C 714.517,126.185 713.184,125.185 712.5,123.5C 715.015,118.457 718.015,113.79 721.5,109.5 Z"/></g>
<g><path style="opacity:0.985" fill="#4c2263" d="M 712.5,123.5 C 713.184,125.185 714.517,126.185 716.5,126.5C 724.515,125.615 732.848,124.949 741.5,124.5C 739.926,129.32 737.593,133.653 734.5,137.5C 733.417,137.461 732.417,137.127 731.5,136.5C 722.383,137.961 713.383,138.461 704.5,138C 705.5,137.667 706.5,137.333 707.5,137C 706.244,136.583 705.577,135.75 705.5,134.5C 707.597,130.628 709.931,126.961 712.5,123.5 Z"/></g>
<g><path style="opacity:0.99" fill="#3a1a4d" d="M 705.5,134.5 C 705.577,135.75 706.244,136.583 707.5,137C 706.5,137.333 705.5,137.667 704.5,138C 713.383,138.461 722.383,137.961 731.5,136.5C 732.417,137.127 733.417,137.461 734.5,137.5C 733.416,140.004 732.083,142.337 730.5,144.5C 725.354,144.181 720.354,144.847 715.5,146.5C 710.124,145.218 704.458,145.218 698.5,146.5C 700.332,142.164 702.665,138.164 705.5,134.5 Z"/></g>
<g><path style="opacity:0.982" fill="#2e143d" d="M 730.5,144.5 C 730.297,146.044 729.63,147.378 728.5,148.5C 717.833,149.833 707.167,149.833 696.5,148.5C 696.855,147.478 697.522,146.811 698.5,146.5C 704.458,145.218 710.124,145.218 715.5,146.5C 720.354,144.847 725.354,144.181 730.5,144.5 Z"/></g>
</svg>
