<?xml version="1.0" encoding="UTF-8"?>
<!DOCTYPE svg PUBLIC "-//W3C//DTD SVG 1.1//EN" "http://www.w3.org/Graphics/SVG/1.1/DTD/svg11.dtd">
<svg xmlns="http://www.w3.org/2000/svg" version="1.1" width="104px" height="72px" style="shape-rendering:geometricPrecision; text-rendering:geometricPrecision; image-rendering:optimizeQuality; fill-rule:evenodd; clip-rule:evenodd" xmlns:xlink="http://www.w3.org/1999/xlink">
<g><path style="opacity:0.964" fill="#e3e3e7" d="M 4.5,-0.5 C 35.8333,-0.5 67.1667,-0.5 98.5,-0.5C 100.5,0.833333 102.167,2.5 103.5,4.5C 103.5,25.1667 103.5,45.8333 103.5,66.5C 102.167,68.5 100.5,70.1667 98.5,71.5C 67.1667,71.5 35.8333,71.5 4.5,71.5C 2.5,70.1667 0.833333,68.5 -0.5,66.5C -0.5,45.8333 -0.5,25.1667 -0.5,4.5C 0.833333,2.5 2.5,0.833333 4.5,-0.5 Z M 8.5,1.5 C 38.2299,1.02375 67.8966,1.52375 97.5,3C 99.4875,4.31892 100.654,6.15226 101,8.5C 101.667,26.8333 101.667,45.1667 101,63.5C 100.167,66.3333 98.3333,68.1667 95.5,69C 66.1667,69.6667 36.8333,69.6667 7.5,69C 4.66667,68.1667 2.83333,66.3333 2,63.5C 1.33333,44.8333 1.33333,26.1667 2,7.5C 3.43611,4.55813 5.60277,2.55813 8.5,1.5 Z"/></g>
<g><path style="opacity:0.968" fill="#ea0a1b" d="M 51.5,22.5 C 51.5,23.1667 51.5,23.8333 51.5,24.5C 44.592,30.0773 42.7586,37.0773 46,45.5C 47.371,48.2661 49.2043,50.5994 51.5,52.5C 51.5,52.8333 51.5,53.1667 51.5,53.5C 41.3174,59.5929 32.1507,58.2596 24,49.5C 18.1348,37.7938 20.6348,28.2938 31.5,21C 38.3796,18.7882 45.0462,19.2882 51.5,22.5 Z"/></g>
<g><path style="opacity:0.968" fill="#f79e1a" d="M 51.5,53.5 C 51.5,53.1667 51.5,52.8333 51.5,52.5C 58.3202,46.5197 60.1535,39.1864 57,30.5C 55.669,28.0038 53.8356,26.0038 51.5,24.5C 51.5,23.8333 51.5,23.1667 51.5,22.5C 61.9825,17.1953 71.1492,18.8619 79,27.5C 85.0746,39.7082 82.2412,49.2082 70.5,56C 63.7301,58.3899 57.3968,57.5566 51.5,53.5 Z"/></g>
<g><path style="opacity:1" fill="#fe5f01" d="M 51.5,24.5 C 53.8356,26.0038 55.669,28.0038 57,30.5C 60.1535,39.1864 58.3202,46.5197 51.5,52.5C 49.2043,50.5994 47.371,48.2661 46,45.5C 42.7586,37.0773 44.592,30.0773 51.5,24.5 Z"/></g>
</svg>
