<?xml version="1.0" encoding="UTF-8"?>
<!DOCTYPE svg PUBLIC "-//W3C//DTD SVG 1.1//EN" "http://www.w3.org/Graphics/SVG/1.1/DTD/svg11.dtd">
<svg xmlns="http://www.w3.org/2000/svg" version="1.1" width="160px" height="160px" style="shape-rendering:geometricPrecision; text-rendering:geometricPrecision; image-rendering:optimizeQuality; fill-rule:evenodd; clip-rule:evenodd" xmlns:xlink="http://www.w3.org/1999/xlink">
<g><path style="opacity:0.953" fill="#16171c" d="M 23.5,-0.5 C 60.8333,-0.5 98.1667,-0.5 135.5,-0.5C 147.167,3.83333 155.167,11.8333 159.5,23.5C 159.5,60.8333 159.5,98.1667 159.5,135.5C 155.167,147.167 147.167,155.167 135.5,159.5C 98.1667,159.5 60.8333,159.5 23.5,159.5C 11.8333,155.167 3.83333,147.167 -0.5,135.5C -0.5,98.1667 -0.5,60.8333 -0.5,23.5C 3.83333,11.8333 11.8333,3.83333 23.5,-0.5 Z"/></g>
<g><path style="opacity:1" fill="#f8f7f3" d="M 24.5,1.5 C 60.8349,1.33335 97.1682,1.50001 133.5,2C 145.568,5.06749 153.401,12.5675 157,24.5C 157.667,60.8333 157.667,97.1667 157,133.5C 153.586,146.916 145.086,154.749 131.5,157C 95.8333,157.667 60.1667,157.667 24.5,157C 11.6506,153.154 4.15057,144.654 2,131.5C 1.33333,95.8333 1.33333,60.1667 2,24.5C 5.68399,12.9837 13.184,5.31707 24.5,1.5 Z"/></g>
</svg>
