<?xml version="1.0" encoding="UTF-8"?>
<!DOCTYPE svg PUBLIC "-//W3C//DTD SVG 1.1//EN" "http://www.w3.org/Graphics/SVG/1.1/DTD/svg11.dtd">
<svg xmlns="http://www.w3.org/2000/svg" version="1.1" width="64px" height="64px" style="shape-rendering:geometricPrecision; text-rendering:geometricPrecision; image-rendering:optimizeQuality; fill-rule:evenodd; clip-rule:evenodd" xmlns:xlink="http://www.w3.org/1999/xlink">
<g><path style="opacity:0.882" fill="#14151a" d="M 23.5,-0.5 C 28.8333,-0.5 34.1667,-0.5 39.5,-0.5C 51.1667,3.83333 59.1667,11.8333 63.5,23.5C 63.5,28.8333 63.5,34.1667 63.5,39.5C 59.1667,51.1667 51.1667,59.1667 39.5,63.5C 34.1667,63.5 28.8333,63.5 23.5,63.5C 11.8333,59.1667 3.83333,51.1667 -0.5,39.5C -0.5,34.1667 -0.5,28.8333 -0.5,23.5C 3.83333,11.8333 11.8333,3.83333 23.5,-0.5 Z M 29.5,3.5 C 46.8686,4.86672 56.8686,14.2001 59.5,31.5C 57.1943,47.8057 47.861,57.139 31.5,59.5C 15.1943,57.1943 5.86095,47.861 3.5,31.5C 5.66503,16.0054 14.3317,6.67202 29.5,3.5 Z"/></g>
<g><path style="opacity:0.969" fill="#14151a" d="M 29.5,17.5 C 30.8333,17.5 32.1667,17.5 33.5,17.5C 33.5,21.5 33.5,25.5 33.5,29.5C 37.5,29.5 41.5,29.5 45.5,29.5C 45.5,30.8333 45.5,32.1667 45.5,33.5C 41.5,33.5 37.5,33.5 33.5,33.5C 33.5,37.5 33.5,41.5 33.5,45.5C 32.1667,45.5 30.8333,45.5 29.5,45.5C 29.5,41.5 29.5,37.5 29.5,33.5C 25.5,33.5 21.5,33.5 17.5,33.5C 17.5,32.1667 17.5,30.8333 17.5,29.5C 21.5,29.5 25.5,29.5 29.5,29.5C 29.5,25.5 29.5,21.5 29.5,17.5 Z"/></g>
</svg>
