<?xml version="1.0" encoding="UTF-8"?>
<!DOCTYPE svg PUBLIC "-//W3C//DTD SVG 1.1//EN" "http://www.w3.org/Graphics/SVG/1.1/DTD/svg11.dtd">
<svg xmlns="http://www.w3.org/2000/svg" version="1.1" width="96px" height="96px" style="shape-rendering:geometricPrecision; text-rendering:geometricPrecision; image-rendering:optimizeQuality; fill-rule:evenodd; clip-rule:evenodd" xmlns:xlink="http://www.w3.org/1999/xlink">
<g><path style="opacity:0.817" fill="#e8e8e8" d="M 37.5,-0.5 C 44.1667,-0.5 50.8333,-0.5 57.5,-0.5C 77.193,5.193 89.8597,17.8597 95.5,37.5C 95.5,44.1667 95.5,50.8333 95.5,57.5C 89.807,77.193 77.1403,89.8597 57.5,95.5C 50.8333,95.5 44.1667,95.5 37.5,95.5C 17.807,89.807 5.14032,77.1403 -0.5,57.5C -0.5,50.8333 -0.5,44.1667 -0.5,37.5C 5.193,17.807 17.8597,5.14032 37.5,-0.5 Z M 40.5,2.5 C 60.7763,0.721779 76.2763,8.38845 87,25.5C 97.9834,50.8741 92.1501,71.3741 69.5,87C 44.1259,97.9834 23.6259,92.1501 8,69.5C -3.37673,41.9625 3.78994,20.7958 29.5,6C 33.2541,4.69123 36.9207,3.52456 40.5,2.5 Z M 44.5,35.5 C 50.613,34.7189 54.613,37.2189 56.5,43C 54.7219,47.2793 51.7219,50.4459 47.5,52.5C 45.7971,48.6837 47.1305,46.8503 51.5,47C 54.1667,44.3333 54.1667,41.6667 51.5,39C 48.8333,38.3333 46.1667,38.3333 43.5,39C 42.3305,41.1846 41.1638,43.3512 40,45.5C 38.5197,43.6631 38.5197,41.6631 40,39.5C 41.3968,37.9297 42.8968,36.5964 44.5,35.5 Z M 45.5,57.5 C 46.8333,57.5 48.1667,57.5 49.5,57.5C 49.7778,59.3464 49.1112,60.6798 47.5,61.5C 45.8888,60.6798 45.2222,59.3464 45.5,57.5 Z"/></g>
<g><path style="opacity:0.928" fill="#000000" d="M 43.5,23.5 C 61.9754,23.808 71.1421,33.1413 71,51.5C 67.3304,65.7515 58.1637,72.2515 43.5,71C 29.2342,67.2919 22.7342,58.1253 24,43.5C 26.7089,32.9595 33.2089,26.2928 43.5,23.5 Z M 44.5,35.5 C 42.8968,36.5964 41.3968,37.9297 40,39.5C 38.5197,41.6631 38.5197,43.6631 40,45.5C 41.1638,43.3512 42.3305,41.1846 43.5,39C 46.1667,38.3333 48.8333,38.3333 51.5,39C 54.1667,41.6667 54.1667,44.3333 51.5,47C 47.1305,46.8503 45.7971,48.6837 47.5,52.5C 51.7219,50.4459 54.7219,47.2793 56.5,43C 54.613,37.2189 50.613,34.7189 44.5,35.5 Z M 45.5,57.5 C 45.2222,59.3464 45.8888,60.6798 47.5,61.5C 49.1112,60.6798 49.7778,59.3464 49.5,57.5C 48.1667,57.5 46.8333,57.5 45.5,57.5 Z"/></g>
</svg>
