<?xml version="1.0" encoding="UTF-8"?>
<!DOCTYPE svg PUBLIC "-//W3C//DTD SVG 1.1//EN" "http://www.w3.org/Graphics/SVG/1.1/DTD/svg11.dtd">
<svg xmlns="http://www.w3.org/2000/svg" version="1.1" width="96px" height="96px" style="shape-rendering:geometricPrecision; text-rendering:geometricPrecision; image-rendering:optimizeQuality; fill-rule:evenodd; clip-rule:evenodd" xmlns:xlink="http://www.w3.org/1999/xlink">
<g><path style="opacity:0.612" fill="#e8e8e8" d="M 37.5,-0.5 C 44.1667,-0.5 50.8333,-0.5 57.5,-0.5C 77.193,5.193 89.8597,17.8597 95.5,37.5C 95.5,44.1667 95.5,50.8333 95.5,57.5C 89.807,77.193 77.1403,89.8597 57.5,95.5C 50.8333,95.5 44.1667,95.5 37.5,95.5C 17.807,89.807 5.14032,77.1403 -0.5,57.5C -0.5,50.8333 -0.5,44.1667 -0.5,37.5C 5.193,17.807 17.8597,5.14032 37.5,-0.5 Z M 43.5,0.5 C 67.1263,0.638589 83.2929,11.6386 92,33.5C 97.8218,61.3569 87.6551,80.8569 61.5,92C 33.6431,97.8218 14.1431,87.6551 3,61.5C -2.76025,35.1873 6.40642,16.0207 30.5,4C 34.9191,2.64763 39.2524,1.48096 43.5,0.5 Z"/></g>
<g><path style="opacity:0.797" fill="#4d4d4d" d="M 55.5,27.5 C 56.8333,27.5 58.1667,27.5 59.5,27.5C 59.3335,38.505 59.5002,49.505 60,60.5C 61.8864,57.758 64.3864,56.0913 67.5,55.5C 66.0562,60.9547 62.7229,64.9547 57.5,67.5C 52.2771,64.9547 48.9438,60.9547 47.5,55.5C 50.6136,56.0913 53.1136,57.758 55,60.5C 55.4998,49.505 55.6665,38.505 55.5,27.5 Z"/></g>
<g><path style="opacity:0.817" fill="#4d4d4d" d="M 35.5,27.5 C 36.8734,27.3433 38.2068,27.51 39.5,28C 42,30.5 44.5,33 47,35.5C 47.49,36.7932 47.6567,38.1266 47.5,39.5C 44.3864,38.9087 41.8864,37.242 40,34.5C 39.5002,45.495 39.3335,56.495 39.5,67.5C 38.1667,67.5 36.8333,67.5 35.5,67.5C 35.6665,56.495 35.4998,45.495 35,34.5C 33.1136,37.242 30.6136,38.9087 27.5,39.5C 27.3433,38.1266 27.51,36.7932 28,35.5C 30.705,32.9638 33.205,30.2971 35.5,27.5 Z"/></g>
</svg>
