<?xml version="1.0" encoding="UTF-8"?>
<!DOCTYPE svg PUBLIC "-//W3C//DTD SVG 1.1//EN" "http://www.w3.org/Graphics/SVG/1.1/DTD/svg11.dtd">
<svg xmlns="http://www.w3.org/2000/svg" version="1.1" width="136px" height="99px" style="shape-rendering:geometricPrecision; text-rendering:geometricPrecision; image-rendering:optimizeQuality; fill-rule:evenodd; clip-rule:evenodd" xmlns:xlink="http://www.w3.org/1999/xlink">
<g><path style="opacity:0.93" fill="#999fa5" d="M 15.5,9.5 C 50.5433,9.1735 85.5433,9.50683 120.5,10.5C 121.666,33.4928 121.833,56.4928 121,79.5C 120.5,80 120,80.5 119.5,81C 84.8333,81.6667 50.1667,81.6667 15.5,81C 15,80.5 14.5,80 14,79.5C 13.8333,68 13.6667,56.5 13.5,45C 13.5207,32.9422 14.1873,21.1089 15.5,9.5 Z"/></g>
<g><path style="opacity:0.999" fill="#484c50" d="M 20.5,12.5 C 21.6114,13.6597 22.6114,14.993 23.5,16.5C 27.225,16.8913 29.225,18.8913 29.5,22.5C 31.2012,22.9662 32.7012,22.9662 34,22.5C 35.113,23.7604 35.2797,24.927 34.5,26C 37.8907,27.6439 40.3907,30.1439 42,33.5C 42.3333,33.1667 42.6667,32.8333 43,32.5C 45.1372,34.3757 47.1372,36.3757 49,38.5C 49.414,38.0426 49.914,37.7093 50.5,37.5C 52.283,42.4503 55.6164,45.9503 60.5,48C 60.1667,48.3333 59.8333,48.6667 59.5,49C 61.3333,49.5 62.5,50.6667 63,52.5C 64.3333,52.5 65.6667,52.5 67,52.5C 68.0513,56.2696 69.8846,59.603 72.5,62.5C 73.1924,61.9747 73.6924,61.3081 74,60.5C 76.6479,62.8196 78.9812,65.4862 81,68.5C 82.8402,67.1669 83.3402,67.3335 82.5,69C 84.811,70.0521 86.1443,71.8854 86.5,74.5C 88.1836,75.1497 89.5169,76.1497 90.5,77.5C 85.1667,77.5 79.8333,77.5 74.5,77.5C 68.429,72.8592 62.429,67.1926 56.5,60.5C 55.675,59.6143 54.675,59.281 53.5,59.5C 52.3606,56.1982 50.0272,54.0315 46.5,53C 41.7661,49.1055 37.5994,44.6055 34,39.5C 33.6667,39.8333 33.3333,40.1667 33,40.5C 32.5604,38.9238 31.727,37.5904 30.5,36.5C 24.4532,33.4465 19.7866,29.1132 16.5,23.5C 16.5,19.8333 16.5,16.1667 16.5,12.5C 17.8333,12.5 19.1667,12.5 20.5,12.5 Z"/></g>
<g><path style="opacity:0.999" fill="#4c4f53" d="M 20.5,12.5 C 25.5,12.5 30.5,12.5 35.5,12.5C 36.3084,15.47 38.3084,17.3034 41.5,18C 40.2888,18.8928 40.2888,19.7261 41.5,20.5C 43.1151,21.154 44.7818,21.654 46.5,22C 45.8333,22.3333 45.1667,22.6667 44.5,23C 47.218,25.6427 50.5514,28.3093 54.5,31C 54.8333,32 55.1667,33 55.5,34C 56.8333,34.3333 58.1667,34.6667 59.5,35C 59.5,36 59.5,37 59.5,38C 60.8333,38 62.1667,38 63.5,38C 63.1667,38.3333 62.8333,38.6667 62.5,39C 68.1985,43.6417 73.6985,48.475 79,53.5C 79.3333,53.1667 79.6667,52.8333 80,52.5C 81.113,53.7604 81.2797,54.927 80.5,56C 81.8719,56.6309 83.2052,57.2975 84.5,58C 85.0779,59.8114 85.5779,61.6447 86,63.5C 86.3333,62.8333 86.6667,62.1667 87,61.5C 88.3518,63.4324 90.1851,64.7657 92.5,65.5C 92.2907,66.086 91.9574,66.586 91.5,67C 96.3637,69.7087 100.364,73.2087 103.5,77.5C 99.1667,77.5 94.8333,77.5 90.5,77.5C 89.5169,76.1497 88.1836,75.1497 86.5,74.5C 86.1443,71.8854 84.811,70.0521 82.5,69C 83.3402,67.3335 82.8402,67.1669 81,68.5C 78.9812,65.4862 76.6479,62.8196 74,60.5C 73.6924,61.3081 73.1924,61.9747 72.5,62.5C 69.8846,59.603 68.0513,56.2696 67,52.5C 65.6667,52.5 64.3333,52.5 63,52.5C 62.5,50.6667 61.3333,49.5 59.5,49C 59.8333,48.6667 60.1667,48.3333 60.5,48C 55.6164,45.9503 52.283,42.4503 50.5,37.5C 49.914,37.7093 49.414,38.0426 49,38.5C 47.1372,36.3757 45.1372,34.3757 43,32.5C 42.6667,32.8333 42.3333,33.1667 42,33.5C 40.3907,30.1439 37.8907,27.6439 34.5,26C 35.2797,24.927 35.113,23.7604 34,22.5C 32.7012,22.9662 31.2012,22.9662 29.5,22.5C 29.225,18.8913 27.225,16.8913 23.5,16.5C 22.6114,14.993 21.6114,13.6597 20.5,12.5 Z"/></g>
<g><path style="opacity:0.999" fill="#4e5256" d="M 35.5,12.5 C 37.8333,12.5 40.1667,12.5 42.5,12.5C 42.8212,14.0481 43.8212,14.7148 45.5,14.5C 45.281,15.675 45.6143,16.675 46.5,17.5C 50.4026,19.3505 53.4026,21.5171 55.5,24C 54.8333,24.3333 54.1667,24.6667 53.5,25C 56.5299,26.2841 59.5299,27.4508 62.5,28.5C 61.9648,31.2385 62.9648,33.0718 65.5,34C 65.1667,34.3333 64.8333,34.6667 64.5,35C 65.7604,36.113 66.927,36.2797 68,35.5C 73.3218,41.8029 78.6551,47.4695 84,52.5C 84.3333,51.5 84.6667,50.5 85,49.5C 86.5866,54.7297 89.5866,58.063 94,59.5C 96.3847,61.8838 98.3847,64.5505 100,67.5C 100.414,67.0426 100.914,66.7093 101.5,66.5C 102.354,67.5217 103.354,68.3551 104.5,69C 104.043,69.414 103.709,69.914 103.5,70.5C 105.167,71.5 106.5,72.8333 107.5,74.5C 109.274,75.1867 110.941,76.0201 112.5,77C 109.518,77.498 106.518,77.6646 103.5,77.5C 100.364,73.2087 96.3637,69.7087 91.5,67C 91.9574,66.586 92.2907,66.086 92.5,65.5C 90.1851,64.7657 88.3518,63.4324 87,61.5C 86.6667,62.1667 86.3333,62.8333 86,63.5C 85.5779,61.6447 85.0779,59.8114 84.5,58C 83.2052,57.2975 81.8719,56.6309 80.5,56C 81.2797,54.927 81.113,53.7604 80,52.5C 79.6667,52.8333 79.3333,53.1667 79,53.5C 73.6985,48.475 68.1985,43.6417 62.5,39C 62.8333,38.6667 63.1667,38.3333 63.5,38C 62.1667,38 60.8333,38 59.5,38C 59.5,37 59.5,36 59.5,35C 58.1667,34.6667 56.8333,34.3333 55.5,34C 55.1667,33 54.8333,32 54.5,31C 50.5514,28.3093 47.218,25.6427 44.5,23C 45.1667,22.6667 45.8333,22.3333 46.5,22C 44.7818,21.654 43.1151,21.154 41.5,20.5C 40.2888,19.7261 40.2888,18.8928 41.5,18C 38.3084,17.3034 36.3084,15.47 35.5,12.5 Z"/></g>
<g><path style="opacity:0.999" fill="#515559" d="M 42.5,12.5 C 45.8333,12.5 49.1667,12.5 52.5,12.5C 54.3707,14.2318 55.704,16.3984 56.5,19C 59.5577,20.2177 62.2244,22.051 64.5,24.5C 67.112,24.0153 67.112,24.8487 64.5,27C 66.1075,26.9813 67.7741,26.8146 69.5,26.5C 70.1634,31.0032 72.8301,33.8366 77.5,35C 76.8333,35.3333 76.1667,35.6667 75.5,36C 77.3289,36.2735 78.8289,37.1068 80,38.5C 81.6665,37.6598 81.8331,38.1598 80.5,40C 82.3008,40.3173 82.6341,40.984 81.5,42C 82.4491,42.6172 83.2825,42.4506 84,41.5C 86.0969,44.7308 88.2636,47.7308 90.5,50.5C 92.5643,50.687 94.5643,51.187 96.5,52C 92.81,52.4244 92.6433,53.2577 96,54.5C 96.3333,54.1667 96.6667,53.8333 97,53.5C 98.5,55 100,56.5 101.5,58C 99.3426,59.0847 99.1759,60.2513 101,61.5C 101.667,60.8333 102.333,60.1667 103,59.5C 106.667,63.1667 110.333,66.8333 114,70.5C 114.333,70.1667 114.667,69.8333 115,69.5C 115.333,70.5 115.667,71.5 116,72.5C 116.333,72.1667 116.667,71.8333 117,71.5C 117.495,73.4727 117.662,75.4727 117.5,77.5C 84.1667,78.8333 50.8333,78.8333 17.5,77.5C 31.1667,77.5 44.8333,77.5 58.5,77.5C 63.8333,77.5 69.1667,77.5 74.5,77.5C 79.8333,77.5 85.1667,77.5 90.5,77.5C 94.8333,77.5 99.1667,77.5 103.5,77.5C 106.518,77.6646 109.518,77.498 112.5,77C 110.941,76.0201 109.274,75.1867 107.5,74.5C 106.5,72.8333 105.167,71.5 103.5,70.5C 103.709,69.914 104.043,69.414 104.5,69C 103.354,68.3551 102.354,67.5217 101.5,66.5C 100.914,66.7093 100.414,67.0426 100,67.5C 98.3847,64.5505 96.3847,61.8838 94,59.5C 89.5866,58.063 86.5866,54.7297 85,49.5C 84.6667,50.5 84.3333,51.5 84,52.5C 78.6551,47.4695 73.3218,41.8029 68,35.5C 66.927,36.2797 65.7604,36.113 64.5,35C 64.8333,34.6667 65.1667,34.3333 65.5,34C 62.9648,33.0718 61.9648,31.2385 62.5,28.5C 59.5299,27.4508 56.5299,26.2841 53.5,25C 54.1667,24.6667 54.8333,24.3333 55.5,24C 53.4026,21.5171 50.4026,19.3505 46.5,17.5C 45.6143,16.675 45.281,15.675 45.5,14.5C 43.8212,14.7148 42.8212,14.0481 42.5,12.5 Z"/></g>
<g><path style="opacity:0.999" fill="#52565a" d="M 52.5,12.5 C 55.1667,12.5 57.8333,12.5 60.5,12.5C 62.1207,14.1475 63.2874,16.1475 64,18.5C 65.016,17.3659 65.6827,17.6992 66,19.5C 67.3333,19.5 68.6667,19.5 70,19.5C 70.1168,23.7851 72.2834,25.7851 76.5,25.5C 76.3505,26.552 76.5172,27.552 77,28.5C 82.0885,31.5092 85.9219,35.6759 88.5,41C 89.4491,41.6172 90.2825,41.4506 91,40.5C 93.6742,42.6822 95.8409,45.3488 97.5,48.5C 101.565,50.0699 104.898,52.5699 107.5,56C 107.167,56.3333 106.833,56.6667 106.5,57C 110.235,58.3351 112.735,60.8351 114,64.5C 114.333,64.1667 114.667,63.8333 115,63.5C 116.039,64.7101 117.206,65.7101 118.5,66.5C 118.815,70.3714 118.482,74.0381 117.5,77.5C 117.662,75.4727 117.495,73.4727 117,71.5C 116.667,71.8333 116.333,72.1667 116,72.5C 115.667,71.5 115.333,70.5 115,69.5C 114.667,69.8333 114.333,70.1667 114,70.5C 110.333,66.8333 106.667,63.1667 103,59.5C 102.333,60.1667 101.667,60.8333 101,61.5C 99.1759,60.2513 99.3426,59.0847 101.5,58C 100,56.5 98.5,55 97,53.5C 96.6667,53.8333 96.3333,54.1667 96,54.5C 92.6433,53.2577 92.81,52.4244 96.5,52C 94.5643,51.187 92.5643,50.687 90.5,50.5C 88.2636,47.7308 86.0969,44.7308 84,41.5C 83.2825,42.4506 82.4491,42.6172 81.5,42C 82.6341,40.984 82.3008,40.3173 80.5,40C 81.8331,38.1598 81.6665,37.6598 80,38.5C 78.8289,37.1068 77.3289,36.2735 75.5,36C 76.1667,35.6667 76.8333,35.3333 77.5,35C 72.8301,33.8366 70.1634,31.0032 69.5,26.5C 67.7741,26.8146 66.1075,26.9813 64.5,27C 67.112,24.8487 67.112,24.0153 64.5,24.5C 62.2244,22.051 59.5577,20.2177 56.5,19C 55.704,16.3984 54.3707,14.2318 52.5,12.5 Z"/></g>
<g><path style="opacity:0.999" fill="#565a5f" d="M 60.5,12.5 C 70.8333,12.5 81.1667,12.5 91.5,12.5C 94.1119,14.9489 96.6119,17.6156 99,20.5C 99.414,20.0426 99.914,19.7093 100.5,19.5C 104.188,25.0103 108.355,29.3436 113,32.5C 113.333,31.8333 113.667,31.1667 114,30.5C 114.332,33.5433 115.832,35.5433 118.5,36.5C 118.5,46.5 118.5,56.5 118.5,66.5C 117.206,65.7101 116.039,64.7101 115,63.5C 114.667,63.8333 114.333,64.1667 114,64.5C 112.735,60.8351 110.235,58.3351 106.5,57C 106.833,56.6667 107.167,56.3333 107.5,56C 104.898,52.5699 101.565,50.0699 97.5,48.5C 95.8409,45.3488 93.6742,42.6822 91,40.5C 90.2825,41.4506 89.4491,41.6172 88.5,41C 85.9219,35.6759 82.0885,31.5092 77,28.5C 76.5172,27.552 76.3505,26.552 76.5,25.5C 72.2834,25.7851 70.1168,23.7851 70,19.5C 68.6667,19.5 67.3333,19.5 66,19.5C 65.6827,17.6992 65.016,17.3659 64,18.5C 63.2874,16.1475 62.1207,14.1475 60.5,12.5 Z"/></g>
<g><path style="opacity:0.999" fill="#5c6065" d="M 91.5,12.5 C 100.5,12.5 109.5,12.5 118.5,12.5C 118.5,20.5 118.5,28.5 118.5,36.5C 115.832,35.5433 114.332,33.5433 114,30.5C 113.667,31.1667 113.333,31.8333 113,32.5C 108.355,29.3436 104.188,25.0103 100.5,19.5C 99.914,19.7093 99.414,20.0426 99,20.5C 96.6119,17.6156 94.1119,14.9489 91.5,12.5 Z"/></g>
<g><path style="opacity:0.999" fill="#44484c" d="M 16.5,23.5 C 19.7866,29.1132 24.4532,33.4465 30.5,36.5C 31.727,37.5904 32.5604,38.9238 33,40.5C 33.3333,40.1667 33.6667,39.8333 34,39.5C 37.5994,44.6055 41.7661,49.1055 46.5,53C 50.0272,54.0315 52.3606,56.1982 53.5,59.5C 54.675,59.281 55.675,59.6143 56.5,60.5C 62.429,67.1926 68.429,72.8592 74.5,77.5C 69.1667,77.5 63.8333,77.5 58.5,77.5C 56.3164,75.2492 53.9831,73.0826 51.5,71C 52.6734,67.8897 52.1734,67.723 50,70.5C 49.5172,69.552 49.3505,68.552 49.5,67.5C 46.6118,67.7804 45.1118,66.4471 45,63.5C 44.3333,64.1667 43.6667,64.8333 43,65.5C 43,64.1667 43,62.8333 43,61.5C 42.6667,61.8333 42.3333,62.1667 42,62.5C 39.8063,60.728 37.8063,58.728 36,56.5C 35.6667,56.8333 35.3333,57.1667 35,57.5C 35.2288,54.1897 33.7288,52.3563 30.5,52C 27.1485,49.6463 24.4819,46.6463 22.5,43C 21.1667,42.3333 19.8333,41.6667 18.5,41C 19.4119,39.3745 18.7453,38.5412 16.5,38.5C 16.5,33.5 16.5,28.5 16.5,23.5 Z"/></g>
<g><path style="opacity:0.999" fill="#404447" d="M 16.5,38.5 C 18.7453,38.5412 19.4119,39.3745 18.5,41C 19.8333,41.6667 21.1667,42.3333 22.5,43C 24.4819,46.6463 27.1485,49.6463 30.5,52C 33.7288,52.3563 35.2288,54.1897 35,57.5C 35.3333,57.1667 35.6667,56.8333 36,56.5C 37.8063,58.728 39.8063,60.728 42,62.5C 42.3333,62.1667 42.6667,61.8333 43,61.5C 43,62.8333 43,64.1667 43,65.5C 43.6667,64.8333 44.3333,64.1667 45,63.5C 45.1118,66.4471 46.6118,67.7804 49.5,67.5C 49.3505,68.552 49.5172,69.552 50,70.5C 52.1734,67.723 52.6734,67.8897 51.5,71C 53.9831,73.0826 56.3164,75.2492 58.5,77.5C 44.8333,77.5 31.1667,77.5 17.5,77.5C 16.5045,64.6774 16.1712,51.6774 16.5,38.5 Z"/></g>
<g><path style="opacity:0.898" fill="#9b9fa6" d="M 10.5,84.5 C 48.5,84.5 86.5,84.5 124.5,84.5C 124.5,86.1667 124.5,87.8333 124.5,89.5C 86.5,89.5 48.5,89.5 10.5,89.5C 10.5,87.8333 10.5,86.1667 10.5,84.5 Z"/></g>
</svg>
