<?xml version="1.0" encoding="UTF-8"?>
<!DOCTYPE svg PUBLIC "-//W3C//DTD SVG 1.1//EN" "http://www.w3.org/Graphics/SVG/1.1/DTD/svg11.dtd">
<svg xmlns="http://www.w3.org/2000/svg" version="1.1" width="96px" height="96px" style="shape-rendering:geometricPrecision; text-rendering:geometricPrecision; image-rendering:optimizeQuality; fill-rule:evenodd; clip-rule:evenodd" xmlns:xlink="http://www.w3.org/1999/xlink">
<g><path style="opacity:0.817" fill="#e8e8e8" d="M 40.5,-0.5 C 45.1667,-0.5 49.8333,-0.5 54.5,-0.5C 77.1937,4.19366 90.8603,17.8603 95.5,40.5C 95.5,45.1667 95.5,49.8333 95.5,54.5C 90.8063,77.1937 77.1397,90.8603 54.5,95.5C 49.8333,95.5 45.1667,95.5 40.5,95.5C 25.1256,92.2267 13.2923,83.8933 5,70.5C 2.53364,65.2601 0.700305,59.9268 -0.5,54.5C -0.5,49.8333 -0.5,45.1667 -0.5,40.5C 2.77333,25.1256 11.1067,13.2923 24.5,5C 29.7399,2.53364 35.0732,0.700305 40.5,-0.5 Z M 42.5,2.5 C 72.4402,2.79694 89.1068,17.7969 92.5,47.5C 89.8395,74.8272 74.8395,89.8272 47.5,92.5C 20.1728,89.8395 5.17285,74.8395 2.5,47.5C 4.63403,22.3741 17.9674,7.37411 42.5,2.5 Z M 46.5,40.5 C 51.2444,40.7434 53.9111,43.2434 54.5,48C 52.538,53.5394 48.8714,55.206 43.5,53C 39.465,47.6075 40.465,43.4408 46.5,40.5 Z"/></g>
<g><path style="opacity:0.958" fill="#14151a" d="M 27.5,30.5 C 40.8375,30.3334 54.1708,30.5001 67.5,31C 69,31.8333 70.1667,33 71,34.5C 71.6667,43.1667 71.6667,51.8333 71,60.5C 69.8333,61.6667 68.6667,62.8333 67.5,64C 54.1667,64.6667 40.8333,64.6667 27.5,64C 26.3333,62.8333 25.1667,61.6667 24,60.5C 23.3333,51.8333 23.3333,43.1667 24,34.5C 25.3756,33.2949 26.5423,31.9616 27.5,30.5 Z M 46.5,40.5 C 40.465,43.4408 39.465,47.6075 43.5,53C 48.8714,55.206 52.538,53.5394 54.5,48C 53.9111,43.2434 51.2444,40.7434 46.5,40.5 Z"/></g>
<g><path style="opacity:0.74" fill="#15151a" d="M 46.5,44.5 C 51.1309,45.5197 51.6309,47.5197 48,50.5C 44.1685,49.1984 43.6685,47.1984 46.5,44.5 Z"/></g>
</svg>
