<?xml version="1.0" encoding="UTF-8"?>
<!DOCTYPE svg PUBLIC "-//W3C//DTD SVG 1.1//EN" "http://www.w3.org/Graphics/SVG/1.1/DTD/svg11.dtd">
<svg xmlns="http://www.w3.org/2000/svg" version="1.1" width="96px" height="96px" style="shape-rendering:geometricPrecision; text-rendering:geometricPrecision; image-rendering:optimizeQuality; fill-rule:evenodd; clip-rule:evenodd" xmlns:xlink="http://www.w3.org/1999/xlink">
<g><path style="opacity:0.817" fill="#e8e8e8" d="M 40.5,-0.5 C 45.1667,-0.5 49.8333,-0.5 54.5,-0.5C 77.1937,4.19366 90.8603,17.8603 95.5,40.5C 95.5,45.1667 95.5,49.8333 95.5,54.5C 90.8063,77.1937 77.1397,90.8603 54.5,95.5C 49.8333,95.5 45.1667,95.5 40.5,95.5C 25.1256,92.2267 13.2923,83.8933 5,70.5C 2.53364,65.2601 0.700305,59.9268 -0.5,54.5C -0.5,49.8333 -0.5,45.1667 -0.5,40.5C 2.77333,25.1256 11.1067,13.2923 24.5,5C 29.7399,2.53364 35.0732,0.700305 40.5,-0.5 Z M 42.5,2.5 C 72.4402,2.79694 89.1068,17.7969 92.5,47.5C 89.8395,74.8272 74.8395,89.8272 47.5,92.5C 20.1728,89.8395 5.17285,74.8395 2.5,47.5C 4.63403,22.3741 17.9674,7.37411 42.5,2.5 Z"/></g>
<g><path style="opacity:0.936" fill="#14151a" d="M 54.5,28.5 C 59.0164,30.9358 63.0164,34.1025 66.5,38C 63.2391,41.6314 59.5724,44.798 55.5,47.5C 54.5258,45.2573 54.1924,42.924 54.5,40.5C 44.1667,40.5 33.8333,40.5 23.5,40.5C 23.5,38.8333 23.5,37.1667 23.5,35.5C 33.8333,35.5 44.1667,35.5 54.5,35.5C 54.5,33.1667 54.5,30.8333 54.5,28.5 Z"/></g>
<g><path style="opacity:0.935" fill="#14151a" d="M 38.5,47.5 C 40.3435,49.2789 41.0102,51.6122 40.5,54.5C 50.8333,54.5 61.1667,54.5 71.5,54.5C 71.5,56.1667 71.5,57.8333 71.5,59.5C 61.1667,59.5 50.8333,59.5 40.5,59.5C 40.8076,61.924 40.4742,64.2573 39.5,66.5C 35.4276,63.798 31.7609,60.6314 28.5,57C 31.7077,53.6237 35.041,50.4571 38.5,47.5 Z"/></g>
</svg>
