<?xml version="1.0" encoding="UTF-8"?>
<svg version="1.1" xmlns="http://www.w3.org/2000/svg" width="84" height="80">
<path d="M0 0 C27.72 0 55.44 0 84 0 C84 26.4 84 52.8 84 80 C56.28 80 28.56 80 0 80 C0 53.6 0 27.2 0 0 Z " fill="#1EA37B" transform="translate(0,0)"/>
<path d="M0 0 C11.55 0 23.1 0 35 0 C31 2 31 2 28.3359375 2.97265625 C17.75545733 6.86705462 10.61740262 12.53085226 4.875 22.3125 C0.42064052 32.12269647 -0.31728447 43.80562405 3.234375 54.07421875 C8.50807021 65.68890463 16.45315348 72.5934689 28.23828125 77.125 C30.81770183 77.94224216 33.33679384 78.53430275 36 79 C36 79.33 36 79.66 36 80 C24.12 80 12.24 80 0 80 C0 53.6 0 27.2 0 0 Z " fill="#FAFDFC" transform="translate(0,0)"/>
<path d="M0 0 C13.2 0 26.4 0 40 0 C40 2.97 40 5.94 40 9 C35.05 9 30.1 9 25 9 C25 13.62 25 18.24 25 23 C21.7 23 18.4 23 15 23 C15 18.38 15 13.76 15 9 C10.05 9 5.1 9 0 9 C0 6.03 0 3.06 0 0 Z " fill="#F4FAF9" transform="translate(22,20)"/>
<path d="M0 0 C0.33 0 0.66 0 1 0 C1 11.55 1 23.1 1 35 C-10.55 35 -22.1 35 -34 35 C-30.95484825 32.96989884 -28.39446414 32.08707449 -24.9375 30.9375 C-15.94323512 27.52830261 -8.76319973 21.60778605 -3.9609375 13.1953125 C-2.10463409 8.95448926 -1.01847468 4.50447338 0 0 Z " fill="#FAFCFC" transform="translate(83,45)"/>
<path d="M0 0 C12.21 0 24.42 0 37 0 C37 11.22 37 22.44 37 34 C36.67 34 36.34 34 36 34 C35.85304687 33.38253906 35.70609375 32.76507813 35.5546875 32.12890625 C32.74705125 21.52765904 27.14695389 13.21992864 18 7 C12.19986198 4.22721753 6.33828383 2.11506845 0 1 C0 0.67 0 0.34 0 0 Z " fill="#FAFDFC" transform="translate(47,0)"/>
<path d="M0 0 C-1.65 0.33 -3.3 0.66 -5 1 C-4.67 1.66 -4.34 2.32 -4 3 C2.45949832 5.13561993 8.5513937 5.30334206 15.3125 5.25 C16.28123047 5.25773437 17.24996094 5.26546875 18.24804688 5.2734375 C25.02287496 5.25535924 31.38023092 4.42228246 38 3 C38 2.01 38 1.02 38 0 C39.32 0.33 40.64 0.66 42 1 C41.8125 2.875 41.8125 2.875 41 5 C34.98611253 8.26468177 28.71807372 8 22 8 C22 14.27 22 20.54 22 27 C18.7 27 15.4 27 12 27 C12 20.73 12 14.46 12 8 C9.03 8 6.06 8 3 8 C-0.03125 7.484375 -0.03125 7.484375 -2.5 6.75 C-3.75296875 6.40195312 -3.75296875 6.40195312 -5.03125 6.046875 C-7 5 -7 5 -7.78125 2.890625 C-7.8534375 2.26671875 -7.925625 1.6428125 -8 1 C-4.93251126 -0.86240388 -3.40254489 -1.2151946 0 0 Z " fill="#F4FAF8" transform="translate(25,38)"/>
<path d="M0 0 C-1.65 0.33 -3.3 0.66 -5 1 C-4.67 1.66 -4.34 2.32 -4 3 C2.45949832 5.13561993 8.5513937 5.30334206 15.3125 5.25 C16.28123047 5.25773437 17.24996094 5.26546875 18.24804688 5.2734375 C25.02287496 5.25535924 31.38023092 4.42228246 38 3 C38 2.01 38 1.02 38 0 C39.32 0.33 40.64 0.66 42 1 C41.8125 2.875 41.8125 2.875 41 5 C33.70292575 8.96126888 24.79358224 8.21521694 16.75 8.25 C15.57308594 8.270625 14.39617188 8.29125 13.18359375 8.3125 C-1.14003116 8.37623137 -1.14003116 8.37623137 -7 5 C-7.76269531 2.89160156 -7.76269531 2.89160156 -8 1 C-4.93251126 -0.86240388 -3.40254489 -1.2151946 0 0 Z " fill="#D5EEE6" transform="translate(25,38)"/>
<path d="M0 0 C0.33 2.97 0.66 5.94 1 9 C-5.71700347 9.31985731 -10.75726932 8.4793824 -17 6 C-17 5.34 -17 4.68 -17 4 C-15.35 3.67 -13.7 3.34 -12 3 C-12 2.34 -12 1.68 -12 1 C-7.95858806 0.36605303 -4.0934693 -0.12404452 0 0 Z " fill="#2BA883" transform="translate(37,35)"/>
<path d="M0 0 C-1.65 0.33 -3.3 0.66 -5 1 C-4.20700294 3.17038477 -4.20700294 3.17038477 -2.15234375 3.6328125 C-1.42144531 3.79523437 -0.69054687 3.95765625 0.0625 4.125 C0.79597656 4.29257812 1.52945312 4.46015625 2.28515625 4.6328125 C2.85105469 4.75398438 3.41695312 4.87515625 4 5 C3.34 5.66 2.68 6.32 2 7 C-2.13830989 6.69903201 -4.51847024 6.32101984 -8 4 C-8 3.01 -8 2.02 -8 1 C-4.93251126 -0.86240388 -3.40254489 -1.2151946 0 0 Z " fill="#CBE9E0" transform="translate(25,38)"/>
</svg>
