<?xml version="1.0" standalone="no"?>
<!DOCTYPE svg PUBLIC "-//W3C//DTD SVG 20010904//EN"
 "http://www.w3.org/TR/2001/REC-SVG-20010904/DTD/svg10.dtd">
<svg version="1.0" xmlns="http://www.w3.org/2000/svg"
 width="70.000000pt" height="50.000000pt" viewBox="0 0 70.000000 50.000000"
 preserveAspectRatio="xMidYMid meet">

<g transform="translate(0.000000,50.000000) scale(0.100000,-0.100000)"
fill="#000000" stroke="none">
<path d="M5 467 c-3 -7 -4 -114 -3 -237 l3 -225 345 0 345 0 0 235 0 235 -343
3 c-272 2 -344 0 -347 -11z m158 -182 c15 -71 18 -72 41 -15 18 45 27 56 49
58 l27 3 -35 -81 c-44 -104 -42 -100 -70 -100 -25 0 -34 22 -61 132 -3 17 -16
31 -32 37 -23 9 -20 10 23 8 49 -2 49 -2 58 -42z m182 33 c-2 -7 -11 -48 -20
-90 -15 -73 -18 -78 -42 -78 -21 0 -24 4 -19 23 3 12 10 47 16 77 16 79 17 80
44 80 16 0 24 -5 21 -12z m135 -9 c0 -17 -5 -20 -24 -17 -36 7 -57 -10 -32
-25 58 -36 69 -64 36 -97 -27 -27 -123 -29 -118 -2 2 12 13 17 36 18 52 2 59
18 18 42 -64 38 -39 102 41 102 37 0 43 -3 43 -21z m130 14 c0 -5 9 -45 19
-90 l19 -83 -23 0 c-13 0 -25 7 -29 15 -3 8 -17 15 -31 15 -14 0 -28 -7 -31
-15 -6 -14 -54 -22 -54 -9 0 3 16 43 36 90 34 78 39 84 65 84 16 0 29 -3 29
-7z"/>
<path d="M560 244 c-13 -33 -13 -34 5 -34 10 0 15 10 15 30 0 37 -7 38 -20 4z"/>
</g>
</svg>
