<svg width="24" height="24" viewBox="0 0 24 24" fill="none" xmlns="http://www.w3.org/2000/svg">
<rect x="0.499947" y="0.3" width="23.2007" height="23.2007" rx="11.6004" transform="rotate(0.494205 0.499947 0.3)" stroke="#E9E9E9" strokeWidth="0.594891"/>
<path fillRule="evenodd" clipRule="evenodd" d="M9.6462 9.00474C9.65165 8.37366 9.90756 7.7706 10.3576 7.32821C10.8077 6.88582 11.4151 6.64035 12.0462 6.64579C12.6773 6.65123 13.2803 6.90715 13.7227 7.35724C14.1651 7.80732 14.4106 8.41471 14.4052 9.04579C14.3997 9.67687 14.1438 10.2799 13.6937 10.7223C13.2436 11.1647 12.6362 11.4102 12.0052 11.4047C11.3741 11.3993 10.771 11.1434 10.3286 10.6933C9.88623 10.2432 9.64076 9.63582 9.6462 9.00474ZM9.61542 12.574C8.82657 12.5671 8.06733 12.874 7.50472 13.427C6.94211 13.98 6.62222 14.7338 6.61542 15.5226C6.61133 15.9959 6.79544 16.4515 7.12723 16.7891C7.45902 17.1266 7.91132 17.3186 8.38463 17.3226L15.5231 17.3842C15.9964 17.3883 16.4519 17.2042 16.7895 16.8724C17.127 16.5406 17.319 16.0883 17.3231 15.615C17.3299 14.8262 17.023 14.0669 16.47 13.5043C15.917 12.9417 15.1632 12.6218 14.3744 12.615L9.61542 12.574Z" fill="#14151A"/>
</svg>
