<svg width="24" height="24" viewBox="0 0 24 24" fill="none" xmlns="http://www.w3.org/2000/svg">
<rect x="0.499947" y="0.3" width="23.2007" height="23.2007" rx="11.6004" transform="rotate(0.494205 0.499947 0.3)" stroke="#E9E9E9" strokeWidth="0.594891"/>
<path d="M15.5695 12.5951H12.5951V15.5695C12.5951 15.8967 12.3274 16.1644 12.0002 16.1644C11.673 16.1644 11.4053 15.8967 11.4053 15.5695V12.5951H8.43083C8.10364 12.5951 7.83594 12.3274 7.83594 12.0002C7.83594 11.673 8.10364 11.4053 8.43083 11.4053H11.4053V8.43083C11.4053 8.10364 11.673 7.83594 12.0002 7.83594C12.3274 7.83594 12.5951 8.10364 12.5951 8.43083V11.4053H15.5695C15.8967 11.4053 16.1644 11.673 16.1644 12.0002C16.1644 12.3274 15.8967 12.5951 15.5695 12.5951Z" fill="#14151A"/>
</svg>
