<svg width="20" height="20" viewBox="0 0 20 20" fill="none" xmlns="http://www.w3.org/2000/svg">
<path d="M15 0C15.5 0 15.8333 0.333334 15.8333 0.833334L15.8333 17.1667L18.5833 14.4167C18.9167 14.0833 19.4167 14.0833 19.75 14.4167C20.0833 14.75 20.0833 15.25 19.75 15.5833L15.5833 19.75C15.25 20.0833 14.75 20.0833 14.4167 19.75L10.25 15.5833C9.91667 15.25 9.91667 14.75 10.25 14.4167C10.5833 14.0833 11.0833 14.0833 11.4167 14.4167L14.1667 17.1667L14.1667 0.833334C14.1667 0.333334 14.5 0 15 0ZM5.83333 19.1667L5.83333 2.83333L8.58333 5.58333C8.91667 5.91667 9.41667 5.91667 9.75 5.58333C10.0833 5.25 10.0833 4.75 9.75 4.41667L5.58333 0.25C5.25 -0.083334 4.75 -0.083334 4.41667 0.25L0.25 4.41667C-0.0833333 4.75 -0.0833333 5.25 0.25 5.58333C0.583333 5.91667 1.08333 5.91667 1.41667 5.58333L4.16667 2.83333L4.16667 19.1667C4.16667 19.6667 4.5 20 5 20C5.5 20 5.83333 19.6667 5.83333 19.1667Z" fill="#4D4D4D"/>
</svg>
