<svg width="16" height="16" viewBox="0 0 16 16" fill="none" xmlns="http://www.w3.org/2000/svg">
    <path d="M10.1922 0.861972C10.0672 0.98699 9.99701 1.15653 9.99701 1.33331C9.99701 1.51008 10.0672 1.67962 10.1922 1.80464L12.3875 3.99997L1.99687 3.99997C1.82006 3.99997 1.65049 4.07021 1.52547 4.19523C1.40044 4.32026 1.3302 4.48983 1.3302 4.66664C1.3302 4.84345 1.40044 5.01302 1.52547 5.13804C1.65049 5.26307 1.82006 5.33331 1.99687 5.33331L12.3875 5.33331L10.1922 7.52864C10.0708 7.65437 10.0036 7.82278 10.0051 7.99757C10.0066 8.17237 10.0767 8.33958 10.2003 8.46319C10.3239 8.58679 10.4911 8.6569 10.6659 8.65842C10.8407 8.65994 11.0091 8.59274 11.1349 8.47131L14.4682 5.13797C14.5303 5.07605 14.5795 5.00248 14.6132 4.92148C14.6468 4.84049 14.6641 4.75366 14.6641 4.66597C14.6641 4.57828 14.6468 4.49145 14.6132 4.41046C14.5795 4.32947 14.5303 4.2559 14.4682 4.19397L11.1349 0.86064C11.0097 0.735835 10.84 0.665864 10.6633 0.666114C10.4865 0.666364 10.317 0.736814 10.1922 0.861972Z"
          fill="#14151A"/>
    <path d="M4.8594 7.52858L1.52606 10.8619C1.46385 10.924 1.41467 10.9979 1.3814 11.0792C1.31398 11.2423 1.31398 11.4255 1.3814 11.5886C1.41467 11.6699 1.46385 11.7438 1.52606 11.8059L4.8594 15.1392C4.92089 15.2029 4.99446 15.2537 5.07579 15.2886C5.15713 15.3236 5.24461 15.342 5.33313 15.3427C5.42165 15.3435 5.50943 15.3266 5.59136 15.2931C5.6733 15.2596 5.74773 15.2101 5.81033 15.1475C5.87292 15.0849 5.92242 15.0105 5.95594 14.9286C5.98946 14.8466 6.00633 14.7588 6.00556 14.6703C6.00479 14.5818 5.9864 14.4943 5.95146 14.413C5.91652 14.3316 5.86574 14.2581 5.80206 14.1966L3.60673 11.9999L13.9974 11.9999C14.1742 11.9999 14.3438 11.9297 14.4688 11.8047C14.5938 11.6796 14.6641 11.5101 14.6641 11.3332C14.6641 11.1564 14.5938 10.9869 14.4688 10.8618C14.3438 10.7368 14.1742 10.6666 13.9974 10.6666L3.60673 10.6666L5.80206 8.47125C5.9235 8.34551 5.9907 8.17711 5.98918 8.00231C5.98766 7.82752 5.91755 7.66031 5.79394 7.5367C5.67034 7.4131 5.50313 7.34298 5.32833 7.34146C5.15353 7.33995 4.98513 7.40714 4.8594 7.52858Z"
          fill="#14151A"/>
</svg>
