<svg width="24" height="24" viewBox="0 0 24 24" fill="none" xmlns="http://www.w3.org/2000/svg">
<path fillRule="evenodd" clipRule="evenodd" d="M20.5307 11.4692C20.6711 11.6098 20.75 11.8004 20.75 11.9992C20.75 12.1979 20.6711 12.3886 20.5307 12.5292L14.5307 18.5292C14.462 18.6029 14.3792 18.662 14.2872 18.703C14.1952 18.7439 14.0959 18.766 13.9952 18.7678C13.8945 18.7695 13.7944 18.751 13.7011 18.7133C13.6077 18.6756 13.5228 18.6194 13.4516 18.5482C13.3804 18.477 13.3243 18.3922 13.2865 18.2988C13.2488 18.2054 13.2303 18.1054 13.2321 18.0047C13.2338 17.904 13.2559 17.8046 13.2969 17.7126C13.3379 17.6206 13.397 17.5378 13.4707 17.4692L18.1907 12.7492L4.00066 12.7492C3.80175 12.7492 3.61098 12.6702 3.47033 12.5295C3.32968 12.3889 3.25066 12.1981 3.25066 11.9992C3.25066 11.8003 3.32968 11.6095 3.47033 11.4688C3.61098 11.3282 3.80175 11.2492 4.00066 11.2492L18.1907 11.2492L13.4707 6.52918C13.397 6.46051 13.3379 6.37771 13.2969 6.28571C13.2559 6.19372 13.2338 6.0944 13.2321 5.9937C13.2303 5.893 13.2488 5.79297 13.2865 5.69958C13.3243 5.60619 13.3804 5.52136 13.4516 5.45014C13.5228 5.37892 13.6077 5.32277 13.7011 5.28505C13.7945 5.24733 13.8945 5.22881 13.9952 5.23059C14.0959 5.23236 14.1952 5.2544 14.2872 5.2954C14.3792 5.33639 14.462 5.39549 14.5307 5.46918L20.5307 11.4692Z" fill="#4D4D4D"/>
</svg>
