<svg width="24" height="24" viewBox="0 0 24 24" fill="none" xmlns="http://www.w3.org/2000/svg">
<rect x="0.499947" y="0.3" width="23.2007" height="23.2007" rx="11.6004" transform="rotate(0.494205 0.499947 0.3)" stroke="#E9E9E9" strokeWidth="0.594891"/>
<mask id="mask0_2080_8337" style="mask-type:luminance" maskUnits="userSpaceOnUse" x="6" y="7" width="12" height="10">
<path d="M13.1896 7.24023H10.8101C8.56672 7.24023 7.44476 7.24023 6.74814 7.93745C6.24605 8.43894 6.10566 9.16114 6.0664 10.3634H17.9333C17.894 9.16114 17.7536 8.43894 17.2515 7.93745C16.5549 7.24023 15.433 7.24023 13.1896 7.24023ZM10.8101 16.7585H13.1896C15.433 16.7585 16.5549 16.7585 17.2515 16.0613C17.9482 15.3641 17.9487 14.2427 17.9487 11.9994C17.9487 11.7368 17.9484 11.4889 17.9476 11.2557H6.05212C6.05093 11.4889 6.05053 11.7368 6.05093 11.9994C6.05093 14.2427 6.05093 15.3647 6.74814 16.0613C7.44535 16.7579 8.56672 16.7585 10.8101 16.7585Z" fill="white"/>
<path fillRule="evenodd" clipRule="evenodd" d="M7.98438 14.3798C7.98438 14.2614 8.03138 14.1479 8.11505 14.0643C8.19873 13.9806 8.31221 13.9336 8.43054 13.9336H10.8101C10.9284 13.9336 11.0419 13.9806 11.1256 14.0643C11.2093 14.1479 11.2563 14.2614 11.2563 14.3798C11.2563 14.4981 11.2093 14.6116 11.1256 14.6953C11.0419 14.7789 10.9284 14.8259 10.8101 14.8259H8.43054C8.31221 14.8259 8.19873 14.7789 8.11505 14.6953C8.03138 14.6116 7.98438 14.4981 7.98438 14.3798ZM11.8512 14.3798C11.8512 14.2614 11.8982 14.1479 11.9818 14.0643C12.0655 13.9806 12.179 13.9336 12.2973 13.9336H13.1897C13.308 13.9336 13.4215 13.9806 13.5052 14.0643C13.5888 14.1479 13.6358 14.2614 13.6358 14.3798C13.6358 14.4981 13.5888 14.6116 13.5052 14.6953C13.4215 14.7789 13.308 14.8259 13.1897 14.8259H12.2973C12.179 14.8259 12.0655 14.7789 11.9818 14.6953C11.8982 14.6116 11.8512 14.4981 11.8512 14.3798Z" fill="black"/>
</mask>
<g mask="url(#mask0_2080_8337)">
<path d="M4.85742 4.86133H19.1348V19.1387H4.85742V4.86133Z" fill="#14151A"/>
</g>
</svg>
