<svg width="17" height="16" viewBox="0 0 17 16" fill="none" xmlns="http://www.w3.org/2000/svg">
<path fill-rule="evenodd" clip-rule="evenodd" d="M13.2149 12.7158C11.1775 14.7535 8.1605 15.1937 5.6916 14.052C5.32712 13.9052 5.02831 13.7866 4.74423 13.7866C3.95298 13.7913 2.96809 14.5585 2.45622 14.0473C1.94435 13.5353 2.71216 12.5497 2.71216 11.7536C2.71216 11.4695 2.59826 11.176 2.45153 10.8109C1.3092 8.34235 1.75006 5.3244 3.78749 3.28741C6.38838 0.685559 10.614 0.685559 13.2149 3.28674C15.8205 5.89261 15.8158 10.1147 13.2149 12.7158Z" stroke="white" stroke-linecap="round" stroke-linejoin="round"/>
<path d="M11.1272 8.27865H11.1332" stroke="white" stroke-width="1.33333" stroke-linecap="round" stroke-linejoin="round"/>
<path d="M8.45436 8.27865H8.46036" stroke="white" stroke-width="1.33333" stroke-linecap="round" stroke-linejoin="round"/>
<path d="M5.78151 8.27865H5.78751" stroke="white" stroke-width="1.33333" stroke-linecap="round" stroke-linejoin="round"/>
</svg>
