<svg width="100" height="100" viewBox="0 0 100 100" fill="none" xmlns="http://www.w3.org/2000/svg">
<g clipPath="url(#clip0_2095_46160)">
<rect width="100" height="100" rx="50" fill="white"/>
<path d="M52.2371 -9.13965C41.4133 -9.13965 30.8325 -5.67115 21.8328 0.827182C12.8331 7.32557 5.81865 16.5619 1.67656 27.3683C-2.46553 38.1747 -3.54933 50.0657 -1.43767 61.5378C0.673923 73.0098 5.88611 83.5475 13.5397 91.8184C21.1934 100.089 30.9447 105.722 41.5605 108.003C52.1764 110.286 63.1799 109.114 73.1799 104.638C83.1799 100.162 91.7272 92.5819 97.7406 82.8566C103.754 73.1308 106.963 61.6969 106.963 50.0001C106.963 34.3153 101.198 19.2729 90.9346 8.18202C80.6714 -2.90884 66.7515 -9.13965 52.2371 -9.13965ZM77.9088 37.8496L48.3565 69.7851C47.4296 70.7781 46.1789 71.3383 44.8739 71.3442C44.2192 71.3485 43.5699 71.2125 42.964 70.9453C42.358 70.6776 41.8065 70.2835 41.3416 69.7851L26.4162 53.6561C25.9499 53.1561 25.5798 52.5614 25.3272 51.9066C25.0746 51.2512 24.9446 50.5485 24.9446 49.8389C24.9446 49.1292 25.0746 48.4265 25.3272 47.7711C25.5798 47.1163 25.9499 46.5217 26.4162 46.0217C27.3484 45.02 28.6093 44.4582 29.9237 44.4582C31.2381 44.4582 32.499 45.02 33.4312 46.0217L44.7247 58.226L70.7446 30.0539C71.6769 29.0526 72.9376 28.4905 74.252 28.4905C75.5665 28.4905 76.8272 29.0526 77.7595 30.0539C78.2585 30.5451 78.66 31.1409 78.9391 31.8051C79.2182 32.4693 79.3689 33.1878 79.3834 33.9171C79.3973 34.6464 79.2734 35.3711 79.0202 36.0472C78.7665 36.7233 78.3884 37.3365 77.9088 37.8496Z" fill="#14151A"/>
</g>
<defs>
<clipPath id="clip0_2095_46160">
<rect width="100" height="100" rx="50" fill="white"/>
</clipPath>
</defs>
</svg>
