<svg width="80" height="80" viewBox="0 0 80 80" fill="none" xmlns="http://www.w3.org/2000/svg">
<g clipPath="url(#clip0_2090_44034)">
<rect x="0.799805" y="0.799805" width="78.4" height="78.4" rx="39.2" fill="#3A3A3A"/>
<path d="M41.7541 -6.36621C33.2682 -6.36621 24.9729 -3.64691 17.9171 1.44778C10.8613 6.54252 5.36203 13.7838 2.11463 22.256C-1.13276 30.7282 -1.98246 40.0508 -0.326922 49.0449C1.32857 58.039 5.41492 66.3005 11.4154 72.7849C17.4158 79.2694 25.0608 83.6851 33.3837 85.4739C41.7065 87.2632 50.3332 86.3447 58.1732 82.8357C66.0132 79.3263 72.7143 73.3835 77.4288 65.7588C82.1434 58.1338 84.6596 49.1697 84.6596 39.9994C84.6596 27.7025 80.1393 15.9092 72.093 7.21398C64.0466 -1.48126 53.1334 -6.36621 41.7541 -6.36621ZM61.8807 30.4734L38.7117 55.5108C37.9851 56.2893 37.0045 56.7285 35.9814 56.7332C35.4681 56.7365 34.959 56.6299 34.484 56.4204C34.0089 56.2105 33.5765 55.9015 33.2121 55.5108L21.5105 42.8656C21.145 42.4736 20.8548 42.0074 20.6567 41.494C20.4587 40.9802 20.3568 40.4293 20.3568 39.8729C20.3568 39.3165 20.4587 38.7656 20.6567 38.2518C20.8548 37.7384 21.145 37.2722 21.5105 36.8802C22.2414 36.095 23.2299 35.6545 24.2604 35.6545C25.2908 35.6545 26.2794 36.095 27.0103 36.8802L35.8643 46.4484L56.264 24.3615C56.9949 23.5765 57.9833 23.1358 59.0138 23.1358C60.0443 23.1358 61.0327 23.5765 61.7637 24.3615C62.1549 24.7467 62.4697 25.2138 62.6885 25.7345C62.9073 26.2552 63.0255 26.8185 63.0368 27.3903C63.0477 27.962 62.9506 28.5302 62.752 29.0603C62.5531 29.5903 62.2567 30.0711 61.8807 30.4734Z" fill="url(#paint0_linear_2090_44034)"/>
</g>
<defs>
<linearGradient id="paint0_linear_2090_44034" x1="36.0334" y1="21.1097" x2="89.7867" y2="91.0084" gradientUnits="userSpaceOnUse">
<stop stop-color="white"/>
<stop offset="1" stop-color="#DFDFDF"/>
</linearGradient>
<clipPath id="clip0_2090_44034">
<rect x="0.799805" y="0.799805" width="78.4" height="78.4" rx="39.2" fill="white"/>
</clipPath>
</defs>
</svg>
