<svg width="24" height="25" viewBox="0 0 24 25" fill="none" xmlns="http://www.w3.org/2000/svg">
<path d="M15.24 2.63025H11.346C9.582 2.63025 8.184 2.63025 7.091 2.77825C5.965 2.93025 5.054 3.25025 4.336 3.97125C3.617 4.69225 3.298 5.60725 3.147 6.73725C3 7.83525 3 9.23825 3 11.0092V16.8472C3 18.3552 3.92 19.6472 5.227 20.1892C5.16 19.2792 5.16 18.0042 5.16 16.9422V11.9322C5.16 10.6512 5.16 9.54625 5.278 8.66225C5.405 7.71425 5.691 6.80625 6.425 6.06925C7.159 5.33225 8.064 5.04525 9.008 4.91725C9.888 4.79925 10.988 4.79925 12.265 4.79925H15.335C16.611 4.79925 17.709 4.79925 18.59 4.91725C18.326 4.24362 17.8652 3.66514 17.2676 3.25721C16.6701 2.84927 15.9635 2.63079 15.24 2.63025Z" fill="#14151A"/>
<path d="M6.60156 12.0275C6.60156 9.30151 6.60156 7.93851 7.44556 7.09151C8.28856 6.24451 9.64556 6.24451 12.3616 6.24451H15.2416C17.9566 6.24451 19.3146 6.24451 20.1586 7.09151C21.0016 7.93851 21.0016 9.30151 21.0016 12.0275V16.8475C21.0016 19.5735 21.0016 20.9365 20.1586 21.7835C19.3146 22.6305 17.9566 22.6305 15.2416 22.6305H12.3616C9.64656 22.6305 8.28856 22.6305 7.44556 21.7835C6.60156 20.9365 6.60156 19.5735 6.60156 16.8475V12.0275Z" fill="#14151A"/>
</svg>
