<svg width="24" height="24" viewBox="0 0 24 24" fill="none" xmlns="http://www.w3.org/2000/svg">
<rect x="0.499947" y="0.3" width="23.2007" height="23.2007" rx="11.6004" transform="rotate(0.494205 0.499947 0.3)" stroke="#E9E9E9" strokeWidth="0.594891"/>
<path d="M9.47456 12.8204V16.8835C9.47456 17.1264 9.37803 17.3595 9.20623 17.5313C9.03442 17.7031 8.8014 17.7996 8.55842 17.7996H7.48167C7.36086 17.8004 7.24109 17.7773 7.12925 17.7316C7.01742 17.6859 6.91572 17.6185 6.83002 17.5334C6.74432 17.4482 6.6763 17.347 6.62989 17.2354C6.58348 17.1239 6.55959 17.0043 6.55959 16.8835V12.8204C6.5588 12.699 6.58211 12.5788 6.62817 12.4666C6.67423 12.3543 6.74212 12.2524 6.8279 12.1666C6.91368 12.0808 7.01564 12.0129 7.12787 11.9669C7.2401 11.9208 7.36036 11.8975 7.48167 11.8983H8.55842C8.67923 11.8983 8.79885 11.9222 8.91039 11.9686C9.02193 12.015 9.12319 12.083 9.20834 12.1687C9.29349 12.2544 9.36085 12.3561 9.40653 12.4679C9.45222 12.5798 9.47534 12.6995 9.47456 12.8204ZM13.4603 7.1213V16.8835C13.4603 17.0043 13.4364 17.1239 13.39 17.2354C13.3436 17.347 13.2756 17.4482 13.1899 17.5334C13.1042 17.6185 13.0025 17.6859 12.8907 17.7316C12.7788 17.7773 12.6591 17.8004 12.5382 17.7996H11.4615C11.218 17.7996 10.9843 17.7033 10.8116 17.5316C10.6388 17.36 10.541 17.127 10.5394 16.8835V7.1213C10.541 6.87723 10.6386 6.6436 10.8112 6.47101C10.9838 6.29843 11.2174 6.20078 11.4615 6.19922H12.5382C12.7828 6.19922 13.0173 6.29637 13.1903 6.46929C13.3632 6.64221 13.4603 6.87675 13.4603 7.1213ZM17.4401 10.2028V16.8835C17.4401 17.1264 17.3436 17.3595 17.1718 17.5313C17 17.7031 16.767 17.7996 16.524 17.7996H15.4473C15.3265 17.8004 15.2067 17.7773 15.0948 17.7316C14.983 17.6859 14.8813 17.6185 14.7956 17.5334C14.7099 17.4482 14.6419 17.347 14.5955 17.2354C14.5491 17.1239 14.5252 17.0043 14.5252 16.8835V10.2028C14.5252 10.0817 14.549 9.96184 14.5954 9.84997C14.6417 9.7381 14.7096 9.63645 14.7953 9.55083C14.8809 9.4652 14.9825 9.39728 15.0944 9.35094C15.2063 9.3046 15.3262 9.28075 15.4473 9.28075H16.5478C16.7872 9.28848 17.0141 9.38903 17.1807 9.56112C17.3472 9.73321 17.4403 9.96335 17.4401 10.2028Z" fill="#14151A"/>
</svg>
