<svg width="20" height="20" viewBox="0 0 20 20" fill="none" xmlns="http://www.w3.org/2000/svg">
<path d="M12.4993 18.9587H7.49935C2.97435 18.9587 1.04102 17.0253 1.04102 12.5003V7.50033C1.04102 2.97533 2.97435 1.04199 7.49935 1.04199H11.666C12.0077 1.04199 12.291 1.32533 12.291 1.66699C12.291 2.00866 12.0077 2.29199 11.666 2.29199H7.49935C3.65768 2.29199 2.29102 3.65866 2.29102 7.50033V12.5003C2.29102 16.342 3.65768 17.7087 7.49935 17.7087H12.4993C16.341 17.7087 17.7077 16.342 17.7077 12.5003V8.33366C17.7077 7.99199 17.991 7.70866 18.3327 7.70866C18.6744 7.70866 18.9577 7.99199 18.9577 8.33366V12.5003C18.9577 17.0253 17.0243 18.9587 12.4993 18.9587Z" fill="#14151A"/>
<path d="M18.3327 8.95841H14.9993C12.1493 8.95841 11.041 7.85007 11.041 5.00007V1.66674C11.041 1.41674 11.191 1.18341 11.4243 1.09174C11.6577 0.991739 11.9243 1.05007 12.1077 1.22507L18.7743 7.89174C18.9493 8.06674 19.0077 8.34174 18.9077 8.57507C18.8077 8.8084 18.5827 8.95841 18.3327 8.95841ZM12.291 3.17507V5.00007C12.291 7.15007 12.8493 7.70841 14.9993 7.70841H16.8243L12.291 3.17507Z" fill="#14151A"/>
<path d="M10.834 11.458H5.83398C5.49232 11.458 5.20898 11.1747 5.20898 10.833C5.20898 10.4913 5.49232 10.208 5.83398 10.208H10.834C11.1757 10.208 11.459 10.4913 11.459 10.833C11.459 11.1747 11.1757 11.458 10.834 11.458Z" fill="#14151A"/>
<path d="M9.16732 14.792H5.83398C5.49232 14.792 5.20898 14.5087 5.20898 14.167C5.20898 13.8253 5.49232 13.542 5.83398 13.542H9.16732C9.50898 13.542 9.79232 13.8253 9.79232 14.167C9.79232 14.5087 9.50898 14.792 9.16732 14.792Z" fill="#14151A"/>
</svg>
