<svg width="20" height="20" viewBox="0 0 20 20" fill="none" xmlns="http://www.w3.org/2000/svg">
<path d="M12.4993 18.9577H7.49935C2.97435 18.9577 1.04102 17.0243 1.04102 12.4993V7.49935C1.04102 2.97435 2.97435 1.04102 7.49935 1.04102H11.666C12.0077 1.04102 12.291 1.32435 12.291 1.66602C12.291 2.00768 12.0077 2.29102 11.666 2.29102H7.49935C3.65768 2.29102 2.29102 3.65768 2.29102 7.49935V12.4993C2.29102 16.341 3.65768 17.7077 7.49935 17.7077H12.4993C16.341 17.7077 17.7077 16.341 17.7077 12.4993V8.33268C17.7077 7.99102 17.991 7.70768 18.3327 7.70768C18.6744 7.70768 18.9577 7.99102 18.9577 8.33268V12.4993C18.9577 17.0243 17.0243 18.9577 12.4993 18.9577Z" fill="#E6483D"/>
<path d="M18.3327 8.95841H14.9993C12.1493 8.95841 11.041 7.85007 11.041 5.00007V1.66674C11.041 1.41674 11.191 1.18341 11.4243 1.09174C11.6577 0.991739 11.9243 1.05007 12.1077 1.22507L18.7743 7.89174C18.9493 8.06674 19.0077 8.34174 18.9077 8.57507C18.8077 8.8084 18.5827 8.95841 18.3327 8.95841ZM12.291 3.17507V5.00007C12.291 7.15007 12.8493 7.70841 14.9993 7.70841H16.8243L12.291 3.17507Z" fill="#E6483D"/>
<path d="M10.834 11.459H5.83398C5.49232 11.459 5.20898 11.1757 5.20898 10.834C5.20898 10.4923 5.49232 10.209 5.83398 10.209H10.834C11.1757 10.209 11.459 10.4923 11.459 10.834C11.459 11.1757 11.1757 11.459 10.834 11.459Z" fill="#E6483D"/>
<path d="M9.16732 14.791H5.83398C5.49232 14.791 5.20898 14.5077 5.20898 14.166C5.20898 13.8243 5.49232 13.541 5.83398 13.541H9.16732C9.50898 13.541 9.79232 13.8243 9.79232 14.166C9.79232 14.5077 9.50898 14.791 9.16732 14.791Z" fill="#E6483D"/>
</svg>
