<svg width="500" height="220" viewBox="0 0 500 220" fill="none" xmlns="http://www.w3.org/2000/svg">
<path d="M192.8 114.4C192.802 120.234 195.121 125.828 199.246 129.954C203.371 134.079 208.966 136.398 214.8 136.4H285.2C291.034 136.398 296.629 134.079 300.754 129.954C304.88 125.828 307.198 120.234 307.2 114.4V26.3998C307.198 20.5657 304.88 14.9711 300.754 10.8457C296.629 6.7204 291.034 4.40187 285.2 4.39977H239.704C236.86 4.36703 234.041 4.93685 231.432 6.07177C231.128 6.11898 230.832 6.20781 230.552 6.33577C228.152 7.46116 225.976 9.01146 224.128 10.9118L199.312 35.7278C198.345 36.6193 197.488 37.6238 196.76 38.7198C195.97 39.7916 195.292 40.9417 194.736 42.1518C194.608 42.4316 194.519 42.7277 194.472 43.0318C193.337 45.6402 192.767 48.4593 192.8 51.3038V114.4ZM276.4 110H223.6C222.433 110 221.314 109.536 220.489 108.711C219.664 107.886 219.2 106.767 219.2 105.6C219.2 104.433 219.664 103.314 220.489 102.488C221.314 101.663 222.433 101.2 223.6 101.2H276.4C277.567 101.2 278.686 101.663 279.511 102.488C280.337 103.314 280.8 104.433 280.8 105.6C280.8 106.767 280.337 107.886 279.511 108.711C278.686 109.536 277.567 110 276.4 110ZM276.4 87.9998H223.6C222.433 87.9998 221.314 87.5362 220.489 86.711C219.664 85.8859 219.2 84.7667 219.2 83.5998C219.2 82.4328 219.664 81.3137 220.489 80.4885C221.314 79.6633 222.433 79.1998 223.6 79.1998H276.4C277.567 79.1998 278.686 79.6633 279.511 80.4885C280.337 81.3137 280.8 82.4328 280.8 83.5998C280.8 84.7667 280.337 85.8859 279.511 86.711C278.686 87.5362 277.567 87.9998 276.4 87.9998ZM241.2 57.1998H276.4C277.567 57.1998 278.686 57.6633 279.511 58.4885C280.337 59.3137 280.8 60.4328 280.8 61.5998C280.8 62.7667 280.337 63.8859 279.511 64.711C278.686 65.5362 277.567 65.9998 276.4 65.9998H241.2C240.033 65.9998 238.914 65.5362 238.089 64.711C237.264 63.8859 236.8 62.7667 236.8 61.5998C236.8 60.4328 237.264 59.3137 238.089 58.4885C238.914 57.6633 240.033 57.1998 241.2 57.1998ZM202.744 45.8478C203.415 44.3785 204.338 43.0382 205.472 41.8878L207.848 39.5998H223.6C224.18 39.6055 224.754 39.4957 225.291 39.2766C225.827 39.0575 226.315 38.7336 226.724 38.3239C227.134 37.9142 227.458 37.4268 227.677 36.8904C227.896 36.3539 228.006 35.7792 228 35.1998V19.4478L230.288 17.0718C231.439 15.9379 232.779 15.0146 234.248 14.3438C235.065 13.9591 235.92 13.664 236.8 13.4638V35.1998C236.802 36.9339 236.463 38.6514 235.8 40.2539C235.138 41.8565 234.165 43.3125 232.939 44.5387C231.713 45.7649 230.257 46.7372 228.654 47.3997C227.052 48.0622 225.334 48.4021 223.6 48.3998H201.864C202.064 47.5198 202.359 46.6641 202.744 45.8478Z" fill="#14151A"/>
<g clip-path="url(#clip0_1_92514)">
<rect x="210.801" y="140.8" width="78.4" height="78.4" rx="39.2" fill="#3A3A3A"/>
<path d="M251.755 133.634C243.269 133.634 234.974 136.353 227.918 141.448C220.862 146.543 215.363 153.784 212.116 162.256C208.868 170.728 208.019 180.051 209.674 189.045C211.33 198.039 215.416 206.3 221.416 212.785C227.417 219.269 235.062 223.685 243.385 225.474C251.707 227.263 260.334 226.345 268.174 222.836C276.014 219.326 282.715 213.383 287.43 205.759C292.144 198.134 294.661 189.17 294.661 179.999C294.661 167.702 290.14 155.909 282.094 147.214C274.048 138.519 263.134 133.634 251.755 133.634ZM271.882 170.473L248.713 195.511C247.986 196.289 247.005 196.729 245.982 196.733C245.469 196.737 244.96 196.63 244.485 196.42C244.01 196.21 243.577 195.902 243.213 195.511L231.511 182.866C231.146 182.474 230.856 182.007 230.658 181.494C230.46 180.98 230.358 180.429 230.358 179.873C230.358 179.317 230.46 178.766 230.658 178.252C230.856 177.738 231.146 177.272 231.511 176.88C232.242 176.095 233.231 175.655 234.261 175.655C235.292 175.655 236.28 176.095 237.011 176.88L245.865 186.448L266.265 164.362C266.996 163.576 267.984 163.136 269.015 163.136C270.045 163.136 271.034 163.576 271.765 164.362C272.156 164.747 272.471 165.214 272.689 165.734C272.908 166.255 273.026 166.819 273.038 167.39C273.049 167.962 272.952 168.53 272.753 169.06C272.554 169.59 272.258 170.071 271.882 170.473Z" fill="url(#paint0_linear_1_92514)"/>
</g>
<defs>
<linearGradient id="paint0_linear_1_92514" x1="246.034" y1="161.11" x2="299.788" y2="231.008" gradientUnits="userSpaceOnUse">
<stop stop-color="white"/>
<stop offset="1" stop-color="#DFDFDF"/>
</linearGradient>
<clipPath id="clip0_1_92514">
<rect x="210.801" y="140.8" width="78.4" height="78.4" rx="39.2" fill="white"/>
</clipPath>
</defs>
</svg>
