<svg width="24" height="24" viewBox="0 0 24 24" fill="none" xmlns="http://www.w3.org/2000/svg">
    <rect width="24" height="24" rx="12" fill="#E4E4E8"/>
    <path d="M12.1479 3.02742V3.03656C12.157 3.08227 12.157 3.13712 12.157 3.19196V9.78271C12.1479 9.81927 12.1205 9.82841 12.093 9.84669C11.9011 9.93811 11.7182 10.0204 11.5263 10.1026C11.2612 10.2215 10.987 10.3495 10.7219 10.4683L9.76205 10.9071C9.49696 11.0259 9.23186 11.1447 8.97591 11.2636C8.66512 11.4098 8.34518 11.5469 8.03438 11.6932C7.76929 11.812 7.50419 11.94 7.22996 12.0588C7.01057 12.1594 6.79119 12.2508 6.58094 12.3514C6.56266 12.3605 6.54438 12.3696 6.52609 12.3696C6.51695 12.3696 6.51695 12.3696 6.50781 12.3605L6.75462 11.9492C7.22996 11.163 7.69616 10.386 8.1715 9.59988C8.67426 8.7589 9.18616 7.91792 9.68892 7.07694C10.1551 6.29994 10.6305 5.52295 11.0967 4.74595C11.4349 4.1792 11.7822 3.61245 12.1205 3.04571C12.1296 3.02742 12.1387 3.01828 12.1387 3H12.1479C12.1387 3.00914 12.1479 3.01828 12.1479 3.02742Z"
          fill="#8A92B2"/>
    <path d="M17.7637 12.3603L17.7729 12.3694L16.4291 13.1647L12.2059 15.6602C12.1877 15.6694 12.1694 15.6785 12.1602 15.6877C12.1328 15.6877 12.1328 15.6602 12.1328 15.6511V15.5688V9.91963C12.1328 9.8922 12.1328 9.85564 12.142 9.82822C12.1511 9.79165 12.1785 9.80079 12.2059 9.80993C12.3248 9.86478 12.4528 9.91963 12.5716 9.97447C12.9281 10.139 13.2846 10.3036 13.6411 10.459C13.9519 10.5961 14.2536 10.7423 14.5643 10.8794C14.8751 11.0166 15.1859 11.1628 15.4967 11.2999C15.7618 11.4188 16.0361 11.5467 16.3012 11.6656C16.5663 11.7844 16.8405 11.9124 17.1056 12.0312C17.3158 12.1226 17.5261 12.2232 17.7363 12.3146C17.7363 12.342 17.7455 12.3512 17.7637 12.3603Z"
          fill="#454A75"/>
    <path d="M12.1479 21.3641C12.1479 21.3732 12.1387 21.3824 12.1387 21.3915H12.1296C12.1296 21.3732 12.1113 21.3641 12.1022 21.3458C11.5354 20.5505 10.9687 19.7461 10.4019 18.9508C9.82604 18.1373 9.24101 17.3146 8.66512 16.501C8.10751 15.7149 7.54076 14.9196 6.98315 14.1335C6.83689 13.9232 6.69063 13.7221 6.54438 13.5119C6.53524 13.4936 6.52609 13.4845 6.50781 13.457C6.53524 13.457 6.55352 13.4753 6.56266 13.4845C7.35794 13.9507 8.14407 14.4168 8.93935 14.883C9.85346 15.4224 10.7584 15.9617 11.6725 16.501L12.1387 16.7753C12.157 16.7935 12.157 16.8118 12.157 16.8301V21.2361C12.157 21.2818 12.157 21.3275 12.1479 21.3641Z"
          fill="#8A92B2"/>
    <path d="M6.5 12.3787V12.3696C6.79252 12.2416 7.07589 12.1045 7.36841 11.9765C7.74319 11.8028 8.11798 11.6383 8.49276 11.4646C8.77614 11.3366 9.06865 11.1995 9.35203 11.0715C9.77252 10.8796 10.1839 10.6967 10.6044 10.5048C10.8877 10.3768 11.1711 10.2488 11.4636 10.1117C11.6647 10.0203 11.875 9.92888 12.0761 9.83747C12.0944 9.82833 12.1218 9.81919 12.1309 9.8009C12.1401 9.8009 12.1401 9.81004 12.1309 9.81919V15.6238C12.1309 15.6512 12.1218 15.6786 12.1401 15.6969C12.1218 15.7243 12.1035 15.6969 12.0944 15.6878C12.0121 15.6421 11.9298 15.5964 11.8476 15.5415C10.0833 14.4994 8.30994 13.4482 6.54571 12.4061C6.53656 12.397 6.51828 12.3878 6.5 12.3787Z"
          fill="#62688F"/>
    <path d="M17.7441 13.457H17.7533C17.7533 13.4753 17.735 13.4936 17.7258 13.5119C16.0439 15.8794 14.3619 18.2561 12.68 20.6237C12.5063 20.8705 12.3234 21.1173 12.1498 21.3641C12.1406 21.355 12.1406 21.3458 12.1406 21.3367V21.2818V16.8484V16.7661C12.5246 16.5376 12.8993 16.3182 13.2833 16.0897C14.7641 15.2121 16.245 14.3437 17.7167 13.4662C17.7258 13.4753 17.735 13.4662 17.7441 13.457Z"
          fill="#62688F"/>
    <path d="M12.1433 9.81884V9.80056V9.74571V3.10926C12.1433 3.08184 12.1341 3.06356 12.1524 3.03613C14.0081 6.11669 15.8637 9.1881 17.7102 12.2687C17.7285 12.2961 17.7559 12.3326 17.7651 12.3692C17.6371 12.3235 17.5183 12.2595 17.3994 12.2047C17.2532 12.1407 17.0978 12.0676 16.9515 12.0036C16.8601 11.9579 16.7595 11.9213 16.6681 11.8756C16.5127 11.8025 16.3573 11.7385 16.2019 11.6653C16.1105 11.6288 16.0191 11.5831 15.9277 11.5374L15.3244 11.2631C15.2238 11.2174 15.1233 11.1717 15.0136 11.126L14.5748 10.9341C14.4834 10.8975 14.392 10.8518 14.3006 10.8061L13.6973 10.5318C13.5967 10.4861 13.4962 10.4404 13.3865 10.3947L12.9477 10.2028C12.8471 10.1571 12.7557 10.1114 12.6552 10.0657C12.4815 9.98338 12.3078 9.90111 12.125 9.82798C12.1524 9.81884 12.1433 9.81884 12.1433 9.81884Z"
          fill="#62688F"/>
</svg>
