<svg width="140" height="121" viewBox="0 0 140 121" fill="none" xmlns="http://www.w3.org/2000/svg">
<path d="M42.6562 71.0938V49.2188C42.6562 27.8605 57.9622 10.08 78.2031 6.23984C75.5456 5.73562 72.8041 5.46875 70 5.46875C45.8377 5.46875 26.25 25.0562 26.25 49.2188V71.0938C26.25 95.2563 45.8374 114.844 70 114.844C72.8041 114.844 75.5456 114.577 78.2031 114.073C57.9622 110.232 42.6562 92.452 42.6562 71.0938Z" fill="#EDEDF0"/>
<path d="M83.3803 77.1391C80.6782 75.7883 77.3936 76.8834 76.0431 79.585C74.8734 81.9248 72.6131 83.3215 69.9972 83.3215C67.3812 83.3215 65.1209 81.9248 63.9512 79.585C62.6009 76.8837 59.3164 75.7886 56.614 77.1391C53.9127 78.4896 52.8176 81.7747 54.1684 84.4763C57.1855 90.5105 63.2509 94.259 69.9974 94.259C76.744 94.259 82.8091 90.5105 85.8265 84.4763C87.1767 81.7747 86.0816 78.4899 83.3803 77.1391Z" fill="#14151A"/>
<path d="M5.46875 21.875C8.48914 21.875 10.9375 19.4266 10.9375 16.4062C10.9375 13.3908 13.3908 10.9375 16.4062 10.9375C19.4266 10.9375 21.875 8.48914 21.875 5.46875C21.875 2.44836 19.4266 0 16.4062 0C7.35984 0 0 7.35984 0 16.4062C0 19.4266 2.44836 21.875 5.46875 21.875Z" fill="#14151A"/>
<path d="M16.4062 109.375C13.3908 109.375 10.9375 106.922 10.9375 103.906C10.9375 100.886 8.48914 98.4375 5.46875 98.4375C2.44836 98.4375 0 100.886 0 103.906C0 112.953 7.35984 120.312 16.4062 120.312C19.4266 120.312 21.875 117.864 21.875 114.844C21.875 111.823 19.4266 109.375 16.4062 109.375Z" fill="#14151A"/>
<path d="M123.594 0C120.573 0 118.125 2.44836 118.125 5.46875C118.125 8.48914 120.573 10.9375 123.594 10.9375C126.609 10.9375 129.062 13.3908 129.062 16.4062C129.062 19.4266 131.511 21.875 134.531 21.875C137.552 21.875 140 19.4266 140 16.4062C140 7.35984 132.64 0 123.594 0Z" fill="#14151A"/>
<path d="M134.531 98.4375C131.511 98.4375 129.062 100.886 129.062 103.906C129.062 106.922 126.609 109.375 123.594 109.375C120.573 109.375 118.125 111.823 118.125 114.844C118.125 117.864 120.573 120.312 123.594 120.312C132.64 120.312 140 112.953 140 103.906C140 100.886 137.552 98.4375 134.531 98.4375Z" fill="#14151A"/>
<path d="M119.219 49.2188C119.219 22.0795 97.1392 0 70 0C42.8608 0 20.7812 22.0795 20.7812 49.2188V71.0938C20.7812 98.233 42.8608 120.312 70 120.312C97.1392 120.312 119.219 98.233 119.219 71.0938V49.2188ZM108.281 71.0938C108.281 92.202 91.1083 109.375 70 109.375C48.8917 109.375 31.7188 92.202 31.7188 71.0938V49.2188C31.7188 28.1105 48.8917 10.9375 70 10.9375C91.1083 10.9375 108.281 28.1105 108.281 49.2188V71.0938Z" fill="#14151A"/>
<path d="M59.0625 43.75H48.125C45.1046 43.75 42.6562 46.1984 42.6562 49.2188C42.6562 52.2391 45.1046 54.6875 48.125 54.6875H59.0625C62.0829 54.6875 64.5312 52.2391 64.5312 49.2188C64.5312 46.1984 62.0829 43.75 59.0625 43.75Z" fill="#14151A"/>
<path d="M91.875 43.75H80.9375C77.9171 43.75 75.4688 46.1984 75.4688 49.2188C75.4688 52.2391 77.9171 54.6875 80.9375 54.6875H91.875C94.8954 54.6875 97.3438 52.2391 97.3438 49.2188C97.3438 46.1984 94.8954 43.75 91.875 43.75Z" fill="#14151A"/>
</svg>
