<svg width="32" height="32" viewBox="0 0 32 32" fill="none" xmlns="http://www.w3.org/2000/svg">
<circle cx="16" cy="16" r="15.6522" stroke="#E9E9E9" stroke-width="0.695652"/>
<path d="M15.0924 17.9647V20.1734C15.0924 20.3705 15.1562 20.5358 15.284 20.6694C15.4118 20.803 15.5697 20.8695 15.7578 20.8691C15.9463 20.8691 16.1044 20.8023 16.2322 20.6687C16.36 20.5351 16.4236 20.37 16.4232 20.1734V17.9647L17.022 18.5908C17.0886 18.6604 17.1635 18.7125 17.2469 18.7473C17.3303 18.7821 17.4135 18.7967 17.4965 18.7911C17.5794 18.7851 17.6597 18.7647 17.7373 18.7299C17.815 18.6951 17.887 18.643 17.9536 18.5734C18.0756 18.4343 18.1395 18.272 18.1452 18.0864C18.151 17.9009 18.0871 17.7386 17.9536 17.5995L16.2235 15.7908C16.157 15.7212 16.0849 15.6721 16.0073 15.6433C15.9297 15.6146 15.8465 15.6 15.7578 15.5995C15.669 15.5995 15.5859 15.6141 15.5082 15.6433C15.4306 15.6725 15.3585 15.7217 15.292 15.7908L13.562 17.5995C13.4289 17.7386 13.3652 17.9009 13.371 18.0864C13.3767 18.272 13.4459 18.4343 13.5786 18.5734C13.7117 18.7009 13.8669 18.7677 14.0444 18.7738C14.2218 18.7798 14.3771 18.713 14.5101 18.5734L15.0924 17.9647ZM11.7654 22.956C11.3994 22.956 11.086 22.8197 10.8252 22.547C10.5643 22.2743 10.4341 21.9469 10.4346 21.5647V10.4343C10.4346 10.0517 10.565 9.72401 10.8258 9.45132C11.0867 9.17862 11.3998 9.04251 11.7654 9.04297H16.5396C16.7171 9.04297 16.8863 9.07775 17.0473 9.14732C17.2083 9.21688 17.3496 9.31543 17.4712 9.44297L20.6984 12.8169C20.8204 12.9444 20.9146 13.0924 20.9812 13.2607C21.0477 13.4291 21.081 13.6058 21.081 13.7908V21.5647C21.081 21.9473 20.9506 22.275 20.6897 22.5477C20.4289 22.8204 20.1157 22.9565 19.7502 22.956H11.7654ZM16.4232 13.2169C16.4232 13.414 16.487 13.5793 16.6148 13.7129C16.7426 13.8464 16.9005 13.913 17.0886 13.9125H19.7502L16.4232 10.4343V13.2169Z" fill="#14151A"/>
</svg>
