<svg width="142" height="141" viewBox="0 0 142 141" fill="none" xmlns="http://www.w3.org/2000/svg">
<path d="M13.8002 114.4C13.8023 120.234 16.1208 125.828 20.2461 129.954C24.3715 134.079 29.966 136.398 35.8002 136.4H106.2C112.034 136.398 117.629 134.079 121.754 129.954C125.88 125.828 128.198 120.234 128.2 114.4V26.3998C128.198 20.5657 125.88 14.9711 121.754 10.8457C117.629 6.7204 112.034 4.40187 106.2 4.39977H60.7042C57.8597 4.36703 55.0406 4.93685 52.4322 6.07177C52.1281 6.11898 51.832 6.20781 51.5522 6.33577C49.1524 7.46116 46.976 9.01146 45.1282 10.9118L20.3122 35.7278C19.3447 36.6193 18.4879 37.6238 17.7602 38.7198C16.9701 39.7916 16.2919 40.9417 15.7362 42.1518C15.6082 42.4316 15.5194 42.7277 15.4722 43.0318C14.3372 45.6402 13.7674 48.4593 13.8002 51.3038V114.4ZM97.4002 110H44.6002C43.4332 110 42.3141 109.536 41.4889 108.711C40.6637 107.886 40.2002 106.767 40.2002 105.6C40.2002 104.433 40.6637 103.314 41.4889 102.488C42.3141 101.663 43.4332 101.2 44.6002 101.2H97.4002C98.5671 101.2 99.6863 101.663 100.511 102.488C101.337 103.314 101.8 104.433 101.8 105.6C101.8 106.767 101.337 107.886 100.511 108.711C99.6863 109.536 98.5671 110 97.4002 110ZM97.4002 87.9998H44.6002C43.4332 87.9998 42.3141 87.5362 41.4889 86.711C40.6637 85.8859 40.2002 84.7667 40.2002 83.5998C40.2002 82.4328 40.6637 81.3137 41.4889 80.4885C42.3141 79.6633 43.4332 79.1998 44.6002 79.1998H97.4002C98.5671 79.1998 99.6863 79.6633 100.511 80.4885C101.337 81.3137 101.8 82.4328 101.8 83.5998C101.8 84.7667 101.337 85.8859 100.511 86.711C99.6863 87.5362 98.5671 87.9998 97.4002 87.9998ZM62.2002 57.1998H97.4002C98.5671 57.1998 99.6863 57.6633 100.511 58.4885C101.337 59.3137 101.8 60.4328 101.8 61.5998C101.8 62.7667 101.337 63.8859 100.511 64.711C99.6863 65.5362 98.5671 65.9998 97.4002 65.9998H62.2002C61.0332 65.9998 59.9141 65.5362 59.0889 64.711C58.2637 63.8859 57.8002 62.7667 57.8002 61.5998C57.8002 60.4328 58.2637 59.3137 59.0889 58.4885C59.9141 57.6633 61.0332 57.1998 62.2002 57.1998ZM23.7442 45.8478C24.415 44.3785 25.3383 43.0382 26.4722 41.8878L28.8482 39.5998H44.6002C45.1796 39.6055 45.7543 39.4957 46.2908 39.2766C46.8272 39.0575 47.3145 38.7336 47.7243 38.3239C48.134 37.9142 48.4579 37.4268 48.677 36.8904C48.896 36.3539 49.0059 35.7792 49.0002 35.1998V19.4478L51.2882 17.0718C52.4385 15.9379 53.7788 15.0146 55.2482 14.3438C56.0645 13.9591 56.9202 13.664 57.8002 13.4638V35.1998C57.8025 36.9339 57.4626 38.6514 56.8001 40.2539C56.1375 41.8565 55.1653 43.3125 53.9391 44.5387C52.7129 45.7649 51.2569 46.7372 49.6543 47.3997C48.0518 48.0622 46.3343 48.4021 44.6002 48.3998H22.8642C23.0644 47.5198 23.3595 46.6641 23.7442 45.8478Z" fill="#14151A"/>
</svg>
