<svg width="32" height="32" viewBox="0 0 32 32" fill="none" xmlns="http://www.w3.org/2000/svg">
<circle cx="16" cy="16" r="15.6522" stroke="#E9E9E9" stroke-width="0.695652"/>
<path d="M11.1022 19.0617C10.779 19.0617 10.5169 18.7786 10.5169 18.4293C10.5169 18.08 10.779 17.7969 11.1022 17.7969C11.4255 17.7969 11.6875 18.08 11.6875 18.4293C11.6875 18.7786 11.4255 19.0617 11.1022 19.0617Z" fill="#14151A"/>
<path d="M12.3796 21.0969C12.0563 21.0969 11.7943 20.8137 11.7943 20.4644C11.7943 20.1152 12.0563 19.832 12.3796 19.832C12.7028 19.832 12.9648 20.1152 12.9648 20.4644C12.9648 20.8137 12.7028 21.0969 12.3796 21.0969Z" fill="#14151A"/>
<path d="M10.6628 16.634C10.3395 16.634 10.0775 16.3508 10.0775 16.0016C10.0775 15.6523 10.3395 15.3691 10.6628 15.3691C10.986 15.3691 11.248 15.6523 11.248 16.0016C11.248 16.3508 10.986 16.634 10.6628 16.634Z" fill="#14151A"/>
<path d="M14.276 22.4797C13.9528 22.4797 13.6908 22.1965 13.6908 21.8473C13.6908 21.498 13.9528 21.2148 14.276 21.2148C14.5993 21.2148 14.8613 21.498 14.8613 21.8473C14.8613 22.1965 14.5993 22.4797 14.276 22.4797Z" fill="#14151A"/>
<path d="M16.5158 21.6912C17.3592 21.6923 18.1904 21.4748 18.9397 21.0569C19.6891 20.639 20.3346 20.033 20.8221 19.2898C21.3096 18.5466 21.6249 17.6878 21.7414 16.7857C21.8578 15.8836 21.7722 14.9644 21.4916 14.1055C21.2109 13.2466 20.7435 12.4729 20.1287 11.8495C19.5138 11.2262 18.7694 10.7713 17.9579 10.5231C17.1465 10.275 16.2918 10.2407 15.4656 10.4234C14.6395 10.606 13.8659 11.0001 13.21 11.5726H14.1738C14.3291 11.5726 14.478 11.6392 14.5878 11.7578C14.6976 11.8764 14.7593 12.0373 14.7593 12.205C14.7593 12.3727 14.6976 12.5336 14.5878 12.6522C14.478 12.7708 14.3291 12.8374 14.1738 12.8374H11.8317C11.6764 12.8374 11.5275 12.7708 11.4177 12.6522C11.3079 12.5336 11.2462 12.3727 11.2462 12.205V9.67538C11.2462 9.50765 11.3079 9.3468 11.4177 9.2282C11.5275 9.1096 11.6764 9.04297 11.8317 9.04297C11.987 9.04297 12.1359 9.1096 12.2457 9.2282C12.3555 9.3468 12.4172 9.50765 12.4172 9.67538V10.6436C13.2134 9.93261 14.1564 9.43903 15.1664 9.20455C16.1765 8.97007 17.2239 9.00158 18.2203 9.29642C19.2167 9.59125 20.1327 10.1408 20.8911 10.8985C21.6494 11.6563 22.2278 12.6 22.5774 13.65C22.9269 14.7001 23.0373 15.8255 22.8993 16.9314C22.7614 18.0372 22.379 19.091 21.7846 20.0036C21.1901 20.9162 20.4011 21.6609 19.484 22.1748C18.567 22.6886 17.5489 22.9566 16.5158 22.956C16.3606 22.956 16.2116 22.8894 16.1018 22.7708C15.992 22.6522 15.9303 22.4913 15.9303 22.3236C15.9303 22.1559 15.992 21.995 16.1018 21.8764C16.2116 21.7578 16.3606 21.6912 16.5158 21.6912Z" fill="#14151A"/>
<path d="M14.3455 18.3435C14.2358 18.2249 14.1741 18.0641 14.1741 17.8964C14.1741 17.7287 14.2358 17.5679 14.3455 17.4493L15.9305 15.7373V12.2047C15.9305 12.037 15.9922 11.8761 16.102 11.7575C16.2118 11.6389 16.3608 11.5723 16.516 11.5723C16.6713 11.5723 16.8203 11.6389 16.9301 11.7575C17.0399 11.8761 17.1016 12.037 17.1016 12.2047V15.9991C17.1015 16.1669 17.0398 16.3277 16.93 16.4463L15.1734 18.3435C15.0636 18.462 14.9147 18.5287 14.7595 18.5287C14.6042 18.5287 14.4553 18.462 14.3455 18.3435Z" fill="#14151A"/>
</svg>
