<svg width="15" height="19" viewBox="0 0 15 19" fill="none" xmlns="http://www.w3.org/2000/svg">
<path d="M10.2269 14.5935L7.05107 16.4728C6.94188 16.5374 6.94117 16.6967 7.04978 16.7623L10.2252 18.6804C10.2771 18.7117 10.3417 18.7121 10.394 18.6815L13.6856 16.7508C13.7364 16.721 13.7679 16.6664 13.7685 16.607L13.8499 8.66823C13.8512 8.53794 13.7118 8.45567 13.6002 8.5209L10.3923 10.3962C10.3409 10.4263 10.3093 10.4818 10.3093 10.5418V14.4484C10.3093 14.5081 10.2779 14.5634 10.2269 14.5935Z" fill="url(#paint0_linear_1846_8027)"/>
<mask id="mask0_1846_8027" style="mask-type:alpha" maskUnits="userSpaceOnUse" x="6" y="8" width="8" height="11">
<path d="M10.2269 14.5935L7.05107 16.4728C6.94188 16.5374 6.94117 16.6967 7.04978 16.7623L10.2252 18.6804C10.2771 18.7117 10.3417 18.7121 10.394 18.6815L13.6856 16.7508C13.7364 16.721 13.7679 16.6664 13.7685 16.607L13.8499 8.66823C13.8512 8.53794 13.7118 8.45567 13.6002 8.5209L10.3923 10.3962C10.3409 10.4263 10.3093 10.4818 10.3093 10.5418V14.4484C10.3093 14.5081 10.2779 14.5634 10.2269 14.5935Z" fill="url(#paint1_linear_1846_8027)"/>
</mask>
<g mask="url(#mask0_1846_8027)">
<path d="M13.9398 15.6748L9.21484 18.3993L10.1132 19.0047L13.9398 16.8184V15.6748Z" fill="url(#paint2_linear_1846_8027)"/>
</g>
<path d="M0.0830737 8.32427L13.7754 0.318747C13.8864 0.253899 14.0251 0.334806 14.0251 0.464328V4.19772C14.0251 4.25757 13.9936 4.31292 13.9425 4.34304L3.62627 10.4174C3.5751 10.4475 3.54364 10.5028 3.54364 10.5627V14.1673C3.54364 14.2966 3.68211 14.3776 3.79302 14.313L6.98214 12.4569C7.03394 12.4268 7.09776 12.427 7.14932 12.4576L10.2796 14.3132C10.3892 14.3781 10.3892 14.5383 10.2797 14.6033L3.62637 18.5522C3.57517 18.5826 3.51182 18.5831 3.46015 18.5536L0.0843922 16.6212C0.0322379 16.5914 0 16.5355 0 16.4749V8.46985C0 8.40981 0.0316613 8.35433 0.0830737 8.32427Z" fill="url(#paint3_linear_1846_8027)"/>
<mask id="mask1_1846_8027" style="mask-type:alpha" maskUnits="userSpaceOnUse" x="0" y="0" width="15" height="19">
<path d="M0.0830737 8.32427L13.7754 0.318747C13.8864 0.253899 14.0251 0.334806 14.0251 0.464328V4.19772C14.0251 4.25757 13.9936 4.31292 13.9425 4.34304L3.62627 10.4174C3.5751 10.4475 3.54364 10.5028 3.54364 10.5627V14.1673C3.54364 14.2966 3.68211 14.3776 3.79302 14.313L6.98214 12.4569C7.03394 12.4268 7.09776 12.427 7.14932 12.4576L10.2796 14.3132C10.3892 14.3781 10.3892 14.5383 10.2797 14.6033L3.62637 18.5522C3.57517 18.5826 3.51182 18.5831 3.46015 18.5536L0.0843922 16.6212C0.0322379 16.5914 0 16.5355 0 16.4749V8.46985C0 8.40981 0.0316613 8.35433 0.0830737 8.32427Z" fill="url(#paint4_linear_1846_8027)"/>
</mask>
<g mask="url(#mask1_1846_8027)">
<path d="M1.63129 9.41769L14.4086 1.95054L14.1757 -0.202148L-0.398438 8.34134V16.683L3.39483 18.8694L10.6819 14.564L9.08473 13.5213L3.5612 16.683L1.63129 15.6739V9.41769Z" fill="url(#paint5_linear_1846_8027)"/>
</g>
<mask id="mask2_1846_8027" style="mask-type:alpha" maskUnits="userSpaceOnUse" x="0" y="0" width="15" height="19">
<path d="M0.0830737 8.32427L13.7754 0.318747C13.8864 0.253899 14.0251 0.334806 14.0251 0.464328V4.19772C14.0251 4.25757 13.9936 4.31292 13.9425 4.34304L3.62627 10.4174C3.5751 10.4475 3.54364 10.5028 3.54364 10.5627V14.1673C3.54364 14.2966 3.68211 14.3776 3.79302 14.313L6.98214 12.4569C7.03394 12.4268 7.09776 12.427 7.14932 12.4576L10.2796 14.3132C10.3892 14.3781 10.3892 14.5383 10.2797 14.6033L3.62637 18.5522C3.57517 18.5826 3.51182 18.5831 3.46015 18.5536L0.0843922 16.6212C0.0322379 16.5914 0 16.5355 0 16.4749V8.46985C0 8.40981 0.0316613 8.35433 0.0830737 8.32427Z" fill="url(#paint6_linear_1846_8027)"/>
</mask>
<g mask="url(#mask2_1846_8027)">
<path d="M1.03005 9.01406L14.1401 1.51328L14.373 -0.202148L-0.234375 8.24044V16.8176L3.39252 19.1048L10.7461 14.6312L9.71464 13.8913L3.55889 17.5239L1.03005 16.1112V9.01406Z" fill="url(#paint7_linear_1846_8027)"/>
</g>
<defs>
<linearGradient id="paint0_linear_1846_8027" x1="9.95057" y1="11.5221" x2="16.063" y2="17.3132" gradientUnits="userSpaceOnUse">
<stop stop-color="#A083EC"/>
<stop offset="1" stop-color="#666AE1"/>
</linearGradient>
<linearGradient id="paint1_linear_1846_8027" x1="9.95057" y1="11.5221" x2="16.063" y2="17.3132" gradientUnits="userSpaceOnUse">
<stop stop-color="#A083EC"/>
<stop offset="1" stop-color="#666AE1"/>
</linearGradient>
<linearGradient id="paint2_linear_1846_8027" x1="11.2623" y1="16.6615" x2="12.863" y2="19.8531" gradientUnits="userSpaceOnUse">
<stop stop-color="#A083EC"/>
<stop offset="1" stop-color="#666AE1"/>
</linearGradient>
<linearGradient id="paint3_linear_1846_8027" x1="6.07755" y1="5.63309" x2="17.1057" y2="17.4272" gradientUnits="userSpaceOnUse">
<stop stop-color="#AB8DFB"/>
<stop offset="0.489583" stop-color="#766DD2"/>
<stop offset="1" stop-color="#666AE1"/>
</linearGradient>
<linearGradient id="paint4_linear_1846_8027" x1="6.07755" y1="5.63309" x2="17.1057" y2="17.4272" gradientUnits="userSpaceOnUse">
<stop stop-color="#AB8DFB"/>
<stop offset="0.489583" stop-color="#766DD2"/>
<stop offset="1" stop-color="#666AE1"/>
</linearGradient>
<linearGradient id="paint5_linear_1846_8027" x1="6.01795" y1="5.44867" x2="17.4133" y2="17.8812" gradientUnits="userSpaceOnUse">
<stop stop-color="#A083EC"/>
<stop offset="1" stop-color="#666AE1"/>
</linearGradient>
<linearGradient id="paint6_linear_1846_8027" x1="6.07755" y1="5.63309" x2="17.1057" y2="17.4272" gradientUnits="userSpaceOnUse">
<stop stop-color="#AB8DFB"/>
<stop offset="0.489583" stop-color="#766DD2"/>
<stop offset="1" stop-color="#666AE1"/>
</linearGradient>
<linearGradient id="paint7_linear_1846_8027" x1="10.7129" y1="4.5405" x2="-1.34766" y2="26.4083" gradientUnits="userSpaceOnUse">
<stop stop-color="#A083EC"/>
<stop offset="0.572917" stop-color="#9F8AF8"/>
<stop offset="1" stop-color="#666AE1"/>
</linearGradient>
</defs>
</svg>
