<svg width="12" height="12" viewBox="0 0 12 12" fill="none" xmlns="http://www.w3.org/2000/svg">
    <path fillRule="evenodd" clipRule="evenodd"
          d="M11.4408 3.70914C12.1864 2.96356 12.1864 1.75475 11.4408 1.00917L10.9908 0.559181C10.2453 -0.186394 9.03644 -0.186393 8.29086 0.559181L1.04449 7.80556C0.781226 8.06881 0.600685 8.4033 0.525083 8.76785L0.0136421 11.234C-0.0793591 11.6824 0.317548 12.0793 0.765994 11.9863L3.23214 11.4749C3.59669 11.3993 3.93119 11.2188 4.19445 10.9555L11.4408 3.70914ZM10.5408 1.90916L10.0908 1.45917C9.84231 1.21064 9.43937 1.21064 9.19085 1.45917L8.51584 2.13418L9.86582 3.48416L10.5408 2.80915C10.7894 2.56063 10.7894 2.15769 10.5408 1.90916ZM8.96583 4.38415L7.61585 3.03417L1.94447 8.70554C1.85672 8.7933 1.79654 8.90479 1.77134 9.02631L1.45675 10.5432L2.97369 10.2287C3.09521 10.2035 3.20671 10.1433 3.29446 10.0555L8.96583 4.38415Z"
          fill="#14151A"/>
</svg>
