<svg width="16" height="16" viewBox="0 0 16 16" fill="none" xmlns="http://www.w3.org/2000/svg">
<g clip-path="url(#clip0_2728_218484)">
<path d="M7.3335 0C5.1275 0 3.3335 1.794 3.3335 4C3.3335 6.206 5.1275 8 7.3335 8C9.5395 8 11.3335 6.206 11.3335 4C11.3335 1.794 9.5395 0 7.3335 0ZM7.3335 6.66667C5.86283 6.66667 4.66683 5.47067 4.66683 4C4.66683 2.52933 5.86283 1.33333 7.3335 1.33333C8.80416 1.33333 10.0002 2.52933 10.0002 4C10.0002 5.47067 8.80416 6.66667 7.3335 6.66667ZM9.31283 10.334C9.22083 10.6913 8.85483 10.9053 8.50083 10.8133C8.12216 10.716 7.72883 10.6667 7.3335 10.6667C4.76083 10.6667 2.66683 12.76 2.66683 15.3333C2.66683 15.7013 2.36883 16 2.00016 16C1.6315 16 1.3335 15.7013 1.3335 15.3333C1.3335 12.0253 4.02483 9.33333 7.3335 9.33333C7.84083 9.33333 8.3455 9.39667 8.83283 9.52267C9.1895 9.614 9.40416 9.978 9.31283 10.334ZM16.0002 12.6667C16.0002 13.7693 15.1028 14.6667 14.0002 14.6667V15.3333C14.0002 15.7013 13.7022 16 13.3335 16C12.9648 16 12.6668 15.7013 12.6668 15.3333V14.6653H12.4868C11.7762 14.6653 11.1128 14.2827 10.7562 13.668C10.5715 13.3493 10.6802 12.9413 10.9988 12.7567C11.3175 12.5727 11.7255 12.6807 11.9095 12.9993C12.0288 13.2047 12.2495 13.332 12.4868 13.332L14.0002 13.3333C14.3675 13.3333 14.6662 13.034 14.6662 12.6667C14.6662 12.4147 14.4855 12.2013 14.2368 12.16L12.2095 11.822C11.3148 11.6733 10.6662 10.9067 10.6662 10C10.6662 8.89733 11.5635 8 12.6662 8V7.33333C12.6662 6.96533 12.9642 6.66667 13.3328 6.66667C13.7015 6.66667 13.9995 6.96533 13.9995 7.33333V8.002H14.1802C14.8888 8.002 15.5522 8.384 15.9095 8.99867C16.0948 9.31667 15.9868 9.72467 15.6688 9.91C15.3502 10.0953 14.9415 9.98667 14.7575 9.66867C14.6355 9.46067 14.4202 9.33533 14.1802 9.33533L12.6662 9.33333C12.2988 9.33333 12.0002 9.63267 12.0002 10C12.0002 10.252 12.1808 10.4653 12.4295 10.5067L14.4568 10.8447C15.3515 10.9933 16.0002 11.76 16.0002 12.6667Z" fill="#14151A"/>
</g>
<defs>
<clipPath id="clip0_2728_218484">
<rect width="16" height="16" fill="white"/>
</clipPath>
</defs>
</svg>
