<svg width="18" height="18" viewBox="0 0 18 18" fill="none" xmlns="http://www.w3.org/2000/svg">
<path fill-rule="evenodd" clip-rule="evenodd" d="M9 16.875C4.65075 16.875 1.125 13.3481 1.125 9C1.125 4.65188 4.65075 1.125 9 1.125C13.3492 1.125 16.875 4.65188 16.875 9C16.875 13.3481 13.3492 16.875 9 16.875ZM9 0C4.02919 0 0 4.0275 0 9C0 13.9725 4.02919 18 9 18C13.9708 18 18 13.9725 18 9C18 4.0275 13.9708 0 9 0ZM12.375 8.4375H9.5625V5.625C9.5625 5.31563 9.31106 5.0625 9 5.0625C8.68894 5.0625 8.4375 5.31563 8.4375 5.625V8.4375H5.625C5.31394 8.4375 5.0625 8.69063 5.0625 9C5.0625 9.30937 5.31394 9.5625 5.625 9.5625H8.4375V12.375C8.4375 12.6844 8.68894 12.9375 9 12.9375C9.31106 12.9375 9.5625 12.6844 9.5625 12.375V9.5625H12.375C12.6861 9.5625 12.9375 9.30937 12.9375 9C12.9375 8.69063 12.6861 8.4375 12.375 8.4375Z" fill="#4D4D4D"/>
</svg>
