<svg width="212" height="208" viewBox="0 0 212 208" fill="none" xmlns="http://www.w3.org/2000/svg">
<g clipPath="url(#clip0_1834_17905)">
<rect width="210.963" height="206.643" transform="translate(0.515625 0.446899)" fill="white"/>
<path d="M0.476562 0.776001H8.92862V9.01536H0.476562V0.776001ZM8.92862 0.776001H17.3807V9.01536H8.92862V0.776001ZM17.3807 0.776001H25.8327V9.01536H17.3807V0.776001ZM25.8327 0.776001H34.2848V9.01536H25.8327V0.776001ZM34.2848 0.776001H42.7368V9.01536H34.2848V0.776001ZM42.7368 0.776001H51.1889V9.01536H42.7368V0.776001ZM51.1889 0.776001H59.6409V9.01536H51.1889V0.776001ZM84.9971 0.776001H93.4491V9.01536H84.9971V0.776001ZM93.4491 0.776001H101.901V9.01536H93.4491V0.776001ZM101.901 0.776001H110.353V9.01536H101.901V0.776001ZM110.353 0.776001H118.805V9.01536H110.353V0.776001ZM118.805 0.776001H127.257V9.01536H118.805V0.776001ZM127.257 0.776001H135.709V9.01536H127.257V0.776001ZM152.614 0.776001H161.066V9.01536H152.614V0.776001ZM161.066 0.776001H169.518V9.01536H161.066V0.776001ZM169.518 0.776001H177.97V9.01536H169.518V0.776001ZM177.97 0.776001H186.422V9.01536H177.97V0.776001ZM186.422 0.776001H194.874V9.01536H186.422V0.776001ZM194.874 0.776001H203.326V9.01536H194.874V0.776001ZM203.326 0.776001H211.778V9.01536H203.326V0.776001ZM0.476562 9.01536H8.92862V17.2547H0.476562V9.01536ZM51.1889 9.01536H59.6409V17.2547H51.1889V9.01536ZM84.9971 9.01536H93.4491V17.2547H84.9971V9.01536ZM127.257 9.01536H135.709V17.2547H127.257V9.01536ZM152.614 9.01536H161.066V17.2547H152.614V9.01536ZM203.326 9.01536H211.778V17.2547H203.326V9.01536ZM0.476562 17.2547H8.92862V25.4941H0.476562V17.2547ZM17.3807 17.2547H25.8327V25.4941H17.3807V17.2547ZM25.8327 17.2547H34.2848V25.4941H25.8327V17.2547ZM34.2848 17.2547H42.7368V25.4941H34.2848V17.2547ZM51.1889 17.2547H59.6409V25.4941H51.1889V17.2547ZM76.545 17.2547H84.9971V25.4941H76.545V17.2547ZM84.9971 17.2547H93.4491V25.4941H84.9971V17.2547ZM93.4491 17.2547H101.901V25.4941H93.4491V17.2547ZM110.353 17.2547H118.805V25.4941H110.353V17.2547ZM152.614 17.2547H161.066V25.4941H152.614V17.2547ZM169.518 17.2547H177.97V25.4941H169.518V17.2547ZM177.97 17.2547H186.422V25.4941H177.97V17.2547ZM186.422 17.2547H194.874V25.4941H186.422V17.2547ZM203.326 17.2547H211.778V25.4941H203.326V17.2547ZM0.476562 25.4941H8.92862V33.7335H0.476562V25.4941ZM17.3807 25.4941H25.8327V33.7335H17.3807V25.4941ZM25.8327 25.4941H34.2848V33.7335H25.8327V25.4941ZM34.2848 25.4941H42.7368V33.7335H34.2848V25.4941ZM51.1889 25.4941H59.6409V33.7335H51.1889V25.4941ZM68.093 25.4941H76.545V33.7335H68.093V25.4941ZM76.545 25.4941H84.9971V33.7335H76.545V25.4941ZM84.9971 25.4941H93.4491V33.7335H84.9971V25.4941ZM93.4491 25.4941H101.901V33.7335H93.4491V25.4941ZM101.901 25.4941H110.353V33.7335H101.901V25.4941ZM127.257 25.4941H135.709V33.7335H127.257V25.4941ZM135.709 25.4941H144.161V33.7335H135.709V25.4941ZM152.614 25.4941H161.066V33.7335H152.614V25.4941ZM169.518 25.4941H177.97V33.7335H169.518V25.4941ZM177.97 25.4941H186.422V33.7335H177.97V25.4941ZM186.422 25.4941H194.874V33.7335H186.422V25.4941ZM203.326 25.4941H211.778V33.7335H203.326V25.4941ZM0.476562 33.7335H8.92862V41.9728H0.476562V33.7335ZM17.3807 33.7335H25.8327V41.9728H17.3807V33.7335ZM25.8327 33.7335H34.2848V41.9728H25.8327V33.7335ZM34.2848 33.7335H42.7368V41.9728H34.2848V33.7335ZM51.1889 33.7335H59.6409V41.9728H51.1889V33.7335ZM127.257 33.7335H135.709V41.9728H127.257V33.7335ZM135.709 33.7335H144.161V41.9728H135.709V33.7335ZM152.614 33.7335H161.066V41.9728H152.614V33.7335ZM169.518 33.7335H177.97V41.9728H169.518V33.7335ZM177.97 33.7335H186.422V41.9728H177.97V33.7335ZM186.422 33.7335H194.874V41.9728H186.422V33.7335ZM203.326 33.7335H211.778V41.9728H203.326V33.7335ZM0.476562 41.9728H8.92862V50.2122H0.476562V41.9728ZM51.1889 41.9728H59.6409V50.2122H51.1889V41.9728ZM68.093 41.9728H76.545V50.2122H68.093V41.9728ZM76.545 41.9728H84.9971V50.2122H76.545V41.9728ZM84.9971 41.9728H93.4491V50.2122H84.9971V41.9728ZM93.4491 41.9728H101.901V50.2122H93.4491V41.9728ZM101.901 41.9728H110.353V50.2122H101.901V41.9728ZM110.353 41.9728H118.805V50.2122H110.353V41.9728ZM118.805 41.9728H127.257V50.2122H118.805V41.9728ZM135.709 41.9728H144.161V50.2122H135.709V41.9728ZM152.614 41.9728H161.066V50.2122H152.614V41.9728ZM203.326 41.9728H211.778V50.2122H203.326V41.9728ZM0.476562 50.2122H8.92862V58.4515H0.476562V50.2122ZM8.92862 50.2122H17.3807V58.4515H8.92862V50.2122ZM17.3807 50.2122H25.8327V58.4515H17.3807V50.2122ZM25.8327 50.2122H34.2848V58.4515H25.8327V50.2122ZM34.2848 50.2122H42.7368V58.4515H34.2848V50.2122ZM42.7368 50.2122H51.1889V58.4515H42.7368V50.2122ZM51.1889 50.2122H59.6409V58.4515H51.1889V50.2122ZM68.093 50.2122H76.545V58.4515H68.093V50.2122ZM84.9971 50.2122H93.4491V58.4515H84.9971V50.2122ZM101.901 50.2122H110.353V58.4515H101.901V50.2122ZM118.805 50.2122H127.257V58.4515H118.805V50.2122ZM135.709 50.2122H144.161V58.4515H135.709V50.2122ZM152.614 50.2122H161.066V58.4515H152.614V50.2122ZM161.066 50.2122H169.518V58.4515H161.066V50.2122ZM169.518 50.2122H177.97V58.4515H169.518V50.2122ZM177.97 50.2122H186.422V58.4515H177.97V50.2122ZM186.422 50.2122H194.874V58.4515H186.422V50.2122ZM194.874 50.2122H203.326V58.4515H194.874V50.2122ZM203.326 50.2122H211.778V58.4515H203.326V50.2122ZM68.093 58.4515H76.545V66.6909H68.093V58.4515ZM76.545 58.4515H84.9971V66.6909H76.545V58.4515ZM84.9971 58.4515H93.4491V66.6909H84.9971V58.4515ZM93.4491 58.4515H101.901V66.6909H93.4491V58.4515ZM101.901 58.4515H110.353V66.6909H101.901V58.4515ZM110.353 58.4515H118.805V66.6909H110.353V58.4515ZM8.92862 66.6909H17.3807V74.9303H8.92862V66.6909ZM17.3807 66.6909H25.8327V74.9303H17.3807V66.6909ZM51.1889 66.6909H59.6409V74.9303H51.1889V66.6909ZM76.545 66.6909H84.9971V74.9303H76.545V66.6909ZM110.353 66.6909H118.805V74.9303H110.353V66.6909ZM127.257 66.6909H135.709V74.9303H127.257V66.6909ZM135.709 66.6909H144.161V74.9303H135.709V66.6909ZM152.614 66.6909H161.066V74.9303H152.614V66.6909ZM161.066 66.6909H169.518V74.9303H161.066V66.6909ZM177.97 66.6909H186.422V74.9303H177.97V66.6909ZM42.7368 74.9303H51.1889V83.1696H42.7368V74.9303ZM59.6409 74.9303H68.093V83.1696H59.6409V74.9303ZM68.093 74.9303H76.545V83.1696H68.093V74.9303ZM93.4491 74.9303H101.901V83.1696H93.4491V74.9303ZM101.901 74.9303H110.353V83.1696H101.901V74.9303ZM135.709 74.9303H144.161V83.1696H135.709V74.9303ZM152.614 74.9303H161.066V83.1696H152.614V74.9303ZM177.97 74.9303H186.422V83.1696H177.97V74.9303ZM194.874 74.9303H203.326V83.1696H194.874V74.9303ZM203.326 74.9303H211.778V83.1696H203.326V74.9303ZM0.476562 83.1696H8.92862V91.409H0.476562V83.1696ZM25.8327 83.1696H34.2848V91.409H25.8327V83.1696ZM51.1889 83.1696H59.6409V91.409H51.1889V83.1696ZM59.6409 83.1696H68.093V91.409H59.6409V83.1696ZM68.093 83.1696H76.545V91.409H68.093V83.1696ZM76.545 83.1696H84.9971V91.409H76.545V83.1696ZM110.353 83.1696H118.805V91.409H110.353V83.1696ZM118.805 83.1696H127.257V91.409H118.805V83.1696ZM135.709 83.1696H144.161V91.409H135.709V83.1696ZM161.066 83.1696H169.518V91.409H161.066V83.1696ZM169.518 83.1696H177.97V91.409H169.518V83.1696ZM177.97 83.1696H186.422V91.409H177.97V83.1696ZM186.422 83.1696H194.874V91.409H186.422V83.1696ZM203.326 83.1696H211.778V91.409H203.326V83.1696ZM8.92862 91.409H17.3807V99.6483H8.92862V91.409ZM17.3807 91.409H25.8327V99.6483H17.3807V91.409ZM25.8327 91.409H34.2848V99.6483H25.8327V91.409ZM34.2848 91.409H42.7368V99.6483H34.2848V91.409ZM42.7368 91.409H51.1889V99.6483H42.7368V91.409ZM76.545 91.409H84.9971V99.6483H76.545V91.409ZM84.9971 91.409H93.4491V99.6483H84.9971V91.409ZM118.805 91.409H127.257V99.6483H118.805V91.409ZM127.257 91.409H135.709V99.6483H127.257V91.409ZM135.709 91.409H144.161V99.6483H135.709V91.409ZM152.614 91.409H161.066V99.6483H152.614V91.409ZM161.066 91.409H169.518V99.6483H161.066V91.409ZM177.97 91.409H186.422V99.6483H177.97V91.409ZM194.874 91.409H203.326V99.6483H194.874V91.409ZM0.476562 99.6483H8.92862V107.888H0.476562V99.6483ZM8.92862 99.6483H17.3807V107.888H8.92862V99.6483ZM51.1889 99.6483H59.6409V107.888H51.1889V99.6483ZM84.9971 99.6483H93.4491V107.888H84.9971V99.6483ZM110.353 99.6483H118.805V107.888H110.353V99.6483ZM118.805 99.6483H127.257V107.888H118.805V99.6483ZM152.614 99.6483H161.066V107.888H152.614V99.6483ZM194.874 99.6483H203.326V107.888H194.874V99.6483ZM203.326 99.6483H211.778V107.888H203.326V99.6483ZM17.3807 107.888H25.8327V116.127H17.3807V107.888ZM25.8327 107.888H34.2848V116.127H25.8327V107.888ZM59.6409 107.888H68.093V116.127H59.6409V107.888ZM76.545 107.888H84.9971V116.127H76.545V107.888ZM84.9971 107.888H93.4491V116.127H84.9971V107.888ZM101.901 107.888H110.353V116.127H101.901V107.888ZM110.353 107.888H118.805V116.127H110.353V107.888ZM118.805 107.888H127.257V116.127H118.805V107.888ZM152.614 107.888H161.066V116.127H152.614V107.888ZM161.066 107.888H169.518V116.127H161.066V107.888ZM177.97 107.888H186.422V116.127H177.97V107.888ZM203.326 107.888H211.778V116.127H203.326V107.888ZM0.476562 116.127H8.92862V124.366H0.476562V116.127ZM8.92862 116.127H17.3807V124.366H8.92862V116.127ZM25.8327 116.127H34.2848V124.366H25.8327V116.127ZM34.2848 116.127H42.7368V124.366H34.2848V116.127ZM51.1889 116.127H59.6409V124.366H51.1889V116.127ZM59.6409 116.127H68.093V124.366H59.6409V116.127ZM68.093 116.127H76.545V124.366H68.093V116.127ZM76.545 116.127H84.9971V124.366H76.545V116.127ZM84.9971 116.127H93.4491V124.366H84.9971V116.127ZM101.901 116.127H110.353V124.366H101.901V116.127ZM127.257 116.127H135.709V124.366H127.257V116.127ZM144.161 116.127H152.614V124.366H144.161V116.127ZM169.518 116.127H177.97V124.366H169.518V116.127ZM203.326 116.127H211.778V124.366H203.326V116.127ZM25.8327 124.366H34.2848V132.606H25.8327V124.366ZM84.9971 124.366H93.4491V132.606H84.9971V124.366ZM93.4491 124.366H101.901V132.606H93.4491V124.366ZM110.353 124.366H118.805V132.606H110.353V124.366ZM144.161 124.366H152.614V132.606H144.161V124.366ZM161.066 124.366H169.518V132.606H161.066V124.366ZM177.97 124.366H186.422V132.606H177.97V124.366ZM194.874 124.366H203.326V132.606H194.874V124.366ZM203.326 124.366H211.778V132.606H203.326V124.366ZM0.476562 132.606H8.92862V140.845H0.476562V132.606ZM8.92862 132.606H17.3807V140.845H8.92862V132.606ZM34.2848 132.606H42.7368V140.845H34.2848V132.606ZM42.7368 132.606H51.1889V140.845H42.7368V132.606ZM51.1889 132.606H59.6409V140.845H51.1889V132.606ZM76.545 132.606H84.9971V140.845H76.545V132.606ZM93.4491 132.606H101.901V140.845H93.4491V132.606ZM110.353 132.606H118.805V140.845H110.353V132.606ZM127.257 132.606H135.709V140.845H127.257V132.606ZM135.709 132.606H144.161V140.845H135.709V132.606ZM144.161 132.606H152.614V140.845H144.161V132.606ZM152.614 132.606H161.066V140.845H152.614V132.606ZM161.066 132.606H169.518V140.845H161.066V132.606ZM169.518 132.606H177.97V140.845H169.518V132.606ZM177.97 132.606H186.422V140.845H177.97V132.606ZM203.326 132.606H211.778V140.845H203.326V132.606ZM68.093 140.845H76.545V149.085H68.093V140.845ZM76.545 140.845H84.9971V149.085H76.545V140.845ZM84.9971 140.845H93.4491V149.085H84.9971V140.845ZM135.709 140.845H144.161V149.085H135.709V140.845ZM169.518 140.845H177.97V149.085H169.518V140.845ZM194.874 140.845H203.326V149.085H194.874V140.845ZM203.326 140.845H211.778V149.085H203.326V140.845ZM0.476562 149.085H8.92862V157.324H0.476562V149.085ZM8.92862 149.085H17.3807V157.324H8.92862V149.085ZM17.3807 149.085H25.8327V157.324H17.3807V149.085ZM25.8327 149.085H34.2848V157.324H25.8327V149.085ZM34.2848 149.085H42.7368V157.324H34.2848V149.085ZM42.7368 149.085H51.1889V157.324H42.7368V149.085ZM51.1889 149.085H59.6409V157.324H51.1889V149.085ZM76.545 149.085H84.9971V157.324H76.545V149.085ZM101.901 149.085H110.353V157.324H101.901V149.085ZM118.805 149.085H127.257V157.324H118.805V149.085ZM127.257 149.085H135.709V157.324H127.257V149.085ZM135.709 149.085H144.161V157.324H135.709V149.085ZM152.614 149.085H161.066V157.324H152.614V149.085ZM169.518 149.085H177.97V157.324H169.518V149.085ZM186.422 149.085H194.874V157.324H186.422V149.085ZM203.326 149.085H211.778V157.324H203.326V149.085ZM0.476562 157.324H8.92862V165.563H0.476562V157.324ZM51.1889 157.324H59.6409V165.563H51.1889V157.324ZM76.545 157.324H84.9971V165.563H76.545V157.324ZM101.901 157.324H110.353V165.563H101.901V157.324ZM110.353 157.324H118.805V165.563H110.353V157.324ZM127.257 157.324H135.709V165.563H127.257V157.324ZM135.709 157.324H144.161V165.563H135.709V157.324ZM169.518 157.324H177.97V165.563H169.518V157.324ZM177.97 157.324H186.422V165.563H177.97V157.324ZM0.476562 165.563H8.92862V173.803H0.476562V165.563ZM17.3807 165.563H25.8327V173.803H17.3807V165.563ZM25.8327 165.563H34.2848V173.803H25.8327V165.563ZM34.2848 165.563H42.7368V173.803H34.2848V165.563ZM51.1889 165.563H59.6409V173.803H51.1889V165.563ZM76.545 165.563H84.9971V173.803H76.545V165.563ZM84.9971 165.563H93.4491V173.803H84.9971V165.563ZM110.353 165.563H118.805V173.803H110.353V165.563ZM135.709 165.563H144.161V173.803H135.709V165.563ZM144.161 165.563H152.614V173.803H144.161V165.563ZM152.614 165.563H161.066V173.803H152.614V165.563ZM161.066 165.563H169.518V173.803H161.066V165.563ZM169.518 165.563H177.97V173.803H169.518V165.563ZM177.97 165.563H186.422V173.803H177.97V165.563ZM0.476562 173.803H8.92862V182.042H0.476562V173.803ZM17.3807 173.803H25.8327V182.042H17.3807V173.803ZM25.8327 173.803H34.2848V182.042H25.8327V173.803ZM34.2848 173.803H42.7368V182.042H34.2848V173.803ZM51.1889 173.803H59.6409V182.042H51.1889V173.803ZM76.545 173.803H84.9971V182.042H76.545V173.803ZM101.901 173.803H110.353V182.042H101.901V173.803ZM118.805 173.803H127.257V182.042H118.805V173.803ZM135.709 173.803H144.161V182.042H135.709V173.803ZM144.161 173.803H152.614V182.042H144.161V173.803ZM169.518 173.803H177.97V182.042H169.518V173.803ZM177.97 173.803H186.422V182.042H177.97V173.803ZM186.422 173.803H194.874V182.042H186.422V173.803ZM0.476562 182.042H8.92862V190.281H0.476562V182.042ZM17.3807 182.042H25.8327V190.281H17.3807V182.042ZM25.8327 182.042H34.2848V190.281H25.8327V182.042ZM34.2848 182.042H42.7368V190.281H34.2848V182.042ZM51.1889 182.042H59.6409V190.281H51.1889V182.042ZM68.093 182.042H76.545V190.281H68.093V182.042ZM93.4491 182.042H101.901V190.281H93.4491V182.042ZM101.901 182.042H110.353V190.281H101.901V182.042ZM144.161 182.042H152.614V190.281H144.161V182.042ZM169.518 182.042H177.97V190.281H169.518V182.042ZM177.97 182.042H186.422V190.281H177.97V182.042ZM186.422 182.042H194.874V190.281H186.422V182.042ZM194.874 182.042H203.326V190.281H194.874V182.042ZM203.326 182.042H211.778V190.281H203.326V182.042ZM0.476562 190.281H8.92862V198.521H0.476562V190.281ZM51.1889 190.281H59.6409V198.521H51.1889V190.281ZM68.093 190.281H76.545V198.521H68.093V190.281ZM93.4491 190.281H101.901V198.521H93.4491V190.281ZM144.161 190.281H152.614V198.521H144.161V190.281ZM152.614 190.281H161.066V198.521H152.614V190.281ZM177.97 190.281H186.422V198.521H177.97V190.281ZM0.476562 198.521H8.92862V206.76H0.476562V198.521ZM8.92862 198.521H17.3807V206.76H8.92862V198.521ZM17.3807 198.521H25.8327V206.76H17.3807V198.521ZM25.8327 198.521H34.2848V206.76H25.8327V198.521ZM34.2848 198.521H42.7368V206.76H34.2848V198.521ZM42.7368 198.521H51.1889V206.76H42.7368V198.521ZM51.1889 198.521H59.6409V206.76H51.1889V198.521ZM84.9971 198.521H93.4491V206.76H84.9971V198.521ZM93.4491 198.521H101.901V206.76H93.4491V198.521ZM101.901 198.521H110.353V206.76H101.901V198.521ZM127.257 198.521H135.709V206.76H127.257V198.521ZM135.709 198.521H144.161V206.76H135.709V198.521ZM177.97 198.521H186.422V206.76H177.97V198.521ZM203.326 198.521H211.778V206.76H203.326V198.521Z" fill="black"/>
<rect width="59.0409" height="57.6009" transform="translate(76 74.7448)" fill="white"/>
<path d="M103.033 85.5452L113.323 91.5166L93.6416 103.06C92.6983 101.419 93.2576 99.3194 94.8908 98.3713L106.596 91.5762L103.033 89.5087L90.9385 96.5269V108.53L117.586 93.0602L116.409 91.2453H123.523L120.678 97.8242L119.454 95.939L118.542 96.468V112.545L103.033 121.545L92.503 115.559L95.9626 113.494L95.9751 113.502L100.978 110.537L112.584 103.8C113.528 105.441 112.968 107.541 111.335 108.489L99.3448 115.45L103.033 117.582L115.127 110.563V98.4493L89.0879 113.556L87.5234 112.545V94.5452L103.033 85.5452Z" fill="#14151A"/>
</g>
<defs>
<clipPath id="clip0_1834_17905">
<rect width="210.963" height="206.643" fill="white" transform="translate(0.515625 0.446899)"/>
</clipPath>
</defs>
</svg>
