<svg width="24" height="24" viewBox="0 0 24 24" fill="none" xmlns="http://www.w3.org/2000/svg">
<g clipPath="url(#clip0_1834_17481)">
<path d="M0.796875 7.9998V3.9998C0.796875 3.15111 1.13402 2.33718 1.73413 1.73706C2.33425 1.13695 3.14818 0.799805 3.99687 0.799805H7.99687M15.9969 0.799805H19.9969C20.8456 0.799805 21.6595 1.13695 22.2596 1.73706C22.8597 2.33718 23.1969 3.15111 23.1969 3.9998V7.9998M0.796875 15.9998V19.9998C0.796875 20.8485 1.13402 21.6624 1.73413 22.2625C2.33425 22.8627 3.14818 23.1998 3.99687 23.1998H7.99687M23.1969 15.9998V19.9998C23.1969 20.8485 22.8597 21.6624 22.2596 22.2625C21.6595 22.8627 20.8456 23.1998 19.9969 23.1998H15.9969M3.19687 11.9998H20.7969" stroke="#858C95" strokeWidth="2" strokeLinejoin="round"/>
</g>
<defs>
<clipPath id="clip0_1834_17481">
<rect width="24" height="24" rx="4" fill="white"/>
</clipPath>
</defs>
</svg>
