<svg width="24" height="24" viewBox="0 0 24 24" fill="none" xmlns="http://www.w3.org/2000/svg">
<rect x="0.3" y="0.3" width="23.4" height="23.4" rx="11.7" stroke="#E9E9E9" strokeWidth="0.6"/>
<path d="M12.0004 6.15039C10.8434 6.15039 9.71234 6.49349 8.75031 7.13629C7.78828 7.7791 7.03847 8.69274 6.5957 9.76169C6.15293 10.8306 6.03708 12.0069 6.2628 13.1417C6.48852 14.2765 7.04568 15.3188 7.86382 16.137C8.68196 16.9551 9.72433 17.5123 10.8591 17.738C11.9939 17.9637 13.1701 17.8479 14.2391 17.4051C15.308 16.9623 16.2217 16.2125 16.8645 15.2505C17.5073 14.2884 17.8504 13.1574 17.8504 12.0004C17.8488 10.4494 17.2319 8.96236 16.1352 7.86562C15.0384 6.76889 13.5514 6.15203 12.0004 6.15039ZM12.0004 15.6004C11.8669 15.6004 11.7364 15.5608 11.6254 15.4866C11.5144 15.4125 11.4279 15.307 11.3768 15.1837C11.3257 15.0604 11.3123 14.9246 11.3384 14.7937C11.3644 14.6628 11.4287 14.5425 11.5231 14.4481C11.6175 14.3537 11.7378 14.2894 11.8687 14.2634C11.9996 14.2373 12.1354 14.2507 12.2587 14.3018C12.382 14.3529 12.4875 14.4394 12.5616 14.5504C12.6358 14.6614 12.6754 14.7919 12.6754 14.9254C12.6754 15.1044 12.6043 15.2761 12.4777 15.4027C12.3511 15.5293 12.1794 15.6004 12.0004 15.6004ZM12.4504 12.8599V12.9004C12.4504 13.0197 12.403 13.1342 12.3186 13.2186C12.2342 13.303 12.1197 13.3504 12.0004 13.3504C11.881 13.3504 11.7666 13.303 11.6822 13.2186C11.5978 13.1342 11.5504 13.0197 11.5504 12.9004V12.4504C11.5504 12.331 11.5978 12.2166 11.6822 12.1322C11.7666 12.0478 11.881 12.0004 12.0004 12.0004C12.7446 12.0004 13.3504 11.4941 13.3504 10.8754C13.3504 10.2566 12.7446 9.75039 12.0004 9.75039C11.2562 9.75039 10.6504 10.2566 10.6504 10.8754V11.1004C10.6504 11.2197 10.603 11.3342 10.5186 11.4186C10.4342 11.503 10.3197 11.5504 10.2004 11.5504C10.081 11.5504 9.96659 11.503 9.8822 11.4186C9.7978 11.3342 9.75039 11.2197 9.75039 11.1004V10.8754C9.75039 9.75883 10.7595 8.85039 12.0004 8.85039C13.2413 8.85039 14.2504 9.75883 14.2504 10.8754C14.2504 11.853 13.4764 12.6715 12.4504 12.8599Z" fill="black"/>
</svg>
