<svg width="25" height="25" viewBox="0 0 25 25" fill="none" xmlns="http://www.w3.org/2000/svg">
<path d="M18.125 8.8799H13.25V15.6768C13.25 15.8757 13.171 16.0665 13.0303 16.2071C12.8897 16.3478 12.6989 16.4268 12.5 16.4268C12.3011 16.4268 12.1103 16.3478 11.9697 16.2071C11.829 16.0665 11.75 15.8757 11.75 15.6768V8.8799H6.875C6.17904 8.88065 5.51179 9.15745 5.01967 9.64957C4.52755 10.1417 4.25074 10.8089 4.25 11.5049V20.5049C4.25074 21.2009 4.52755 21.8681 5.01967 22.3602C5.51179 22.8524 6.17904 23.1292 6.875 23.1299H18.125C18.821 23.1292 19.4882 22.8524 19.9803 22.3602C20.4725 21.8681 20.7493 21.2009 20.75 20.5049V11.5049C20.7493 10.8089 20.4725 10.1417 19.9803 9.64957C19.4882 9.15745 18.821 8.88065 18.125 8.8799ZM13.25 4.69068L15.7198 7.16006C15.8616 7.29477 16.0505 7.36877 16.246 7.36626C16.4416 7.36376 16.6285 7.28495 16.7668 7.14665C16.9051 7.00835 16.9839 6.8215 16.9864 6.62593C16.9889 6.43035 16.9149 6.24154 16.7802 6.09975L13.0302 2.34975C12.8895 2.2092 12.6988 2.13025 12.5 2.13025C12.3012 2.13025 12.1105 2.2092 11.9698 2.34975L8.21984 6.09975C8.08513 6.24154 8.01114 6.43035 8.01364 6.62593C8.01614 6.8215 8.09495 7.00835 8.23325 7.14665C8.37155 7.28495 8.5584 7.36376 8.75398 7.36626C8.94955 7.36877 9.13836 7.29477 9.28016 7.16006L11.75 4.69068V8.8799H13.25V4.69068Z" fill="#14151A"/>
</svg>
