<svg width="24" height="25" viewBox="0 0 24 25" fill="none" xmlns="http://www.w3.org/2000/svg">
<path d="M17.0059 9.49609C19.1809 9.50809 20.3589 9.60509 21.1269 10.3731C22.0059 11.2521 22.0059 12.6661 22.0059 15.4941V16.4941C22.0059 19.3231 22.0059 20.7371 21.1269 21.6161C20.2489 22.4941 18.8339 22.4941 16.0059 22.4941H8.00586C5.17786 22.4941 3.76286 22.4941 2.88486 21.6161C2.00586 20.7361 2.00586 19.3231 2.00586 16.4941V15.4941C2.00586 12.6661 2.00586 11.2521 2.88486 10.3731C3.65286 9.60509 4.83086 9.50809 7.00586 9.49609" stroke="#14151A" stroke-width="1.8" stroke-linecap="round"/>
<path d="M12.0039 15.4922V2.49219M12.0039 2.49219L15.0039 5.99219M12.0039 2.49219L9.00391 5.99219" stroke="#14151A" stroke-width="1.8" stroke-linecap="round" stroke-linejoin="round"/>
</svg>
