<svg width="36" height="36" viewBox="0 0 36 36" fill="none" xmlns="http://www.w3.org/2000/svg">
<g clipPath="url(#clip0_1909_562)">
<rect width="36" height="36" rx="18" fill="white"/>
<g clipPath="url(#clip1_1909_562)">
<path d="M37.4651 17.993C37.4651 28.9841 28.5556 37.8935 17.5646 37.8935C6.57391 37.8935 -2.33594 28.9841 -2.33594 17.993C-2.33594 7.00218 6.57391 -1.90747 17.5646 -1.90747C28.5556 -1.90747 37.4651 7.00218 37.4651 17.993Z" fill="#1BA27A"/>
<path d="M26.9063 8.12756H8.0625V12.6768H15.2098V19.3634H19.759V12.6768H26.9063V8.12756Z" fill="white"/>
<path d="M17.525 20.0756C11.6126 20.0756 6.81913 19.1399 6.81913 17.9855C6.81913 16.8312 11.6124 15.8953 17.525 15.8953C23.4374 15.8953 28.2307 16.8312 28.2307 17.9855C28.2307 19.1399 23.4374 20.0756 17.525 20.0756ZM29.5459 18.3339C29.5459 16.8454 24.164 15.6388 17.525 15.6388C10.8862 15.6388 5.50391 16.8454 5.50391 18.3339C5.50391 19.6448 9.67724 20.7369 15.2074 20.9789V30.5777H19.7562V20.9827C25.329 20.7482 29.5459 19.6515 29.5459 18.3339Z" fill="white"/>
</g>
</g>
<defs>
<clipPath id="clip0_1909_562">
<rect width="36" height="36" rx="18" fill="white"/>
</clipPath>
<clipPath id="clip1_1909_562">
<rect width="40" height="40" fill="white" transform="translate(-2.5 -2)"/>
</clipPath>
</defs>
</svg>
