<svg width="23" height="22" viewBox="0 0 23 22" fill="none" xmlns="http://www.w3.org/2000/svg">
<path d="M16.7824 1.97971C18.4699 2.88685 19.8737 4.18859 20.8547 5.75606C21.8358 7.32353 22.3602 9.10238 22.3759 10.9165C22.3916 12.7307 21.8982 14.5172 20.9445 16.0992C19.9907 17.6812 18.6097 19.0039 16.9382 19.9363C15.2667 20.8687 13.3626 21.3785 11.4144 21.4152C9.46621 21.4519 7.54151 21.0143 5.83083 20.1456C4.12015 19.2769 2.6828 18.0073 1.66109 16.4625C0.639367 14.9177 0.0687064 13.1513 0.00559426 11.338L0 11.0005L0.00559426 10.663C0.068252 8.86407 0.630513 7.11092 1.63756 5.57449C2.64461 4.03806 4.06207 2.7708 5.75177 1.89625C7.44147 1.0217 9.34573 0.569702 11.2789 0.584328C13.2121 0.598954 15.1082 1.0797 16.7824 1.97971ZM15.3358 8.18075C15.1431 8.0014 14.8868 7.89366 14.6149 7.87774C14.343 7.86182 14.0742 7.93882 13.8589 8.09429L13.7537 8.18075L10.0694 11.6099L8.6228 10.2641L8.51763 10.1776C8.30235 10.0223 8.0336 9.94536 7.76176 9.96132C7.48992 9.97729 7.23367 10.085 7.04107 10.2644C6.84847 10.4437 6.73275 10.6822 6.7156 10.9353C6.69845 11.1884 6.78105 11.4386 6.94792 11.6391L7.04078 11.737L9.27843 13.8203L9.3836 13.9068C9.57982 14.0485 9.8211 14.1255 10.0694 14.1255C10.3178 14.1255 10.5591 14.0485 10.7553 13.9068L10.8605 13.8203L15.3358 9.65366L15.4286 9.55575C15.5956 9.35533 15.6783 9.10506 15.6612 8.85191C15.6441 8.59876 15.5284 8.36012 15.3358 8.18075Z" fill="#43A047"/>
</svg>
