<svg width="27" height="26" viewBox="0 0 27 26" fill="none" xmlns="http://www.w3.org/2000/svg">
    <g clipPath="url(#clip0_1_7571)">
        <path d="M19.0207 3.97971C20.7082 4.88685 22.1119 6.18859 23.093 7.75606C24.0741 9.32353 24.5984 11.1024 24.6142 12.9165C24.6299 14.7307 24.1365 16.5172 23.1827 18.0992C22.229 19.6812 20.848 21.0039 19.1765 21.9363C17.5049 22.8687 15.6008 23.3785 13.6527 23.4152C11.7045 23.4519 9.77979 23.0143 8.06911 22.1456C6.35843 21.2769 4.92108 20.0073 3.89937 18.4625C2.87765 16.9177 2.30699 15.1513 2.24388 13.338L2.23828 13.0005L2.24388 12.663C2.30653 10.8641 2.86879 9.11092 3.87584 7.57449C4.88289 6.03806 6.30036 4.7708 7.99005 3.89625C9.67975 3.0217 11.584 2.5697 13.5172 2.58433C15.4504 2.59895 17.3465 3.0797 19.0207 3.97971ZM17.574 10.1807C17.3814 10.0014 17.1251 9.89366 16.8532 9.87774C16.5813 9.86182 16.3125 9.93882 16.0972 10.0943L15.992 10.1807L12.3077 13.6099L10.8611 12.2641L10.7559 12.1776C10.5406 12.0223 10.2719 11.9454 10 11.9613C9.7282 11.9773 9.47195 12.085 9.27935 12.2644C9.08675 12.4437 8.97103 12.6822 8.95388 12.9353C8.93673 13.1884 9.01933 13.4386 9.1862 13.6391L9.27906 13.737L11.5167 15.8203L11.6219 15.9068C11.8181 16.0485 12.0594 16.1255 12.3077 16.1255C12.5561 16.1255 12.7974 16.0485 12.9936 15.9068L13.0987 15.8203L17.574 11.6537L17.6669 11.5557C17.8339 11.3553 17.9166 11.1051 17.8995 10.8519C17.8824 10.5988 17.7667 10.3601 17.574 10.1807Z"
              fill="#43A047"/>
    </g>
    <defs>
        <clipPath id="clip0_1_7571">
            <rect width="26.8519" height="25" fill="white" transform="translate(0 0.5)"/>
        </clipPath>
    </defs>
</svg>
