<svg width="24" height="24" viewBox="0 0 24 24" fill="none" xmlns="http://www.w3.org/2000/svg">
<rect x="0.499947" y="0.3" width="23.2007" height="23.2007" rx="11.6004" transform="rotate(0.494205 0.499947 0.3)" stroke="#E9E9E9" strokeWidth="0.594891"/>
<path fillRule="evenodd" clipRule="evenodd" d="M6.05078 9.62061C6.05078 9.14729 6.23881 8.69335 6.5735 8.35866C6.90819 8.02397 7.36213 7.83594 7.83545 7.83594H16.1639C16.6373 7.83594 17.0912 8.02397 17.4259 8.35866C17.7606 8.69335 17.9486 9.14729 17.9486 9.62061V14.3797C17.9486 14.8531 17.7606 15.307 17.4259 15.6417C17.0912 15.9764 16.6373 16.1644 16.1639 16.1644H7.83545C7.36213 16.1644 6.90819 15.9764 6.5735 15.6417C6.23881 15.307 6.05078 14.8531 6.05078 14.3797V9.62061ZM11.4048 12.0002C11.4048 11.8424 11.4675 11.6911 11.579 11.5795C11.6906 11.468 11.8419 11.4053 11.9997 11.4053C12.1575 11.4053 12.3088 11.468 12.4203 11.5795C12.5319 11.6911 12.5946 11.8424 12.5946 12.0002C12.5946 12.1579 12.5319 12.3093 12.4203 12.4208C12.3088 12.5324 12.1575 12.5951 11.9997 12.5951C11.8419 12.5951 11.6906 12.5324 11.579 12.4208C11.4675 12.3093 11.4048 12.1579 11.4048 12.0002ZM11.9997 10.2155C11.5264 10.2155 11.0724 10.4035 10.7377 10.7382C10.403 11.0729 10.215 11.5268 10.215 12.0002C10.215 12.4735 10.403 12.9274 10.7377 13.2621C11.0724 13.5968 11.5264 13.7848 11.9997 13.7848C12.473 13.7848 12.927 13.5968 13.2616 13.2621C13.5963 12.9274 13.7844 12.4735 13.7844 12.0002C13.7844 11.5268 13.5963 11.0729 13.2616 10.7382C12.927 10.4035 12.473 10.2155 11.9997 10.2155Z" fill="#14151A"/>
</svg>
