<svg width="24" height="24" viewBox="0 0 24 24" fill="none" xmlns="http://www.w3.org/2000/svg">
<g clipPath="url(#clip0_2095_46056)">
<path d="M23.4433 11.8154C23.4433 18.1337 18.3212 23.2558 12.0029 23.2558C5.68453 23.2558 0.5625 18.1337 0.5625 11.8154C0.5625 5.49703 5.68453 0.375 12.0029 0.375C18.3212 0.375 23.4433 5.49703 23.4433 11.8154Z" stroke="#E4E4E8" strokeWidth="0.75"/>
<path d="M14.0918 8.72112C14.0918 7.49532 13.0945 6.49805 11.8687 6.49805C10.6429 6.49805 9.64565 7.49532 9.64565 8.72112C9.64565 9.94693 10.6429 10.9442 11.8687 10.9442C13.0945 10.9442 14.0918 9.94693 14.0918 8.72112ZM11.8687 10.9442C9.66228 10.9442 7.86719 12.7393 7.86719 14.9457V15.3624C7.86719 15.4888 7.92096 15.6092 8.0151 15.6936C9.09812 16.664 10.4667 17.1985 11.8687 17.1985C13.2708 17.1985 14.6394 16.664 15.7224 15.6936C15.8165 15.6092 15.8703 15.4888 15.8703 15.3624V14.9457C15.8703 12.7393 14.0752 10.9442 11.8687 10.9442Z" fill="#272727"/>
</g>
<defs>
<clipPath id="clip0_2095_46056">
<rect width="24" height="23.6308" fill="white"/>
</clipPath>
</defs>
</svg>
