<svg width="142" height="141" viewBox="0 0 142 141" fill="none" xmlns="http://www.w3.org/2000/svg">
    <g clip-path="url(#clip0_1_92590)">
        <path d="M91.6328 93.2928V99.2754H50.3828V93.2928C50.3828 84.0448 54.8609 75.6125 62.0728 70.4004C54.8609 65.1883 50.3828 56.756 50.3828 47.508V41.5254H91.6328V47.508C91.6328 56.756 87.1547 65.1883 79.9428 70.4004C87.1547 75.6125 91.6328 84.0448 91.6328 93.2928Z"
              fill="#F9F8F4"/>
        <path d="M71.0055 140.8C58.4305 140.8 46.0888 137.44 35.3135 131.084C24.8624 124.918 16.1251 116.106 10.0451 105.597C8.90442 103.625 9.57789 101.102 11.5499 99.9611C13.5211 98.821 16.0451 99.4936 17.186 101.466C28.2793 120.639 48.9015 132.55 71.0055 132.55C105.275 132.55 133.155 104.67 133.155 70.4C133.155 36.1303 105.275 8.25 71.0055 8.25C68.7274 8.25 66.8805 6.4031 66.8805 4.125C66.8805 1.8469 68.7274 0 71.0055 0C89.81 0 107.489 7.32298 120.786 20.6195C134.082 33.9166 141.405 51.5955 141.405 70.4C141.405 89.2045 134.082 106.883 120.786 120.18C107.489 133.477 89.81 140.8 71.0055 140.8ZM97.1305 103.4C97.1305 101.122 95.2836 99.275 93.0055 99.275H49.0055C46.7274 99.275 44.8805 101.122 44.8805 103.4C44.8805 105.678 46.7274 107.525 49.0055 107.525H93.0055C95.2836 107.525 97.1305 105.678 97.1305 103.4ZM97.1305 37.4C97.1305 35.1219 95.2836 33.275 93.0055 33.275H49.0055C46.7274 33.275 44.8805 35.1219 44.8805 37.4C44.8805 39.6781 46.7274 41.525 49.0055 41.525H93.0055C95.2836 41.525 97.1305 39.6781 97.1305 37.4ZM53.8523 2.2583C51.5742 2.2583 49.7273 4.1052 49.7273 6.3833C49.7273 8.6614 51.5742 10.5083 53.8523 10.5083C56.1304 10.5083 57.9773 8.6614 57.9773 6.3833C57.9773 4.1052 56.1304 2.2583 53.8523 2.2583ZM37.868 8.8792C35.5899 8.8792 33.743 10.7261 33.743 13.0042C33.743 15.2823 35.5899 17.1292 37.868 17.1292C40.1461 17.1292 41.993 15.2823 41.993 13.0042C41.993 10.7261 40.1461 8.8792 37.868 8.8792ZM24.1419 19.4114C21.8638 19.4114 20.0169 21.2583 20.0169 23.5364C20.0169 25.8145 21.8638 27.6614 24.1419 27.6614C26.42 27.6614 28.2669 25.8145 28.2669 23.5364C28.2669 21.2583 26.4203 19.4114 24.1419 19.4114ZM13.6097 33.1375C11.3316 33.1375 9.48467 34.9844 9.48467 37.2625C9.48467 39.5406 11.3316 41.3875 13.6097 41.3875C15.8878 41.3875 17.7347 39.5406 17.7347 37.2625C17.7347 34.9844 15.8878 33.1375 13.6097 33.1375ZM6.98877 49.1219C4.71067 49.1219 2.86377 50.9688 2.86377 53.2469C2.86377 55.525 4.71067 57.3719 6.98877 57.3719C9.26687 57.3719 11.1138 55.525 11.1138 53.2469C11.1138 50.9688 9.26687 49.1219 6.98877 49.1219ZM4.73047 66.275C2.45237 66.275 0.605469 68.1219 0.605469 70.4C0.605469 72.6781 2.45237 74.525 4.73047 74.525C7.00857 74.525 8.85547 72.6781 8.85547 70.4C8.85547 68.1219 7.00857 66.275 4.73047 66.275ZM6.98877 83.4281C4.71067 83.4281 2.86377 85.275 2.86377 87.5531C2.86377 89.8312 4.71067 91.6781 6.98877 91.6781C9.26687 91.6781 11.1138 89.8312 11.1138 87.5531C11.1138 85.275 9.26687 83.4281 6.98877 83.4281Z"
              fill="#14151A"/>
    </g>
    <defs>
        <clipPath id="clip0_1_92590">
            <rect width="140.8" height="140.8" fill="white" transform="translate(0.601562)"/>
        </clipPath>
    </defs>
</svg>
