<svg width="24" height="25" viewBox="0 0 24 25" fill="none" xmlns="http://www.w3.org/2000/svg">
<path d="M23.625 12.6309C23.625 19.0512 18.4203 24.2559 12 24.2559C5.57969 24.2559 0.375 19.0512 0.375 12.6309C0.375 6.21055 5.57969 1.00586 12 1.00586C18.4203 1.00586 23.625 6.21055 23.625 12.6309Z" stroke="#E4E4E8" strokeWidth="0.75"/>
<g clipPath="url(#clip0_2095_46068)">
<path d="M8.4184 11.7608C8.41807 11.7609 8.41788 11.7605 8.41801 11.7603L10.4462 7.39119C10.5399 7.1878 10.6652 7.01815 10.8153 6.89505C10.9653 6.77092 11.1369 6.69601 11.3187 6.67333C11.7979 6.58659 12.228 6.94058 12.6098 7.37232C12.6974 7.47139 12.6965 7.6264 12.6132 7.72892C12.0373 8.4377 9.97894 11.0251 9.60591 11.4942C9.56718 11.5428 9.51354 11.5737 9.45131 11.5845C9.15381 11.6366 8.67027 11.7139 8.4184 11.7608Z" fill="#272727"/>
<path d="M8.4184 11.7608C8.41807 11.7609 8.41788 11.7605 8.41801 11.7603L10.4462 7.39119C10.5399 7.1878 10.6652 7.01815 10.8153 6.89505C10.9653 6.77092 11.1369 6.69601 11.3187 6.67333C11.7979 6.58659 12.228 6.94058 12.6098 7.37232C12.6974 7.47139 12.6965 7.6264 12.6132 7.72892C12.0373 8.4377 9.97894 11.0251 9.60591 11.4942C9.56718 11.5428 9.51354 11.5737 9.45131 11.5845C9.15381 11.6366 8.67027 11.7139 8.4184 11.7608Z" fill="#272727"/>
<g opacity="0.6" filter="url(#filter0_f_2095_46068)">
<path d="M10.6142 18.1687C13.4201 18.8325 16.2477 17.1571 16.9298 14.4264C17.6119 11.6957 15.8903 8.94396 13.0844 8.28012C10.2785 7.61628 7.45093 9.29176 6.76879 12.0224C6.08666 14.7531 7.8083 17.5048 10.6142 18.1687Z" fill="#272727"/>
<path d="M10.6142 18.1687C13.4201 18.8325 16.2477 17.1571 16.9298 14.4264C17.6119 11.6957 15.8903 8.94396 13.0844 8.28012C10.2785 7.61628 7.45093 9.29176 6.76879 12.0224C6.08666 14.7531 7.8083 17.5048 10.6142 18.1687Z" fill="#272727"/>
</g>
<path d="M15.0523 13.3012C15.0988 13.347 15.1253 13.4092 15.1253 13.4746C15.1253 13.5399 15.0994 13.6014 15.0523 13.6479C15.0052 13.6944 14.9419 13.7208 14.8748 13.7221C14.8083 13.7208 14.7444 13.6944 14.6979 13.6479C14.6508 13.6014 14.625 13.5393 14.625 13.4746C14.625 13.4099 14.6508 13.347 14.6979 13.3012C14.7444 13.2547 14.8083 13.2283 14.8748 13.2271C14.9419 13.2283 15.0052 13.2547 15.0523 13.3012Z" fill="#272727"/>
<path d="M17.3549 12.5048C17.2413 12.3942 17.0877 12.332 16.9269 12.332H14.527C14.2152 12.332 13.9164 12.4526 13.6963 12.6669C13.4761 12.8811 13.3516 13.1725 13.3516 13.4753C13.3516 13.7781 13.4755 14.0696 13.6963 14.2844C13.917 14.4993 14.2152 14.6193 14.527 14.6193H16.9269C17.0877 14.6186 17.2413 14.5564 17.3549 14.4459C17.4685 14.3353 17.5318 14.1864 17.5324 14.03V12.9213C17.5324 12.7649 17.4685 12.6153 17.3549 12.5048ZM15.3358 13.9245C15.2145 14.0445 15.0492 14.1129 14.8756 14.1148C14.7026 14.1129 14.5373 14.0445 14.4153 13.9245C14.294 13.8045 14.2256 13.6431 14.2256 13.4747C14.2256 13.3063 14.294 13.1443 14.4153 13.0243C14.5373 12.9049 14.7026 12.8365 14.8756 12.8346C15.0492 12.8365 15.2145 12.9049 15.3358 13.0249C15.4578 13.1443 15.5262 13.3063 15.5262 13.4747C15.5262 13.6431 15.4578 13.8045 15.3358 13.9245Z" fill="url(#paint0_linear_2095_46068)" fill-opacity="0.44"/>
<path d="M17.3549 12.5048C17.2413 12.3942 17.0877 12.332 16.9269 12.332H14.527C14.2152 12.332 13.9164 12.4526 13.6963 12.6669C13.4761 12.8811 13.3516 13.1725 13.3516 13.4753C13.3516 13.7781 13.4755 14.0696 13.6963 14.2844C13.917 14.4993 14.2152 14.6193 14.527 14.6193H16.9269C17.0877 14.6186 17.2413 14.5564 17.3549 14.4459C17.4685 14.3353 17.5318 14.1864 17.5324 14.03V12.9213C17.5324 12.7649 17.4685 12.6153 17.3549 12.5048ZM15.3358 13.9245C15.2145 14.0445 15.0492 14.1129 14.8756 14.1148C14.7026 14.1129 14.5373 14.0445 14.4153 13.9245C14.294 13.8045 14.2256 13.6431 14.2256 13.4747C14.2256 13.3063 14.294 13.1443 14.4153 13.0243C14.5373 12.9049 14.7026 12.8365 14.8756 12.8346C15.0492 12.8365 15.2145 12.9049 15.3358 13.0249C15.4578 13.1443 15.5262 13.3063 15.5262 13.4747C15.5262 13.6431 15.4578 13.8045 15.3358 13.9245Z" fill="url(#paint1_linear_2095_46068)" fill-opacity="0.2"/>
<path d="M17.3549 12.5048C17.2413 12.3942 17.0877 12.332 16.9269 12.332H14.527C14.2152 12.332 13.9164 12.4526 13.6963 12.6669C13.4761 12.8811 13.3516 13.1725 13.3516 13.4753C13.3516 13.7781 13.4755 14.0696 13.6963 14.2844C13.917 14.4993 14.2152 14.6193 14.527 14.6193H16.9269C17.0877 14.6186 17.2413 14.5564 17.3549 14.4459C17.4685 14.3353 17.5318 14.1864 17.5324 14.03V12.9213C17.5324 12.7649 17.4685 12.6153 17.3549 12.5048ZM15.3358 13.9245C15.2145 14.0445 15.0492 14.1129 14.8756 14.1148C14.7026 14.1129 14.5373 14.0445 14.4153 13.9245C14.294 13.8045 14.2256 13.6431 14.2256 13.4747C14.2256 13.3063 14.294 13.1443 14.4153 13.0243C14.5373 12.9049 14.7026 12.8365 14.8756 12.8346C15.0492 12.8365 15.2145 12.9049 15.3358 13.0249C15.4578 13.1443 15.5262 13.3063 15.5262 13.4747C15.5262 13.6431 15.4578 13.8045 15.3358 13.9245Z" fill="url(#paint2_linear_2095_46068)" fill-opacity="0.41"/>
<path d="M14.8742 14.1461H14.8749C15.057 14.1441 15.2304 14.0723 15.3578 13.9464C15.4857 13.8205 15.5575 13.6512 15.5575 13.4745C15.5575 13.298 15.4857 13.1279 15.3577 13.0026C15.2304 12.8768 15.057 12.805 14.8749 12.803H14.8742C14.6926 12.805 14.5193 12.8768 14.3915 13.002L14.3913 13.0021C14.264 13.128 14.1923 13.2979 14.1923 13.4745C14.1923 13.6512 14.264 13.8205 14.3913 13.9464L14.3914 13.9464C14.5193 14.0723 14.6926 14.1441 14.8742 14.1461ZM16.9259 12.3633C17.0781 12.3633 17.2235 12.4221 17.331 12.5269C17.4386 12.6315 17.4991 12.773 17.4991 12.9211V14.0297V14.0299C17.4985 14.178 17.4386 14.3189 17.331 14.4235C17.2235 14.5282 17.0781 14.5871 16.9259 14.5877H16.9258H14.526C14.2227 14.5877 13.9328 14.471 13.7181 14.262C13.5033 14.0531 13.3828 13.7696 13.3828 13.4752C13.3828 13.1807 13.504 12.8972 13.7181 12.6889C13.9321 12.4806 14.2228 12.3633 14.526 12.3633H16.9259Z" stroke="white" stroke-opacity="0.21" strokeWidth="0.75"/>
<path d="M14.8742 14.1461H14.8749C15.057 14.1441 15.2304 14.0723 15.3578 13.9464C15.4857 13.8205 15.5575 13.6512 15.5575 13.4745C15.5575 13.298 15.4857 13.1279 15.3577 13.0026C15.2304 12.8768 15.057 12.805 14.8749 12.803H14.8742C14.6926 12.805 14.5193 12.8768 14.3915 13.002L14.3913 13.0021C14.264 13.128 14.1923 13.2979 14.1923 13.4745C14.1923 13.6512 14.264 13.8205 14.3913 13.9464L14.3914 13.9464C14.5193 14.0723 14.6926 14.1441 14.8742 14.1461ZM16.9259 12.3633C17.0781 12.3633 17.2235 12.4221 17.331 12.5269C17.4386 12.6315 17.4991 12.773 17.4991 12.9211V14.0297V14.0299C17.4985 14.178 17.4386 14.3189 17.331 14.4235C17.2235 14.5282 17.0781 14.5871 16.9259 14.5877H16.9258H14.526C14.2227 14.5877 13.9328 14.471 13.7181 14.262C13.5033 14.0531 13.3828 13.7696 13.3828 13.4752C13.3828 13.1807 13.504 12.8972 13.7181 12.6889C13.9321 12.4806 14.2228 12.3633 14.526 12.3633H16.9259Z" stroke="url(#paint3_linear_2095_46068)" strokeWidth="0.75"/>
<path d="M15.1253 13.4746C15.1253 13.5393 15.0994 13.6014 15.0523 13.6479C15.0052 13.6944 14.9419 13.7208 14.8748 13.7221C14.8083 13.7208 14.7444 13.6944 14.6979 13.6479C14.6508 13.6014 14.625 13.5393 14.625 13.4746C14.625 13.4099 14.6508 13.347 14.6979 13.3012C14.7444 13.2547 14.8083 13.2283 14.8748 13.2271C14.9419 13.2283 15.0052 13.2547 15.0523 13.3012C15.0988 13.347 15.1253 13.4092 15.1253 13.4746Z" fill="#272727"/>
<path d="M10.5586 10.9002C10.5586 10.9002 13.161 7.64604 13.1769 7.63071C13.3907 7.38797 13.6428 7.32025 13.8808 7.44034C14.1188 7.56042 14.325 7.86069 14.4551 8.27717L15.2707 10.9002H10.5586Z" fill="#272727"/>
<path d="M10.5586 10.9002C10.5586 10.9002 13.161 7.64604 13.1769 7.63071C13.3907 7.38797 13.6428 7.32025 13.8808 7.44034C14.1188 7.56042 14.325 7.86069 14.4551 8.27717L15.2707 10.9002H10.5586Z" fill="#272727"/>
<path d="M13.1997 7.65335C13.2003 7.65266 13.2008 7.65222 13.201 7.65191L13.2018 7.65096C13.3057 7.53299 13.417 7.45974 13.5287 7.42957C13.64 7.39955 13.7541 7.41146 13.8663 7.46807C14.0928 7.58237 14.2954 7.87265 14.4246 8.28618L15.2276 10.8686H10.625L10.6963 10.7794L10.9913 10.4106C11.2355 10.1053 11.5613 9.69803 11.8876 9.29034C12.2139 8.88258 12.5407 8.47439 12.7869 8.16721C12.91 8.01355 13.0129 7.88521 13.0856 7.79482C13.122 7.74959 13.1507 7.71385 13.1706 7.68922C13.1806 7.67691 13.1883 7.66736 13.1937 7.66083C13.1963 7.65756 13.1984 7.65505 13.1997 7.65335Z" stroke="url(#paint4_linear_2095_46068)" strokeWidth="0.75"/>
<path d="M15.4555 15.4852C15.7138 15.4849 15.9783 15.4847 16.1872 15.4847V16.3623C16.1872 16.5194 16.1229 16.673 16.0051 16.7877C15.8868 16.9028 15.7247 16.9691 15.5533 16.9691H7.24263C7.07197 16.9691 6.90949 16.9029 6.79137 16.7881C6.67339 16.6723 6.60938 16.5189 6.60938 16.3623V10.5755C6.60938 10.4192 6.67372 10.2659 6.79178 10.1505C6.9101 10.0354 7.07211 9.96924 7.24263 9.96924H15.5533C15.7233 9.96924 15.8856 10.0357 16.0045 10.1508C16.1225 10.2656 16.1866 10.4186 16.1866 10.5755V11.4669H14.5244V11.4666L14.5109 11.4671C11.7989 11.5651 11.8064 15.3859 14.5107 15.4851L14.5107 15.4853L14.5228 15.4853C14.6584 15.4859 15.0493 15.4856 15.4555 15.4852Z" fill="#272727" stroke="#272727" strokeWidth="0.75"/>
<path d="M15.4555 15.4852C15.7138 15.4849 15.9783 15.4847 16.1872 15.4847V16.3623C16.1872 16.5194 16.1229 16.673 16.0051 16.7877C15.8868 16.9028 15.7247 16.9691 15.5533 16.9691H7.24263C7.07197 16.9691 6.90948 16.9029 6.79135 16.7881C6.67339 16.6723 6.60938 16.5189 6.60938 16.3623V10.5755C6.60938 10.4192 6.67372 10.2659 6.79178 10.1505C6.9101 10.0354 7.07211 9.96924 7.24263 9.96924H15.5533C15.7233 9.96924 15.8857 10.0357 16.0046 10.1509C16.1225 10.2657 16.1866 10.4187 16.1866 10.5755V11.4669H14.5244V11.4666L14.5109 11.4671C11.7989 11.5651 11.8064 15.3859 14.5107 15.4851L14.5107 15.4853L14.5228 15.4853C14.6584 15.4859 15.0493 15.4856 15.4555 15.4852Z" fill="#272727" stroke="#272727" strokeWidth="0.75"/>
<path d="M15.4466 15.1419C15.8927 15.1415 16.3601 15.1411 16.5289 15.1419V16.3626C16.5289 16.6143 16.4259 16.8564 16.2427 17.0345C16.0597 17.2127 15.8116 17.3131 15.5523 17.3131H7.24161C6.98298 17.3131 6.73431 17.2127 6.55124 17.0347C6.3687 16.8557 6.26562 16.6143 6.26562 16.3626V10.5758C6.26562 10.3241 6.36932 10.0827 6.55184 9.90445C6.73494 9.7263 6.98298 9.62598 7.24161 9.62598H15.5523C15.8109 9.62598 16.059 9.72686 16.2421 9.90451C16.4252 10.0827 16.5283 10.3241 16.5283 10.5758V11.8108H14.5234H14.5228H14.5222C12.2542 11.8927 12.2548 15.0589 14.5222 15.1421H14.5227H14.5233C14.6537 15.1426 15.0414 15.1423 15.4466 15.1419Z" stroke="#272727" strokeWidth="0.75"/>
<path d="M15.1253 13.4746C15.1253 13.5393 15.0994 13.6014 15.0523 13.6479C15.0052 13.6944 14.9419 13.7208 14.8748 13.7221C14.8083 13.7208 14.7444 13.6944 14.6979 13.6479C14.6508 13.6014 14.625 13.5393 14.625 13.4746C14.625 13.4099 14.6508 13.347 14.6979 13.3012C14.7444 13.2547 14.8083 13.2283 14.8748 13.2271C14.9419 13.2283 15.0052 13.2547 15.0523 13.3012C15.0988 13.347 15.1253 13.4092 15.1253 13.4746Z" fill="#272727"/>
</g>
<defs>
<filter id="filter0_f_2095_46068" x="-25.6304" y="-24.1152" width="74.9595" height="74.6792" filterUnits="userSpaceOnUse" color-interpolation-filters="sRGB">
<feFlood flood-opacity="0" result="BackgroundImageFix"/>
<feBlend mode="normal" in="SourceGraphic" in2="BackgroundImageFix" result="shape"/>
<feGaussianBlur stdDeviation="16.125" result="effect1_foregroundBlur_2095_46068"/>
</filter>
<linearGradient id="paint0_linear_2095_46068" x1="15.0001" y1="14.27" x2="16.9034" y2="11.5149" gradientUnits="userSpaceOnUse">
<stop stop-color="#E1E1E1"/>
<stop offset="1" stop-color="#F2F2F2"/>
</linearGradient>
<linearGradient id="paint1_linear_2095_46068" x1="8.14051" y1="16.3028" x2="14.8194" y2="12.185" gradientUnits="userSpaceOnUse">
<stop stop-color="white"/>
<stop offset="1" stop-color="white"/>
</linearGradient>
<linearGradient id="paint2_linear_2095_46068" x1="17.1128" y1="13.2875" x2="15.4786" y2="14.6628" gradientUnits="userSpaceOnUse">
<stop stop-color="white"/>
<stop offset="1" stop-color="white" stop-opacity="0"/>
</linearGradient>
<linearGradient id="paint3_linear_2095_46068" x1="13.6262" y1="11.8425" x2="15.6452" y2="15.0024" gradientUnits="userSpaceOnUse">
<stop offset="0.18648" stop-color="#F1EDFF"/>
<stop offset="1" stop-color="#ABABAB" stop-opacity="0"/>
</linearGradient>
<linearGradient id="paint4_linear_2095_46068" x1="4.72214" y1="11.0256" x2="16.1195" y2="8.19356" gradientUnits="userSpaceOnUse">
<stop stop-color="white"/>
<stop offset="1" stop-color="#C8C8C8" stop-opacity="0.05"/>
</linearGradient>
<clipPath id="clip0_2095_46068">
<rect width="15.75" height="14.25" fill="white" transform="translate(3.75 5.13086)"/>
</clipPath>
</defs>
</svg>
