<svg width="24" height="25" viewBox="0 0 24 25" fill="none" xmlns="http://www.w3.org/2000/svg">
<path d="M11.9984 1.59351C10.5899 1.59301 9.19501 1.87009 7.89358 2.40889C6.59214 2.9477 5.40963 3.73768 4.41362 4.73369C3.41761 5.72969 2.62763 6.9122 2.08883 8.21364C1.55002 9.51508 1.27295 10.9099 1.27344 12.3185C1.27295 13.7271 1.55002 15.1219 2.08883 16.4234C2.62763 17.7248 3.41761 18.9073 4.41362 19.9033C5.40963 20.8993 6.59214 21.6893 7.89358 22.2281C9.19501 22.7669 10.5899 23.044 11.9984 23.0435C13.407 23.044 14.8019 22.7669 16.1033 22.2281C17.4047 21.6893 18.5873 20.8993 19.5833 19.9033C20.5793 18.9073 21.3692 17.7248 21.9081 16.4234C22.4469 15.1219 22.7239 13.7271 22.7234 12.3185C22.7239 10.9099 22.4469 9.51508 21.9081 8.21364C21.3692 6.9122 20.5793 5.72969 19.5833 4.73369C18.5873 3.73768 17.4047 2.9477 16.1033 2.40889C14.8019 1.87009 13.407 1.59301 11.9984 1.59351ZM11.9984 20.0435C11.6777 20.0442 11.364 19.9498 11.097 19.7721C10.83 19.5943 10.6218 19.3414 10.4987 19.0452C10.3756 18.749 10.3432 18.423 10.4056 18.1084C10.468 17.7938 10.6224 17.5048 10.8492 17.278C11.076 17.0512 11.365 16.8968 11.6796 16.8345C11.9942 16.7721 12.3202 16.8045 12.6164 16.9275C12.9125 17.0506 13.1655 17.2588 13.3432 17.5258C13.521 17.7928 13.6154 18.1065 13.6147 18.4273C13.6137 18.8556 13.4431 19.2661 13.1402 19.569C12.8373 19.8719 12.4268 20.0425 11.9984 20.0435ZM13.9597 6.69351L13.3484 14.9435C13.3446 15.0005 13.3193 15.054 13.2775 15.093C13.2357 15.132 13.1806 15.1536 13.1234 15.1535H10.8734C10.8163 15.1536 10.7612 15.132 10.7194 15.093C10.6776 15.054 10.6522 15.0005 10.6484 14.9435L10.0372 6.69351C10.0206 6.42575 10.0591 6.15744 10.1501 5.9051C10.2412 5.65276 10.383 5.42175 10.5667 5.22628C10.7505 5.03082 10.9723 4.87505 11.2185 4.76858C11.4647 4.6621 11.7302 4.60717 11.9984 4.60717C12.2667 4.60717 12.5321 4.6621 12.7784 4.76858C13.0246 4.87505 13.2464 5.03082 13.4302 5.22628C13.6139 5.42175 13.7557 5.65276 13.8467 5.9051C13.9378 6.15744 13.9763 6.42575 13.9597 6.69351Z" fill="#FFC048"/>
</svg>
