 <svg
        width="276"
        height="53"
        viewBox="0 0 276 53"
        fill="none"
        xmlns="http://www.w3.org/2000/svg"
      >
        <path
          d="M65.6178 40.8366L56.8848 16.9243H62.747L67.8372 32.4279L73.4823 16.9243H77.9212L83.6146 32.4279L88.6807 16.9243H94.5671L85.834 40.8366H81.4193L75.7018 25.333L69.9602 40.8366H65.6178Z"
          fill="#272727"
        />
        <path
          d="M115.097 16.9243H120.597V40.8366H115.097V37.6117C114.454 38.6946 113.408 39.5864 111.961 40.2872C110.529 40.972 109.01 41.3144 107.401 41.3144C104.152 41.3144 101.402 40.112 99.1507 37.7072C96.9152 35.3024 95.7974 32.3482 95.7974 28.8446C95.7974 25.3728 96.9152 22.4345 99.1507 20.0298C101.402 17.625 104.152 16.4226 107.401 16.4226C108.993 16.4226 110.513 16.773 111.961 17.4737C113.408 18.1744 114.454 19.0663 115.097 20.1492V16.9243ZM108.535 36.1306C109.886 36.1306 111.165 35.7961 112.371 35.1273C113.593 34.4584 114.502 33.6064 115.097 32.5712V25.2374C114.502 24.1704 113.601 23.3025 112.395 22.6336C111.189 21.9488 109.902 21.6064 108.535 21.6064C106.46 21.6064 104.723 22.2992 103.324 23.6847C101.925 25.0543 101.225 26.7743 101.225 28.8446C101.225 30.9149 101.925 32.6508 103.324 34.0523C104.723 35.4378 106.46 36.1306 108.535 36.1306Z"
          fill="#272727"
        />
        <path
          d="M140.428 35.7961L140.741 40.5977C139.953 40.9799 138.964 41.171 137.774 41.171C135.056 41.171 132.861 40.3509 131.188 38.7105C129.515 37.0543 128.679 34.7769 128.679 31.8784V22.1081H124.047V16.9243H128.679V10.4983H134.155V16.9243H140.5V22.1081H134.155V31.6396C134.155 32.9932 134.573 34.0762 135.41 34.8884C136.262 35.6847 137.315 36.0828 138.57 36.0828C139.165 36.0828 139.784 35.9873 140.428 35.7961Z"
          fill="#272727"
        />
        <path
          d="M151.549 40.8366L142.816 16.9243H148.678L153.768 32.4279L159.413 16.9243H163.852L169.546 32.4279L174.612 16.9243H180.498L171.765 40.8366H167.35L161.633 25.333L155.891 40.8366H151.549Z"
          fill="#272727"
        />
        <path
          d="M201.028 16.9243H206.528V40.8366H201.028V37.6117C200.385 38.6946 199.339 39.5864 197.892 40.2872C196.46 40.972 194.941 41.3144 193.332 41.3144C190.084 41.3144 187.333 40.112 185.082 37.7072C182.846 35.3024 181.728 32.3482 181.728 28.8446C181.728 25.3728 182.846 22.4345 185.082 20.0298C187.333 17.625 190.084 16.4226 193.332 16.4226C194.925 16.4226 196.444 16.773 197.892 17.4737C199.339 18.1744 200.385 19.0663 201.028 20.1492V16.9243ZM194.466 36.1306C195.817 36.1306 197.096 35.7961 198.302 35.1273C199.524 34.4584 200.433 33.6064 201.028 32.5712V25.2374C200.433 24.1704 199.532 23.3025 198.326 22.6336C197.12 21.9488 195.833 21.6064 194.466 21.6064C192.391 21.6064 190.654 22.2992 189.255 23.6847C187.856 25.0543 187.156 26.7743 187.156 28.8446C187.156 30.9149 187.856 32.6508 189.255 34.0523C190.654 35.4378 192.391 36.1306 194.466 36.1306Z"
          fill="#272727"
        />
        <path
          d="M217.819 6.58057V40.8366H212.342V6.58057H217.819Z"
          fill="#272727"
        />
        <path
          d="M229.109 6.58057V40.8366H223.633V6.58057H229.109Z"
          fill="#272727"
        />
        <path
          d="M257.31 27.8174C257.31 28.7411 257.246 29.5294 257.117 30.1824H238.734C239.04 32.1253 239.82 33.6462 241.074 34.7451C242.345 35.8439 243.953 36.3934 245.899 36.3934C247.266 36.3934 248.521 36.1226 249.663 35.5811C250.805 35.0238 251.657 34.2832 252.22 33.3595L256.611 36.1306C255.71 37.755 254.303 39.029 252.389 39.9527C250.491 40.8605 248.296 41.3144 245.803 41.3144C243.503 41.3144 241.396 40.7729 239.482 39.69C237.568 38.5911 236.049 37.0782 234.923 35.1512C233.813 33.2242 233.258 31.0901 233.258 28.7491C233.258 26.4717 233.805 24.3934 234.899 22.5142C236.008 20.619 237.512 19.13 239.41 18.047C241.324 16.9641 243.423 16.4226 245.706 16.4226C247.845 16.4226 249.799 16.9243 251.569 17.9276C253.354 18.9309 254.753 20.3085 255.766 22.0603C256.796 23.7962 257.31 25.7152 257.31 27.8174ZM238.927 26.0019H251.52C251.376 24.5049 250.732 23.2866 249.59 22.3469C248.448 21.3914 247.049 20.9136 245.393 20.9136C243.768 20.9136 242.393 21.3675 241.267 22.2753C240.142 23.1671 239.362 24.4093 238.927 26.0019Z"
          fill="#272727"
        />
        <path
          d="M275.186 35.7961L275.5 40.5977C274.712 40.9799 273.723 41.171 272.533 41.171C269.815 41.171 267.619 40.3509 265.947 38.7105C264.274 37.0543 263.438 34.7769 263.438 31.8784V22.1081H258.806V16.9243H263.438V10.4983H268.914V16.9243H275.259V22.1081H268.914V31.6396C268.914 32.9932 269.332 34.0762 270.168 34.8884C271.021 35.6847 272.074 36.0828 273.329 36.0828C273.924 36.0828 274.543 35.9873 275.186 35.7961Z"
          fill="#272727"
        />
        <path
          d="M30.384 40.8696L21.1057 46.2415C20.7867 46.4262 20.7847 46.8815 21.102 47.0691L30.3788 52.552C30.5304 52.6417 30.7192 52.6429 30.872 52.5552L40.4885 47.0361C40.6368 46.951 40.7288 46.7949 40.7305 46.6253L40.9683 23.9318C40.9722 23.5594 40.5649 23.3242 40.2389 23.5106L30.8672 28.8713C30.717 28.9572 30.6245 29.1159 30.6245 29.2875V40.4547C30.6245 40.6254 30.5329 40.7833 30.384 40.8696Z"
          fill="#272727"
        />
        <mask
          id="mask0_230_57588"
          style="mask-type:alpha"
          maskUnits="userSpaceOnUse"
          x="20"
          y="23"
          width="21"
          height="30"
        >
          <path
            d="M30.382 40.8696L21.1038 46.2415C20.7848 46.4262 20.7827 46.8815 21.1 47.0691L30.3768 52.552C30.5284 52.6417 30.7173 52.6429 30.8701 52.5552L40.4865 47.0361C40.6348 46.951 40.7268 46.7949 40.7286 46.6253L40.9663 23.9318C40.9702 23.5594 40.563 23.3242 40.237 23.5106L30.8652 28.8713C30.715 28.9572 30.6225 29.1159 30.6225 29.2875V40.4547C30.6225 40.6254 30.531 40.7833 30.382 40.8696Z"
            fill="url(#paint0_linear_230_57588)"
          />
        </mask>
        <g mask="url(#mask0_230_57588)">
          <path
            d="M41.2316 43.9604L27.4277 51.7486L30.0524 53.4793L41.2316 47.2295V43.9604Z"
            fill="#272727"
          />
        </g>
        <path
          d="M0.742699 22.9496L40.7447 0.0653135C41.0688 -0.120059 41.4742 0.11122 41.4742 0.481467V11.1536C41.4742 11.3247 41.3822 11.4829 41.2327 11.569L11.0941 28.9328C10.9446 29.0189 10.8527 29.1771 10.8527 29.3482V39.6521C10.8527 40.0219 11.2572 40.2532 11.5813 40.0687L20.8982 34.7629C21.0496 34.6767 21.236 34.6775 21.3866 34.7648L30.5317 40.0692C30.8518 40.2548 30.8519 40.7126 30.5319 40.8984L11.0944 52.1868C10.9448 52.2737 10.7597 52.2751 10.6088 52.1905L0.746551 46.6668C0.594183 46.5815 0.5 46.4217 0.5 46.2485V23.3657C0.5 23.1941 0.592498 23.0355 0.742699 22.9496Z"
          fill="#272727"
        />
        <mask
          id="mask1_230_57588"
          style="mask-type:alpha"
          maskUnits="userSpaceOnUse"
          x="0"
          y="0"
          width="42"
          height="53"
        >
          <path
            d="M0.742699 22.9496L40.7447 0.0653135C41.0688 -0.120059 41.4742 0.11122 41.4742 0.481467V11.1536C41.4742 11.3247 41.3822 11.4829 41.2327 11.569L11.0941 28.9328C10.9446 29.0189 10.8527 29.1771 10.8527 29.3482V39.6521C10.8527 40.0219 11.2572 40.2532 11.5813 40.0687L20.8982 34.7629C21.0496 34.6767 21.236 34.6775 21.3866 34.7648L30.5317 40.0692C30.8518 40.2548 30.8519 40.7126 30.5319 40.8984L11.0944 52.1868C10.9448 52.2737 10.7597 52.2751 10.6088 52.1905L0.746551 46.6668C0.594183 46.5815 0.5 46.4217 0.5 46.2485V23.3657C0.5 23.1941 0.592498 23.0355 0.742699 22.9496Z"
            fill="url(#paint1_linear_230_57588)"
          />
        </mask>
        <g mask="url(#mask1_230_57588)">
          <path
            d="M5.26284 26.0765L42.5916 4.73122L41.9111 -1.42236L-0.666992 22.9997V46.8448L10.415 53.0946L31.704 40.7874L27.0379 37.8068L10.901 46.8448L5.26284 43.9603V26.0765Z"
            fill="black"
            fill-opacity="0.15"
          />
        </g>
        <mask
          id="mask2_230_57588"
          style="mask-type:alpha"
          maskUnits="userSpaceOnUse"
          x="0"
          y="0"
          width="42"
          height="53"
        >
          <path
            d="M0.742699 22.9496L40.7447 0.0653135C41.0688 -0.120059 41.4742 0.11122 41.4742 0.481467V11.1536C41.4742 11.3247 41.3822 11.4829 41.2327 11.569L11.0941 28.9328C10.9446 29.0189 10.8527 29.1771 10.8527 29.3482V39.6521C10.8527 40.0219 11.2572 40.2532 11.5813 40.0687L20.8982 34.7629C21.0496 34.6767 21.236 34.6775 21.3866 34.7648L30.5317 40.0692C30.8518 40.2548 30.8519 40.7126 30.5319 40.8984L11.0944 52.1868C10.9448 52.2737 10.7597 52.2751 10.6088 52.1905L0.746551 46.6668C0.594183 46.5815 0.5 46.4217 0.5 46.2485V23.3657C0.5 23.1941 0.592498 23.0355 0.742699 22.9496Z"
            fill="url(#paint2_linear_230_57588)"
          />
        </mask>
        <g mask="url(#mask2_230_57588)">
          <path
            d="M3.5143 24.9227L41.8152 3.48128L42.4956 -1.42236L-0.179688 22.7112V47.2294L10.4162 53.7676L31.8997 40.9797L28.8862 38.8644L10.9023 49.2486L3.5143 45.2103V24.9227Z"
            fill="black"
            fill-opacity="0.15"
          />
        </g>
        <defs>
          <linearGradient
            id="paint0_linear_230_57588"
            x1="29.5746"
            y1="32.0897"
            x2="47.0639"
            y2="49.0242"
            gradientUnits="userSpaceOnUse"
          >
            <stop stop-color="#A083EC" />
            <stop offset="0.0001" stop-color="#F7F3FF" />
            <stop offset="1" stop-color="#F7F7FF" />
          </linearGradient>
          <linearGradient
            id="paint1_linear_230_57588"
            x1="18.2555"
            y1="15.2567"
            x2="49.7266"
            y2="49.6545"
            gradientUnits="userSpaceOnUse"
          >
            <stop stop-color="#AB8DFB" />
            <stop offset="0.489583" stop-color="#766DD2" />
            <stop offset="1" stop-color="#666AE1" />
          </linearGradient>
          <linearGradient
            id="paint2_linear_230_57588"
            x1="18.2555"
            y1="15.4824"
            x2="49.4485"
            y2="49.8543"
            gradientUnits="userSpaceOnUse"
          >
            <stop stop-color="white" />
            <stop offset="1" stop-color="#DFDFDF" />
          </linearGradient>
        </defs>
      </svg>