<svg width="24" height="24" viewBox="0 0 24 24" fill="none" xmlns="http://www.w3.org/2000/svg">
<rect x="0.205078" width="23.7956" height="23.7956" rx="11.8978" transform="rotate(0.494205 0.205078 0)" fill="#F3EEFD"/>
<g clipPath="url(#clip0_85_33616)">
<path d="M17.8181 8.768C17.7532 8.54145 17.2599 8.18303 16.8534 8.58954C16.4469 8.99605 15.2095 10.2334 15.2095 10.2334C14.8193 10.6236 14.1813 10.6122 13.7951 10.2156C13.399 9.82939 13.3867 9.19087 13.7768 8.80072C13.7768 8.80072 15.0142 7.56335 15.4207 7.15684C15.8272 6.75033 15.4688 6.25707 15.2422 6.19213C14.8714 6.08604 14.4872 6.03944 14.0936 6.05381C12.2231 6.12024 10.6467 7.63969 10.5208 9.50666C10.4985 9.83633 10.5183 10.1596 10.5788 10.4734C10.669 10.9394 10.498 11.4177 10.1623 11.7539L6.48195 15.4238C5.9059 16.0004 5.90937 16.9403 6.47848 17.5213C7.05949 18.0909 7.99942 18.0944 8.57597 17.5184L12.2564 13.8479C12.592 13.5123 13.0704 13.3412 13.5369 13.4315C13.8507 13.4919 14.1739 13.5118 14.5036 13.4895C16.371 13.3635 17.89 11.7871 17.9564 9.91664C17.9703 9.52302 17.9242 9.13882 17.8181 8.768Z" fill="#745ADD"/>
</g>
<defs>
<clipPath id="clip0_85_33616">
<rect width="11.8978" height="11.8978" fill="white" transform="translate(6.05078 6.05127)"/>
</clipPath>
</defs>
</svg>
